<?xml version="1.0" encoding="UTF-8" standalone="no"?>
<!-- Created with Inkscape (http://www.inkscape.org/) -->

<svg
   xmlns:dc="http://purl.org/dc/elements/1.1/"
   xmlns:cc="http://creativecommons.org/ns#"
   xmlns:rdf="http://www.w3.org/1999/02/22-rdf-syntax-ns#"
   xmlns:svg="http://www.w3.org/2000/svg"
   xmlns="http://www.w3.org/2000/svg"
   xmlns:xlink="http://www.w3.org/1999/xlink"
   xmlns:sodipodi="http://sodipodi.sourceforge.net/DTD/sodipodi-0.dtd"
   xmlns:inkscape="http://www.inkscape.org/namespaces/inkscape"
   width="210mm"
   height="297mm"
   viewBox="0 0 744.09448819 1052.3622047"
   id="svg2"
   version="1.1"
   inkscape:version="0.91 r13725"
   sodipodi:docname="lobomir.svg">
  <defs
     id="defs4" />
  <sodipodi:namedview
     id="base"
     pagecolor="#ffffff"
     bordercolor="#666666"
     borderopacity="1.0"
     inkscape:pageopacity="0.0"
     inkscape:pageshadow="2"
     inkscape:zoom="0.175"
     inkscape:cx="1739.0952"
     inkscape:cy="715.25182"
     inkscape:document-units="px"
     inkscape:current-layer="layer2"
     showgrid="false"
     inkscape:window-width="1920"
     inkscape:window-height="1021"
     inkscape:window-x="1366"
     inkscape:window-y="27"
     inkscape:window-maximized="1" />
  <metadata
     id="metadata7">
    <rdf:RDF>
      <cc:Work
         rdf:about="">
        <dc:format>image/svg+xml</dc:format>
        <dc:type
           rdf:resource="http://purl.org/dc/dcmitype/StillImage" />
        <dc:title></dc:title>
      </cc:Work>
    </rdf:RDF>
  </metadata>
  <g
     inkscape:label="Layer 1"
     inkscape:groupmode="layer"
     id="layer1"
     sodipodi:insensitive="true">
    <image
       sodipodi:absref="/home/chihiro/ownCloud/Images/oznamko_lobomir/assets/IMG_20170420_203211.jpg"
       xlink:href="assets/IMG_20170420_203211.jpg"
       width="3240"
       height="2430"
       preserveAspectRatio="none"
       id="image4201"
       x="-788.57141"
       y="-371.20923" />
  </g>
  <g
     inkscape:groupmode="layer"
     id="layer2"
     inkscape:label="Layer 2"
     style="opacity:0.42151163">
    <path
       style="fill:#ff0000;fill-rule:evenodd;stroke:#000000;stroke-width:1px;stroke-linecap:butt;stroke-linejoin:miter;stroke-opacity:1"
       d="m 1124.8049,-322.96049 -7.5762,-21.71828 -11.1117,-23.73858 -12.1218,-15.65737 -10.6066,-7.07106 -7.071,-5.55585 -6.061,-4.54568 -20.7081,-8.5863 -19.1929,-5.05076 -21.7183,-5.05076 -16.16242,-2.02031 -18.68783,-0.50507 -13.63706,1.51522 -18.18274,4.54569 -23.73859,10.10153 -15.15229,8.08121 -11.11167,9.09138 -15.15229,24.74874 -10.10153,28.28427 -9.09137,27.7792 -6.06091,27.77919 -16.66752,-1.01015 -2.02031,8.58629 -13.63706,0 -14.14213,2.52539 -15.15229,7.57614 -11.11168,11.11168 -6.56599,16.16244 -4.04061,20.70813 2.02031,16.16244 5.55584,16.16244 6.06091,10.10152 -12.12183,10.6066 -18.18275,16.66752 -18.68782,22.22336 -23.73858,31.819803 -18.68782,28.284271 -19.69798,27.779195 -19.69797,26.7690425 -21.21321,31.3147285 -14.64721,20.708128 -12.12183,4.545686 -12.12183,13.637059 -5.55584,16.162441 -0.50508,6.060915 -14.64721,9.091373 -18.18274,13.131988 -5.05077,7.57614 -9.59645,11.61675 -19.19289,7.07107 -8.08122,5.55584 -9.59645,10.6066 -12.62691,12.12183 -17.67767,15.65737 -16.16244,9.59645 -13.13198,14.64721 -13.63706,16.16244 -8.08122,11.61675 -13.13199,7.07107 -7.57614,6.56599 -15.65737,13.13199 -14.14213,14.14213 -16.66752,19.69798 -6.56599,16.66751 -5.55584,12.12183 0,16.16244 -2.52538,13.13199 -9.09137,19.1929 -9.59645,26.76904 -9.09137,19.69797 -1.51523,16.16244 -2.52538,27.27412 -8.5863,18.18275 -3.53554,19.1929 4.04061,19.69797 6.06092,27.27412 10.10153,31.31473 -10.10153,8.08122 -6.06092,10.6066 1.51523,8.08122 -5.55584,14.64721 -2.52538,19.1929 2.02031,15.65737 5.55584,17.17259 27.77919,11.11168 29.29443,18.18274 64.14468,12.62691 2.52538,0 -2.0203,18.68782 8.08122,7.57615 17.67767,36.36549 15.65736,42.93148 13.63706,36.87057 14.64721,30.80965 10.10153,22.22336 15.65736,21.2132 -96.97464,145.46197 -5.55584,8.5863 -44.44671,-19.698 -85.35789,-25.2538 -72.73098,-9.5964 -72.22591,-2.5254 -73.741137,9.0913 -61.1142291,17.1726 -63.6396099,28.2843 -66.164994,39.396 -48.48732,40.9111 -41.41625,40.9112 -39.39595,54.0432 -33.84011,64.1447 -27.7792,66.67 -7.07107,28.7894 -7.57614,73.236 -2.02031,67.6803 13.13199,76.2665 10.6066,36.3655 25.25381,54.5482 33.33504,55.5584 44.44671,56.5685 56.56854,51.0127 40.91118,29.7995 66.164991,26.264 68.185296,19.698 67.175145,9.5964 78.791898,1.0102 74.24621,-9.5965 67.17515,-22.2233 62.12438,-28.2843 62.12438,-39.901 56.06347,-48.4873 36.87056,-45.4569 22.22336,-8.5863 60.60915,-10.1015 2.52538,35.3553 33.84011,-7.0711 4.04061,14.6473 16.66752,7.071 14.14214,-5.5558 8.08122,-11.1117 -1.01015,-12.1218 17.17259,1.0101 2.0203,-25.2538 41.41626,-8.5863 36.36549,-2.5254 36.87057,-11.6167 35.86041,-27.7792 22.72844,-29.7995 14.64721,-38.3858 4.54568,-23.2335 -2.52538,-41.9213 -12.12183,-35.3554 -15.15229,-23.2335 -13.13198,-14.6472 21.71828,-22.7284 62.62946,-69.7006 19.69797,-1.0101 15.15229,-2.5254 24.24366,-5.0508 8.0812,-8.5863 3.5356,-19.1929 -3.0305,-19.1929 -7.5761,-7.071 -3.5356,-1.0102 288.3986,-314.1574 4.5457,15.1523 -3.0305,20.7081 17.1726,38.3858 -33.335,29.2944 -36.8706,36.8706 -39.901,46.467 -22.2234,36.3655 -28.7893,60.6092 -13.6371,43.4365 -11.6168,55.0533 -5.0507,57.0736 0.5051,38.3858 6.0609,44.4468 14.1421,45.9619 17.6777,54.0432 27.7792,53.538 29.2944,46.4671 31.3147,36.3654 45.4569,38.8909 41.4163,27.7792 38.8908,22.7284 62.6295,24.7488 50.0025,9.5964 81.8224,4.5457 88.3883,-13.637 50.0026,-23.2335 59.0939,-35.8605 55.0533,-42.9314 38.8909,-40.9112 31.3147,-47.4772 29.2945,-55.0533 22.2233,-58.0838 13.132,-50.0025 6.566,-66.6701 -3.5356,-54.0432 -7.5761,-67.6802 -22.7284,-67.6802 -33.8401,-61.6193 -27.2742,-40.4061 -38.3858,-41.9213 -43.9416,-36.8706 -61.1142,-35.8604 -54.0432,-21.2132 -68.6904,-15.6574 -54.5482,-4.5457 -50.5076,2.0203 -50.5076,9.0914 -38.8909,16.1624 -35.3554,11.1117 -18.1827,-38.3858 -14.1421,-8.0812 -62.6295,-195.96959 -14.6472,-15.15229 -23.7386,-82.83251 5.5558,-22.22335 35.3554,-25.25382 54.5482,-20.20305 33.8401,16.16244 c 0,0 13.132,-4.54568 15.1523,-4.54568 2.0203,0 13.6371,-9.59645 13.6371,-9.59645 l -6.0609,-13.13198 -10.1016,-9.09138 17.6777,-3.03046 20.7081,-9.59644 3.0305,-2.02031 23.7386,-3.53553 1.5152,5.55584 -2.0203,23.73858 19.1929,-0.50508 21.2132,-16.66751 c 0,0 -6.566,-14.64721 -7.5761,-22.72844 -1.0102,-8.08122 -10.1016,-25.25381 -10.1016,-25.25381 l -10.6066,-10.6066 -13.132,-14.14214 -14.6472,-16.16244 -11.1116,-9.09137 c 0,0 -12.6269,2.02031 -14.6473,2.52538 -2.0203,0.50508 -21.7182,4.54569 -21.7182,4.54569 l -16.1625,6.56599 -14.6472,-7.07107 c 0,0 -12.6269,-11.11168 -15.1523,-12.62691 -2.5254,-1.51522 -16.1624,-3.03045 -16.1624,-3.03045 0,0 -8.0812,-1.01016 -9.0914,-3.53554 -1.0101,-2.52538 -5.0507,-8.58629 -6.566,-10.6066 -1.5152,-2.0203 -7.071,-9.59645 -7.5761,-12.12183 -0.5051,-2.52538 5.5558,-11.61675 5.5558,-11.61675 l 0.5051,-5.05077 -5.0508,-7.07106 -5.5558,-6.566 -7.0711,-6.56599 c 0,0 -12.1218,6.06092 -13.637,2.52538 -1.5153,-3.53553 -35.3554,-73.74113 -35.3554,-73.74113 l -16.6675,-19.1929 -20.203,-47.98225 c 0,0 -21.7183,-44.44671 -22.2234,-45.96194 -0.5051,-1.51523 -18.6878,-40.4061 -20.7081,-41.92133 -2.0203,-1.51523 -19.698,-23.73858 -21.2132,-26.76904 -1.5153,-3.03046 -19.1929,-26.26397 -20.2031,-28.28427 -1.0101,-2.02031 -19.1929,-23.73859 -19.1929,-23.73859 l -13.132,-38.89087 -15.6573,-38.890872 -19.698,-37.375644 -7.5761,-47.982246 -6.061,-41.416254 -6.0609,-33.840111 3.5356,-17.172593 13.1319,-7.57614 19.1929,-3.03046 20.2031,3.03046 17.6777,-0.50508 8.5863,-6.06092 c 0,0 6.0609,-9.59644 6.0609,-12.12183 l 0,-16.16244 6.566,-11.61675 9.0913,-6.56599 2.0203,-8.5863 -2.5253,-8.5863 -2.0203,-1.01015 5.5558,-2.52538 3.5355,-8.5863 -3.0304,-6.06091 1.5152,-6.06092 0.5051,-4.54568 8.0812,-1.01016 11.1117,-2.0203 6.0609,-5.05076 -1.0102,-10.60661 -4.0406,-8.58629 -9.0913,-7.57615 -13.6371,-19.69797 -6.0609,-7.07107 0,-7.07107 6.566,-8.58629 0,-7.57615 2.5254,-4.54568 3.0304,-7.57615 -3.0304,-7.57614 -5.0508,-9.59645 z"
       id="path4224"
       inkscape:connector-curvature="0"
       sodipodi:nodetypes="ccccccccccccccccccccccccccccccccccccccccccccccccccccccccccccccccccccccccccccccccccccccccccccccccccccccccccccccccccccccccccccccccccccccccccccccccccccccccccccccccccccccccccccccccccccccccccccccccccccccccccccccccccccccccccccccscccccccccccccccccccccscccscccccccccsscccccccccccccccsccccccccccccccccccccccccccc" />
  </g>
</svg>
