<?xml version="1.0" encoding="UTF-8" standalone="no"?>
<!-- Created with Inkscape (http://www.inkscape.org/) -->

<svg
   xmlns:dc="http://purl.org/dc/elements/1.1/"
   xmlns:cc="http://creativecommons.org/ns#"
   xmlns:rdf="http://www.w3.org/1999/02/22-rdf-syntax-ns#"
   xmlns:svg="http://www.w3.org/2000/svg"
   xmlns="http://www.w3.org/2000/svg"
   xmlns:xlink="http://www.w3.org/1999/xlink"
   xmlns:sodipodi="http://sodipodi.sourceforge.net/DTD/sodipodi-0.dtd"
   xmlns:inkscape="http://www.inkscape.org/namespaces/inkscape"
   width="646.71912mm"
   height="674.9425mm"
   viewBox="0 0 2291.5244 2391.5285"
   id="svg2"
   version="1.1"
   inkscape:version="0.91 r13725"
   sodipodi:docname="lobomir.svg">
  <defs
     id="defs4" />
  <sodipodi:namedview
     id="base"
     pagecolor="#ffffff"
     bordercolor="#666666"
     borderopacity="1.0"
     inkscape:pageopacity="0.0"
     inkscape:pageshadow="2"
     inkscape:zoom="0.24748737"
     inkscape:cx="1196.7863"
     inkscape:cy="1056.8496"
     inkscape:document-units="px"
     inkscape:current-layer="layer2"
     showgrid="false"
     inkscape:window-width="1920"
     inkscape:window-height="1021"
     inkscape:window-x="1366"
     inkscape:window-y="27"
     inkscape:window-maximized="1"
     fit-margin-top="0"
     fit-margin-left="0"
     fit-margin-right="0"
     fit-margin-bottom="0" />
  <metadata
     id="metadata7">
    <rdf:RDF>
      <cc:Work
         rdf:about="">
        <dc:format>image/svg+xml</dc:format>
        <dc:type
           rdf:resource="http://purl.org/dc/dcmitype/StillImage" />
        <dc:title />
      </cc:Work>
    </rdf:RDF>
  </metadata>
  <g
     inkscape:label="Layer 1"
     inkscape:groupmode="layer"
     id="layer1"
     sodipodi:insensitive="true"
     style="display:none"
     transform="translate(334.35675,422.96169)">
    <image
       sodipodi:absref="/home/chihiro/ownCloud/Images/oznamko_lobomir/assets/IMG_20170420_203211.jpg"
       xlink:href="assets/IMG_20170420_203211.jpg"
       y="-371.20923"
       x="-788.57141"
       id="image4201"
       preserveAspectRatio="none"
       height="2430"
       width="3240" />
  </g>
  <g
     inkscape:groupmode="layer"
     id="layer2"
     inkscape:label="Layer 2"
     style="opacity:0.422"
     transform="translate(334.35675,422.96169)">
    <path
       style="fill:none;fill-rule:evenodd;stroke:#000000;stroke-width:10;stroke-linecap:butt;stroke-linejoin:round;stroke-opacity:1"
       d="m 973.78711,-422.46094 -13.63672,1.51563 -18.18359,4.54492 -23.73828,10.10156 -15.15235,8.08203 -11.11133,9.0918 -15.15234,24.74805 -10.10156,28.28515 -9.0918,27.7793 -6.06055,27.7793 -16.66797,-1.01172 -2.01953,8.58789 -13.63671,0 -14.14258,2.52539 -15.15235,7.57617 -11.11133,11.11133 -6.5664,16.16211 -4.04102,20.70703 2.02149,16.16406 5.55469,16.16211 6.06054,10.10156 -12.12109,10.60547 -18.1836,16.66797 -18.6875,22.22266 -23.73828,31.820311 -18.6875,28.285156 -19.69726,27.779297 -19.69922,26.7675779 -21.21289,31.3164061 -14.64649,20.707031 -12.12304,4.546875 -12.1211,13.636719 -5.55664,16.162109 -0.5039,6.060547 -14.64844,9.091797 -18.18164,13.130864 -5.05078,7.57617 -9.59766,11.61719 -19.19141,7.07226 -8.08203,5.55469 -9.5957,10.60742 -12.62695,12.12109 -17.67774,15.65821 -16.16211,9.5957 -13.13281,14.64648 -13.63672,16.16407 -8.08203,11.61523 -13.13086,7.07227 -7.57617,6.5664 -15.6582,13.13086 -14.14258,14.14258 -16.66602,19.69727 -6.5664,16.66797 -5.55664,12.12109 0,16.16406 -2.5254,13.13086 -9.09179,19.19336 -9.59571,26.76953 -9.09179,19.69727 -1.51563,16.16211 -2.52539,27.27539 -8.58593,18.18164 -3.53516,19.19336 4.04101,19.69726 6.06055,27.27539 10.10156,31.31446 -10.10156,8.08007 -6.06055,10.60743 1.51563,8.08007 -5.55664,14.64844 -2.52539,19.19336 2.01953,15.65625 5.55664,17.17383 27.7793,11.11133 29.29492,18.18164 64.14453,12.62695 2.52539,0 -2.02148,18.6875 8.08203,7.57617 17.67773,36.36719 15.6582,42.92969 13.63672,36.87109 14.64649,30.81055 10.10156,22.22266 15.6582,21.21289 -96.97461,145.46293 -5.55664,8.5859 -44.44726,-19.6973 -85.35742,-25.2539 -72.73047,-9.5976 -72.22657,-2.5254 -73.740229,9.0918 -61.1152348,17.1718 -63.6386722,28.2852 -66.166014,39.3965 -48.48633,40.9101 -41.41602,40.9122 -39.39648,54.0429 -33.83984,64.1446 -27.7793,66.6699 -7.07227,28.789 -7.57617,73.2364 -2.01953,67.6797 13.13281,76.2675 10.60547,36.3653 25.25391,54.5488 33.33594,55.5566 44.44531,56.5703 56.56836,51.0118 40.91211,29.7988 66.16406,26.2656 68.185547,19.6973 67.175781,9.5957 78.791012,1.0117 74.24805,-9.5976 67.17383,-22.2227 62.125,-28.2852 62.125,-39.9004 56.0625,-48.4882 36.87109,-45.4571 22.22266,-8.5859 60.60937,-10.1016 2.52539,35.3555 33.83985,-7.0703 4.04101,14.6465 16.66797,7.0722 14.14258,-5.5566 8.08008,-11.1113 -1.00977,-12.1231 17.17188,1.0117 2.02148,-25.2539 41.41602,-8.5859 36.36523,-2.5254 36.8711,-11.6172 35.85937,-27.7793 22.72852,-29.8008 14.64843,-38.3847 4.54493,-23.2344 -2.52539,-41.9199 -12.1211,-35.3555 -15.15234,-23.2344 -13.13281,-14.6464 21.71875,-22.7286 62.6289,-69.7011 19.69727,-1.0098 15.15234,-2.5254 24.24417,-5.0508 8.082,-8.5859 3.5352,-19.1934 -3.0313,-19.1933 -7.5762,-7.0703 -3.5351,-1.0098 288.3984,-314.1582 4.5469,15.1523 -3.0313,20.709 17.1719,38.3848 -33.334,29.2949 -36.8711,36.8711 -39.9004,46.4668 -22.2246,36.3652 -28.789,60.6094 -13.6367,43.4356 -11.6172,55.0546 -5.0508,57.0723 0.5059,38.3867 6.0605,44.4473 14.1426,45.9609 17.6777,54.043 27.7793,53.5391 29.2949,46.4668 31.3145,36.3652 45.457,38.8906 41.416,27.7793 38.8907,22.7285 62.6289,24.7481 50.0019,9.5976 81.8223,4.545 88.3887,-13.6368 50.0039,-23.2343 59.0937,-35.8594 55.0527,-42.9317 38.8907,-40.9121 31.3144,-47.4765 29.2949,-55.0528 22.2227,-58.0839 13.1328,-50.002 6.5664,-66.6719 -3.5351,-54.0429 -7.5762,-67.6797 -22.7285,-67.6797 -33.8418,-61.6192 -27.2735,-40.4062 -38.3847,-41.9219 -43.9434,-36.8711 -61.1133,-35.8594 -54.0429,-21.2128 -68.6914,-15.6582 -54.5469,-4.545 -50.5078,2.0196 -50.5078,9.0918 -38.8907,16.1621 -35.3554,11.1113 -18.1836,-38.3848 -14.1407,-8.082 -62.6308,-195.96875 -14.6465,-15.15234 -23.7383,-82.83399 5.5547,-22.22265 35.3555,-25.25391 54.5488,-20.20313 33.8398,16.16211 c 0,0 13.1321,-4.54492 15.1524,-4.54492 2.0203,0 13.6367,-9.5957 13.6367,-9.5957 l -6.0605,-13.13281 -10.1016,-9.0918 17.6777,-3.0293 20.709,-9.59765 3.0293,-2.01954 23.7383,-3.53515 1.5156,5.55469 -2.0195,23.73828 19.1914,-0.50391 21.2148,-16.66797 c 0,0 -6.566,-14.64728 -7.5761,-22.72851 -1.0102,-8.08122 -10.1016,-25.25391 -10.1016,-25.25391 l -10.6074,-10.60547 -13.1328,-14.14258 -14.6465,-16.16211 -11.1113,-9.09179 c 0,0 -12.6261,2.02032 -14.6465,2.52539 -2.0203,0.50508 -21.7188,4.54492 -21.7188,4.54492 l -16.1621,6.56641 -14.6484,-7.07032 c 0,0 -12.627,-11.11172 -15.1524,-12.62695 -2.5254,-1.51522 -16.1621,-3.03125 -16.1621,-3.03125 0,0 -8.0816,-1.00978 -9.0918,-3.53516 -1.0101,-2.52538 -5.0491,-8.58711 -6.5644,-10.60742 -1.5152,-2.0203 -7.0711,-9.59571 -7.5762,-12.12109 -0.5051,-2.52538 5.5547,-11.61719 5.5547,-11.61719 l 0.5058,-5.05078 -5.0507,-7.07031 -5.5567,-6.56641 -7.0703,-6.56641 c 0,0 -12.1215,6.06094 -13.6367,2.5254 -1.5153,-3.53553 -35.3555,-73.74024 -35.3555,-73.74024 l -16.6679,-19.19336 -20.2032,-47.98242 c 0,0 -21.7175,-44.44766 -22.2226,-45.96289 -0.5051,-1.51523 -18.6887,-40.40469 -20.709,-41.91992 -2.0203,-1.51523 -19.6977,-23.73907 -21.2129,-26.76953 -1.5153,-3.03046 -19.1929,-26.26486 -20.2031,-28.28516 -1.0101,-2.02031 -19.1934,-23.73828 -19.1934,-23.73828 l -13.1308,-38.89063 -15.6582,-38.890621 -19.6973,-37.375 -7.5762,-47.9824221 -6.0625,-41.4160159 -6.0605,-33.839843 3.5351,-17.173829 13.1328,-7.576169 19.1934,-3.0293 20.2031,3.0293 17.6778,-0.50391 8.5859,-6.0625 c 0,0 6.0605,-9.5957 6.0605,-12.12109 l 0,-16.16211 6.5665,-11.61719 9.0917,-6.56641 2.0196,-8.58593 -2.5254,-8.58594 -2.0195,-1.00977 5.5546,-2.52539 3.5352,-8.58593 -3.0293,-6.0625 1.5156,-6.06055 0.5039,-4.54492 8.0821,-1.00977 11.1113,-2.02148 6.0605,-5.05078 -1.0097,-10.60547 -4.041,-8.58789 -9.0918,-7.57618 -13.6368,-19.69726 -6.0605,-7.07031 0,-7.07227 6.5664,-8.58594 0,-7.57617 2.5254,-4.54492 3.0293,-7.57617 -3.0293,-7.57617 -5.0508,-9.59766 -1.5156,-6.06055 -7.5762,-21.71875 -11.1113,-23.73828 -12.1211,-15.65625 -10.6074,-7.07226 -7.0703,-5.55469 -6.0625,-4.54688 -20.7071,-8.58593 -19.1933,-5.05079 -21.7188,-5.05078 -16.16209,-2.01953 -18.6875,-0.50586 z m -11.64453,701.9668 21.42969,36.42773 22.85543,37.14258 26.4297,40 26.4278,37.85742 28.5722,29.28516 30.7149,34.28711 38.5703,32.85547 34.2851,25 c 0,0 26.4289,19.28739 27.8575,22.14453 1.4286,2.85714 24.2871,22.14258 24.2871,22.14258 l 10,14.28515 -2.1446,4.28516 -24.2851,14.28711 -22.1426,7.14258 -35.7148,0.71289 -28.5704,-37.14258 -30,-34.28516 -25,-25.71484 -20.7148,-34.28516 -22.1426,-45.71484 -25,-55 -24.28513,-47.85742 -10.71485,-26.42774 -8.57226,-14.28515 -8.57032,-6.42969 -3.57226,-30.71289 z M 830,311.64844 l 9.28516,31.42773 7.85742,26.42969 12.14258,33.57031 20,36.42969 35,47.14258 L 940,523.07617 958.57227,540.21875 915.71484,513.79102 860,480.93359 l -42.85742,-22.85742 -31.42774,-15 L 760,433.79102 l -17.85742,-5.71485 32.14258,-24.28515 25,-36.42969 16.42968,-28.57031 L 830,311.64844 Z m 282.1426,369.28515 5,3.57227 22.1426,13.57031 13.5722,7.85742 25,5 20,2.14258 35,108.57227 -2.1426,23.57031 7.1426,15.71484 -214.2851,-2.14257 19.2851,-27.85743 30.7149,-47.14257 20,-40.71485 16.4277,-39.28515 2.1426,-22.85743 z M 682.85742,701.64844 700,703.79102 l 31.42773,1.42773 25,2.14258 33.57227,8.57226 30,8.57227 27.14258,8.57031 20,2.14258 17.14258,-1.42773 -1.42774,10.71484 -15.71484,21.42773 -24.28516,31.42774 -20,30.71484 -13.57226,30 -95,0.71485 -31.42774,-157.14258 z m 110.61719,190.09961 -7.07031,21.71875 -12.12305,23.23242 -12.12109,20.70898 -9.0918,20.20313 -10.60547,-14.14258 -8.08203,-20.20313 -4.54492,-22.72851 -7.07227,-28.2832 70.71094,-0.50586 z M 1000,893.07617 l 247.8574,4.28516 19.2852,53.57226 5.7148,27.14258 -314.28513,353.57223 -20,-2.8574 -24.28711,-12.8574 -28.57032,-15.7148 -19.28711,-16.4278 -22.85546,-25 -17.14454,-20 -12.85546,-12.8574 5.71289,-18.5723 9.28711,-11.4277 0,-23.5723 20,-8.5703 23.57031,-27.1426 15.71484,-43.5722 25,-48.5703 26.42774,-45.71488 L 980,921.64844 l 20,-28.57227 z m -467.14258,40 3.5332,30.89844 0,22.22266 c 0,2.52538 1.00977,14.14253 1.00977,14.14253 l 5.05078,10.6055 0.50586,9.0918 10.10156,12.627 13.63672,10.6074 6.06055,8.5859 1.01172,15.6563 c 0,0 -4.04062,15.6574 -5.05078,17.6777 -1.01015,2.0203 -8.08203,18.1836 -8.08203,18.1836 l -9.59571,28.2852 -14.64844,35.3535 -4.04101,8.082 -8.58594,-8.5859 -13.13086,-16.1621 -16.16406,-15.1524 -18.18164,-16.1621 -13.63672,-12.123 -15.15234,-10.6055 L 435,1088.791 532.85742,933.07617 Z M 189.9082,1078.627 l 58.08399,7.5761 45.45703,10.1016 45.45703,19.1914 37.375,18.6894 -159.09766,248.4961 -22.22461,-6.0605 -30.80859,-3.5352 -33.83984,3.0293 -23.23438,8.5879 -35.355467,26.2637 -18.6875,23.2324 -14.142578,37.8809 -1.009766,44.9531 9.091797,35.3555 25.757813,31.3144 25.759765,18.6875 27.779296,11.1114 34.84961,3.5351 38.89063,-6.5664 22.72851,-12.6269 25.75977,-24.2422 16.16211,-19.6993 7.57617,-20.2031 176.00195,28.1856 -6.29687,21.3125 -1.00977,27.7793 -11.11133,26.7695 -6.06054,33.334 -3.53711,33.3359 c 0,0 -0.50508,28.2844 0,30.3047 0.50508,2.0204 5.55664,33.334 5.55664,33.334 l 3.53515,11.6172 7.07227,4.5449 0.61523,0.1406 -17.78906,17.5371 -42.93164,34.8516 -36.86914,24.2441 -53.0332,22.7266 -56.56836,17.1738 -66.16602,9.5957 -68.185546,-2.5254 -77.27539,-12.1211 -46.46875,-15.1523 -42.425782,-21.7187 -43.941402,-28.2833 -44.44727,-39.9023 -30.30469,-32.8301 -24.24218,-32.3242 -24.24414,-48.4883 -13.63672,-39.3945 -8.58789,-30.8106 -7.57422,-40.9101 -6.0625,-54.043 4.54687,-40.9121 2.52539,-25.7598 11.11133,-42.9296 16.66797,-46.9727 18.6875,-41.416 25.25391,-42.4277 25.2539,-34.8497 39.39453,-38.8906 28.28516,-23.2344 48.488281,-33.3339 39.90039,-21.7188 56.0625,-23.7383 43.941407,-10.6074 52.023432,-5.5547 51.51758,-1.0097 z m 1345.8066,10.164 71.4278,6.4278 57.8574,13.5722 53.5723,25 55,40.7149 52.1425,55.7129 31.4278,55.7148 27.1426,75 9.2871,81.4277 0,77.8575 -20.7149,79.2871 -25.7148,72.1425 -52.1426,72.1426 -63.5723,50.7149 -77.1425,42.8554 -70,15.7149 -60,1.4297 -67.8575,-7.1446 -70,-27.1425 -53.5703,-28.5704 -40,-37.8574 -42.8574,-47.1426 -32.1426,-54.2871 -30.7148,-64.2851 -12.8574,-66.4278 -2.8575,-70 7.8575,-75 17.8574,-56.4296 39.2851,-71.4278 40.7149,-54.2851 45.7148,-40 22.1426,56.4277 27.1426,62.1426 c 0,0 33.5708,52.1428 34.2851,55 0.7143,2.8571 27.8575,40.7148 27.8575,40.7148 l 34.2871,42.8574 27.1425,27.8575 25,18.5703 14.2852,5.7148 0.7148,6.4278 6.4278,12.1425 9.2851,7.1446 17.1446,5 11.4277,-8.5723 8.5723,-15 -4.2871,-10 -10,-7.1426 -16.4278,-4.2851 -28.5722,-29.2871 -41.4278,-52.8575 -41.4297,-70.7129 -35.7129,-83.5722 -32.8574,-89.2852 40,-16.4297 58.5703,-14.2851 59.2871,-4.2852 z m -1139.23042,57.5156 17.17382,11.1114 23.23242,16.6679 28.28516,24.7481 22.22266,28.2851 19.19336,31.3145 -10.60742,44.4473 -6.06055,52.0214 -9.59571,56.0645 -5.55664,10.1016 0.50586,21.7187 -6.06054,18.6875 -3.03125,22.7285 -4.04102,3.0293 -7.57617,46.9727 -173.24024,-21.7188 1.00977,-23.2324 -1.51562,-21.7187 -4.54493,-17.1739 -7.07226,-16.666 -8.08008,-14.1426 -13.63672,-15.1523 -10.60742,-10.1016 159.60352,-247.9922 z m 219.94335,203.1993 11.42969,3.5703 22.14258,3.5722 33.57227,6.4278 18.57031,4.2851 1.42969,-5.7129 17.14257,3.5704 25.71289,2.8574 24.28711,6.4297 22.14258,7.8554 21.42774,5.7149 17.14257,2.8574 -31.42773,70 -20.71484,-2.1426 -20,-2.1426 -25.71289,5 -25.71485,9.2852 -26.42969,14.2852 -20.71289,22.8574 -15,21.4297 -9.28711,16.4277 -11.42773,-2.8574 1.42773,-17.8574 4.28711,-23.5704 -0.71484,-38.5722 -0.71484,-37.8574 c 0,-9e-4 -2.14258,-33.5704 -2.14258,-38.5704 0,-5 -1.42774,-13.5722 -1.42774,-13.5722 l -4.28711,-15 -5,-8.5703 z m 146.42969,162.1425 16.42774,2.8575 -23.57032,59.2851 -10.71484,0.7149 -55,-3.5723 9.28516,-27.8574 16.42968,-17.1426 27.14258,-10.7148 20,-3.5704 z m 55,15 12.85742,10.7129 c 0,0 7.85743,8.5725 7.85743,11.4297 0,2.8571 2.85658,13.5703 4.28515,18.5703 1.42858,5 2.14258,20.7143 2.14258,25 0,4.2857 -2.14258,30.7149 -2.14258,30.7149 l -9.28515,30 -15.71485,20.7148 -24.28515,14.2852 -27.85743,0 -35,-8.5703 L 710,1666.6484 l -16.42773,-21.4296 -9.28711,-22.1426 1.42968,-16.4278 51.42774,6.4278 3.57226,16.4297 22.14258,8.5703 19.28516,0.7148 12.85742,-11.4297 5.71484,-20.7129 -0.71484,-15 -2.14258,-5 20,-60 z m -200.71484,60.7129 13.57226,0.7149 -1.42968,11.4297 -2.14258,17.8554 2.85742,10 -21.42773,-5.7129 8.57031,-30 0,-4.2871 z"
       id="path4224"
       inkscape:connector-curvature="0" />
  </g>
</svg>
