<?xml version="1.0" encoding="UTF-8" standalone="no"?>
<!-- Created with Inkscape (http://www.inkscape.org/) -->

<svg
   xmlns:dc="http://purl.org/dc/elements/1.1/"
   xmlns:cc="http://creativecommons.org/ns#"
   xmlns:rdf="http://www.w3.org/1999/02/22-rdf-syntax-ns#"
   xmlns:svg="http://www.w3.org/2000/svg"
   xmlns="http://www.w3.org/2000/svg"
   xmlns:xlink="http://www.w3.org/1999/xlink"
   xmlns:sodipodi="http://sodipodi.sourceforge.net/DTD/sodipodi-0.dtd"
   xmlns:inkscape="http://www.inkscape.org/namespaces/inkscape"
   width="533.6839mm"
   height="607.09912mm"
   viewBox="0 0 1891.0059 2151.1386"
   id="svg4215"
   version="1.1"
   inkscape:version="0.91 r13725"
   sodipodi:docname="mary.svg">
  <defs
     id="defs4217" />
  <sodipodi:namedview
     id="base"
     pagecolor="#ffffff"
     bordercolor="#666666"
     borderopacity="1.0"
     inkscape:pageopacity="0.0"
     inkscape:pageshadow="2"
     inkscape:zoom="0.35"
     inkscape:cx="1014.8937"
     inkscape:cy="1008.8713"
     inkscape:document-units="px"
     inkscape:current-layer="layer2"
     showgrid="false"
     inkscape:window-width="1920"
     inkscape:window-height="1021"
     inkscape:window-x="1366"
     inkscape:window-y="27"
     inkscape:window-maximized="1"
     fit-margin-top="0"
     fit-margin-left="0"
     fit-margin-right="0"
     fit-margin-bottom="0" />
  <metadata
     id="metadata4220">
    <rdf:RDF>
      <cc:Work
         rdf:about="">
        <dc:format>image/svg+xml</dc:format>
        <dc:type
           rdf:resource="http://purl.org/dc/dcmitype/StillImage" />
        <dc:title></dc:title>
      </cc:Work>
    </rdf:RDF>
  </metadata>
  <g
     inkscape:label="Layer 1"
     inkscape:groupmode="layer"
     id="layer1"
     sodipodi:insensitive="true"
     style="display:none"
     transform="translate(122.73438,125.49414)">
    <image
       sodipodi:absref="/home/chihiro/ownCloud/Images/oznamko_lobomir/assets/IMG_20170420_203135.jpg"
       xlink:href="assets/IMG_20170420_203135.jpg"
       width="3240"
       height="2430"
       preserveAspectRatio="none"
       id="image4988"
       x="-857.14288"
       y="-248.35208" />
  </g>
  <g
     inkscape:groupmode="layer"
     id="layer2"
     inkscape:label="outline"
     style="opacity:0.13200001"
     transform="translate(122.73438,125.49414)">
    <path
       style="fill:#ff0000;fill-rule:evenodd;stroke:none;stroke-width:1px;stroke-linecap:butt;stroke-linejoin:miter;stroke-opacity:1"
       d="m 987.85742,-125.49414 -19.28515,1.42773 -12.14454,2.14258 -7.85546,2.14258 -9.28711,2.14258 -19.28516,0.71484 -22.14258,4.28516 -20,6.42969 -21.42969,9.285152 -12.14257,12.857422 L 830,-66.923828 l -14.28516,17.857422 -9.28711,16.427734 -8.57031,13.572266 -10.71484,22.1425779 -8.57031,22.1425781 -5.71485,17.857422 -4.28515,29.285156 -7.14454,25.714844 -5.71289,16.429688 -7.14257,19.28516 -11.42969,22.85742 18.57226,3.57031 8.57032,-1.42773 9.28711,1.42773 -15,5 -20.71485,10 -22.14258,16.42969 -12.5,11.07031 -18.92968,19.64258 -18.21289,22.85742 L 640,278.79102 l -17.5,25.35742 -22.14258,37.14258 -16.42969,22.85742 -7.14257,16.78515 -3.92774,10.35743 -15.35742,21.07031 -10,25.35742 -10,20 -16.42773,19.64258 -3.92969,12.5 c 0,0 -9.6423,12.14397 -11.78516,13.92969 -2.14285,1.78571 -23.21484,19.64257 -23.21484,19.64257 l -9.64258,13.57227 -11.42773,23.57031 -21.78711,35.35742 -14.64258,22.14258 -14.28516,22.5 c 0,0 -12.14313,15.71541 -15.35742,18.92969 -3.21429,3.21429 -18.92773,16.78516 -18.92773,16.78516 0,0 -9.28656,9.99944 -11.07227,14.28515 -1.78571,4.28571 -5.71513,7.85686 -6.07227,9.64258 -0.35714,1.78571 -6.78515,18.21484 -6.78515,18.21484 L 345,743.07617 l -2.5,16.07227 -2.85742,7.14258 10,-1.78516 1.42969,2.14258 -4.64454,7.5 -0.71289,8.57031 -5,10 -7.14257,25 -2.5,25.35742 2.14257,21.07227 8.92774,21.07031 10,22.14258 14.64258,28.21484 13.21484,16.07227 17.5,10 18.21484,6.07031 20,9.28711 14.3086,11.21094 22.72851,14.1426 22.72852,13.1328 24.24219,14.6465 15.6582,10.6074 42.42578,119.1973 -25.25391,3.0312 -8.08007,3.5352 -8.08204,-1.0098 -13.63671,2.0195 -16.66797,9.0918 -29.79883,32.3242 -182.33203,3.5352 -301.0253925,25.2539 c 0,0 -5.5574145,8.5859 -3.5371095,8.5859 2.0203065,0 352.039062,-25.2519 352.039062,-25.2519 l 125.76367,-0.5059 10.60742,8.586 -481.8437456,30.8105 -5.5546875,-10.6074 -9.5976559,1.5156 -4.544922,18.6875 503.560551,-26.7695 67.67968,44.4473 -66.66992,11.1113 -28.78906,-11.6172 c 0,0 -24.74806,-7.575 -27.27344,-8.0801 -2.52539,-0.5051 -50.50781,-9.5976 -50.50781,-9.5976 l -49.49805,-5.0508 -48.48633,2.5254 -78.79296,9.5976 -54.54688,16.668 -60.105469,28.2832 -56.0625,36.3652 -53.033203,49.4981 -39.396484,53.5371 -33.333985,62.6309 -15.152339,54.5468 -8.5879,70.2071 2.5254,75.7617 22.224605,74.75 20.707031,42.9316 30.810547,41.416 42.9316408,47.4785 52.0234372,39.9004 77.275389,37.8809 66.16602,16.668 70.71093,1.0097 75.25586,-7.5761 51.51758,-11.1114 50.00196,-18.1836 59.5996,-37.375 46.97266,-34.8515 32.32422,-37.375 31.31445,-47.4766 29.29493,-54.043 16.1621,-43.9414 11.11133,-37.8808 -2.01953,26.2637 4.04102,26.7695 6.56445,16.1621 21.21289,27.7793 30.30469,21.2129 38.89258,5.0508 37.8789,-4.5469 11.11328,-6.0606 23.23243,3.5352 85.86328,-36.3652 32.32422,-4.0411 48.48828,-17.6757 37.375,-23.2344 21.2129,-19.6973 14.6484,27.7793 c 0,0 15.6571,30.3043 18.6875,33.8399 3.0305,3.5355 27.2735,35.8593 27.2735,35.8593 l 33.8398,32.3262 37.377,23.7383 36.3652,17.6777 39.9004,19.1914 42.9316,8.0821 61.1153,2.5254 45.457,-2.0196 62.6289,-7.5762 53.0332,-18.6894 48.4863,-26.7676 47.9824,-34.8515 45.4571,-42.9297 32.8301,-44.9532 27.7793,-50.5078 16.6679,-53.0332 13.1309,-66.164 -3.5352,-62.125 -10.6054,-55.5586 -21.2149,-52.5274 -30.8086,-45.457 -35.8613,-43.9414 -49.4961,-37.375 -50.5078,-25.7598 -35.3555,-12.1211 -33.3359,-7.5761 -47.4766,-9.0918 -43.9414,-1.5157 -53.0332,3.0313 -38.3867,5.5547 -31.3145,8.5879 -24.748,-41.418 -14.1426,-0.5039 -54.043,-134.3516 4.545,-15.6562 -8.586,-4.5449 -26.7695,-60.10551 18.6895,-20.20313 11.6152,6.06055 31.8203,0.50586 12.1211,1.00976 -7.0703,12.12305 0,14.64649 7.0703,8.08203 21.7187,1.51367 6.5664,-5.05078 4.545,-6.06055 9.5976,-1.00976 5.0508,-9.0918 9.5957,-12.1211 3.5352,-11.11132 1.0117,-18.1836 -5.5567,-3.53515 2.5254,-7.07227 -5.5566,-8.08008 -25.2539,-9.09179 -20.707,-5.55469 -19.6993,-5.55664 -14.6464,-22.72852 -25.254,-38.89062 -25.2539,-47.47657 -15.6562,-36.87109 -7.0723,-15.6582 -2.0195,-10.10156 -41.416,-86.36719 c 0,0 -23.2332,-35.35626 -26.2637,-38.38672 -3.0304,-3.03046 -33.3359,-36.86914 -33.3359,-36.86914 l -40.40628,-55.5586 -17.17188,-31.82031 -17.67773,-20.20312 -8.08203,-12.62696 -12.62696,-44.44726 -12.62695,-37.375 -12.12109,-34.3457 -12.62696,-28.78907 -14.14257,-22.22265 -8.08008,-9.59766 7.57617,-9.5957 16.66602,-16.16211 12.12304,-14.14258 11.11133,-13.13281 6.06055,-9.59571 5.55664,-7.07031 8.08008,-2.02148 10.60742,3.03125 14.14258,-1.00977 8.08008,-1.51562 7.57617,1.00976 6.5664,1.00977 3.03125,-1.51563 1.51368,-3.02929 5.05078,-7.07227 4.04104,-6.06055 1.0097,-5.05078 3.5371,-5.05078 5.5547,-4.03906 2.5254,-8.58789 0,-4.03906 4.5449,-3.53711 1.0118,-3.53516 2.0195,-1.00977 4.041,-5.05078 6.0606,-1.51562 2.5253,-6.56641 1.0098,-6.56445 2.5254,-3.03125 7.0723,1.00976 5.5547,1.51563 7.5761,-1.51563 4.041,-4.54492 1.5157,-6.06055 -2.5254,-10.101558 -4.041,-13.638671 -3.5352,-8.585938 3.5352,-9.595703 2.0195,-11.617188 0.5059,-10.101562 7.0703,-5.050781 11.1133,-9.595703 8.5859,-9.091797 7.5762,-13.636719 2.5253,-17.1738281 -3.0312,-17.1718749 -4.5449,-10.607422 -7.8125,-10.130859 -17.8574,-22.142578 L 1045,-87.638672 c 0,0 -8.5705,-17.141728 -11.4277,-18.570308 -2.8571,-1.42857 -16.4297,-8.57227 -16.4297,-8.57227 l -15,-9.28516 -14.28518,-1.42773 z M 870,535.21875 l 14.28516,13.57227 25,25 13.57226,17.14257 29.28516,39.28516 14.28515,37.85742 22.85743,42.14258 19.28714,23.57227 22.8554,29.28515 27.1446,19.28516 19.2851,17.14453 17.8574,21.42773 19.2852,19.28516 17.1426,20.71484 14.2851,17.85743 17.1446,23.57031 5,11.42969 -20,20.71484 -5,-15.71484 -25.7149,17.14257 40.7149,127.14261 -222.85746,186.4297 5,-59.2871 4.28516,-27.8575 -1.42773,-17.1425 -9.28711,-10 -55,-57.8575 -83.57032,-99.28513 -61.42968,-67.85742 -45.71289,-46.42773 -15,-10.71485 -2.85743,-15 0,-19.28515 L 647.14258,792.36133 645,775.21875 l 9.28516,-22.85742 31.42968,-55 40,-51.42774 37.85743,-32.14257 48.57031,-29.28516 27.14258,-10 21.42968,-12.14453 L 870,535.21875 Z m -291.6875,541.89255 17.17188,9.5957 19.69921,16.668 22.22266,17.6777 28.78906,18.1817 27.27344,17.6777 12.62695,7.0723 10.60742,5.0508 11.61719,9.0918 -3.03125,2.5253 -15.65625,8.586 -19.19336,13.6367 -17.67773,8.5859 -19.19336,15.1524 -23.73828,18.1836 -51.51758,-167.6856 z m 592.4023,19.5371 17.8575,52.1426 -281.42972,336.4278 8.57226,-45.7129 2.85743,-32.1446 5.71289,-49.2851 4.28711,-37.1426 2.85546,-22.8574 239.28707,-201.4278 z m 30.7129,93.5704 28.5723,71.4296 -35.7148,22.8575 -35.7129,30 -35.7149,37.1425 -34.2851,49.2852 -25.7149,55 -18.5722,57.1426 -6.4278,60.7148 -0.7148,40 2.8574,31.4278 -9.2852,3.5722 -16.4296,2.1426 -55.00004,2.8574 -40,0 -21.42774,-5 -2.85742,-5.7148 -5,-11.4278 -5,-9.2871 5.71484,-4.2851 2.85743,-12.1426 0.71289,-22.8574 -2.14258,-20.7149 123.57222,-152.1425 185.7129,-220 z m 221.877,72.7597 50.5078,4.041 57.0742,14.6465 61.6192,30.3047 34.8496,22.7285 25.7597,26.7696 21.2129,29.7988 29.2949,60.6094 14.1407,70.207 -5.0508,68.6894 -10.6055,46.9727 -23.7383,48.9922 -29.2949,46.4668 -32.8301,33.8398 -39.9003,35.8613 -58.084,29.7989 -77.7832,21.2129 -79.8008,0.5058 -88.8946,-18.1836 -72.2246,-27.7793 -51.0136,-46.9707 -42.4258,-65.6601 -10.1016,-21.7188 -0.5058,-5.0508 6.5664,-12.121 -7.0703,-10.6075 -11.1114,-4.041 -6.5664,-3.5351 2.0196,-70.2051 13.6367,-66.166 31.3144,-70.2051 36.8711,-54.043 32.8301,-35.8613 30.3047,-20.2031 17.6777,-4.0391 17.6778,40.4043 25.2539,49.498 28.789,50.5079 34.3457,50.0019 30.8086,39.9024 22.2246,23.2324 -9.0918,7.5761 -1.5156,8.0821 1.5156,10.1015 5.5567,8.586 12.6269,4.5449 14.6465,-1.0098 12.627,-7.0703 4.5449,-8.5859 -0.5039,-15.1524 -6.5664,-13.1328 -13.1328,-5.5547 -9.0899,0.504 -27.2754,-36.3653 -28.2832,-40.9121 -34.3457,-71.2148 -25.2539,-79.2969 -8.082,-35.3555 36.3672,-18.6875 41.9199,-11.1113 55.5586,-4.5469 z m -636.9004,30.8106 -9.0918,34.3457 -5.55664,40.9101 -3.0293,21.7188 -65.15625,56.5683 -23.73828,-78.7929 31.31445,-18.6875 29.80079,-23.2325 27.77929,-20.7089 17.67774,-12.1211 z m -470.73242,22.2226 74.75195,12.627 58.58984,29.7988 43.94141,24.75 -169.70703,231.8301 -19.19141,-11.6172 -28.28516,-2.5254 -19.69726,5.5566 -22.22461,15.1524 -12.12109,27.7793 6.06054,36.3652 16.16211,26.2637 26.26367,14.1426 28.79102,-5.5567 22.72852,-16.1621 11.11132,-12.123 287.89258,11.6172 -27.27344,57.0742 -32.83007,59.0937 -42.93165,53.0332 -82.32812,52.0235 -74.75,33.334 -72.73242,15.6582 -74.2461,-2.5254 -65.15429,-12.1231 -55.052737,-25.7578 -27.779297,-15.1523 -42.425781,-35.3555 -33.841797,-41.416 -22.728516,-32.8301 -15.65625,-36.3652 -10.101562,-30.8106 -7.576172,-40.4062 -3.535156,-61.1133 8.585937,-54.5488 15.152344,-45.4571 28.283203,-57.0742 42.931641,-54.043 44.447265,-39.9004 53.539068,-31.3144 64.14453,-26.7695 71.21484,-13.1309 57.57813,-2.0215 z m 334.36132,76.7715 20.70899,58.084 54.04297,164.6543 -19.19336,13.6387 -16.16211,15.1523 -11.11133,14.6465 -9.0918,19.1933 8.08008,-38.3867 6.56641,-37.375 1.00976,-24.75 -6.06054,-35.8594 -14.14258,-45.457 -19.19141,-39.3965 -13.13281,-26.2636 -7.57617,-14.1426 25.2539,-23.7383 z m -134.85547,10.6074 26.26368,13.6367 21.21289,28.2832 26.76953,39.9024 28.78906,54.043 13.63672,60.6093 2.52539,45.4571 -4.03906,24.2422 -291.42969,2.5253 1.51563,-3.5351 2.01953,-16.1621 -1.51563,-12.1211 -6.56445,-12.1231 180.8164,-224.7578 z m 255.06446,30.8086 2.52539,21.7188 6.06054,25.2539 5.55469,29.7988 3.53711,38.8906 1.51367,27.7793 -3.02929,24.75 -7.07227,-2.0215 -13.13086,-0.5039 -11.11133,2.0196 -3.53711,1.0097 -37.375,-121.2168 56.06446,-47.4785 z m 11.11133,186.3731 1.00976,20.7089 4.04102,19.1934 1.51562,25.2539 -35.24609,16.4942 -3.10156,27.6406 49.96289,9.4023 0,18.1836 -1.00977,16.1621 1.00977,12.627 1.51562,11.6172 -20.70703,4.5449 -25.25391,-0.5059 -24.24414,-4.5449 -19.19336,-9.5957 -16.16211,-18.1836 -11.61718,-20.2031 -2.52539,-26.7695 4.54687,-30.8086 12.625,-26.2637 17.67774,-21.2129 14.14257,-11.1133 30.81055,-10.6054 20.20313,-2.0215 z"
       id="path4992"
       inkscape:connector-curvature="0" />
  </g>
</svg>
