<?xml version="1.0" encoding="UTF-8" standalone="no"?>
<!-- Created with Inkscape (http://www.inkscape.org/) -->

<svg
   xmlns:dc="http://purl.org/dc/elements/1.1/"
   xmlns:cc="http://creativecommons.org/ns#"
   xmlns:rdf="http://www.w3.org/1999/02/22-rdf-syntax-ns#"
   xmlns:svg="http://www.w3.org/2000/svg"
   xmlns="http://www.w3.org/2000/svg"
   xmlns:xlink="http://www.w3.org/1999/xlink"
   xmlns:sodipodi="http://sodipodi.sourceforge.net/DTD/sodipodi-0.dtd"
   xmlns:inkscape="http://www.inkscape.org/namespaces/inkscape"
   width="533.6839mm"
   height="607.09912mm"
   viewBox="0 0 1891.0059 2151.1386"
   id="svg4215"
   version="1.1"
   inkscape:version="0.91 r13725"
   sodipodi:docname="mary.svg">
  <defs
     id="defs4217" />
  <sodipodi:namedview
     id="base"
     pagecolor="#ffffff"
     bordercolor="#666666"
     borderopacity="1.0"
     inkscape:pageopacity="0.0"
     inkscape:pageshadow="2"
     inkscape:zoom="0.175"
     inkscape:cx="665.11075"
     inkscape:cy="1254.2035"
     inkscape:document-units="px"
     inkscape:current-layer="layer2"
     showgrid="false"
     inkscape:window-width="1920"
     inkscape:window-height="1021"
     inkscape:window-x="1366"
     inkscape:window-y="27"
     inkscape:window-maximized="1"
     fit-margin-top="0"
     fit-margin-left="0"
     fit-margin-right="0"
     fit-margin-bottom="0" />
  <metadata
     id="metadata4220">
    <rdf:RDF>
      <cc:Work
         rdf:about="">
        <dc:format>image/svg+xml</dc:format>
        <dc:type
           rdf:resource="http://purl.org/dc/dcmitype/StillImage" />
        <dc:title />
      </cc:Work>
    </rdf:RDF>
  </metadata>
  <g
     inkscape:label="Layer 1"
     inkscape:groupmode="layer"
     id="layer1"
     sodipodi:insensitive="true"
     style="display:none"
     transform="translate(122.73438,125.49414)">
    <image
       sodipodi:absref="/home/chihiro/ownCloud/Images/oznamko_lobomir/assets/IMG_20170420_203135.jpg"
       xlink:href="assets/IMG_20170420_203135.jpg"
       y="-248.35208"
       x="-857.14288"
       id="image4988"
       preserveAspectRatio="none"
       height="2430"
       width="3240" />
  </g>
  <g
     inkscape:groupmode="layer"
     id="layer2"
     inkscape:label="outline"
     style="opacity:0.13200001"
     transform="translate(122.73438,125.49414)">
    <path
       style="fill:none;fill-rule:evenodd;stroke:#000000;stroke-width:10;stroke-linecap:butt;stroke-linejoin:round;stroke-opacity:1"
       d="M 1110.5918 0 L 1091.3066 1.4277344 L 1079.1621 3.5703125 L 1071.3066 5.7128906 L 1062.0195 7.8554688 L 1042.7344 8.5703125 L 1020.5918 12.855469 L 1000.5918 19.285156 L 979.16211 28.570312 L 967.01953 41.427734 L 952.73438 58.570312 L 938.44922 76.427734 L 929.16211 92.855469 L 920.5918 106.42773 L 909.87695 128.57031 L 901.30664 150.71289 L 895.5918 168.57031 L 891.30664 197.85547 L 884.16211 223.57031 L 878.44922 240 L 871.30664 259.28516 L 859.87695 282.14258 L 878.44922 285.71289 L 887.01953 284.28516 L 896.30664 285.71289 L 881.30664 290.71289 L 860.5918 300.71289 L 838.44922 317.14258 L 825.94922 328.21289 L 807.01953 347.85547 L 788.80664 370.71289 L 762.73438 404.28516 L 745.23438 429.64258 L 723.0918 466.78516 L 706.66211 489.64258 L 699.51953 506.42773 L 695.5918 516.78516 L 680.23438 537.85547 L 670.23438 563.21289 L 660.23438 583.21289 L 643.80664 602.85547 L 639.87695 615.35547 C 639.87695 615.35547 630.23466 627.49944 628.0918 629.28516 C 625.94895 631.07087 604.87695 648.92773 604.87695 648.92773 L 595.23438 662.5 L 583.80664 686.07031 L 562.01953 721.42773 L 547.37695 743.57031 L 533.0918 766.07031 C 533.0918 766.07031 520.94866 781.78572 517.73438 785 C 514.52008 788.21429 498.80664 801.78516 498.80664 801.78516 C 498.80664 801.78516 489.52008 811.7846 487.73438 816.07031 C 485.94867 820.35602 482.01925 823.92717 481.66211 825.71289 C 481.30497 827.4986 474.87695 843.92773 474.87695 843.92773 L 467.73438 868.57031 L 465.23438 884.64258 L 462.37695 891.78516 L 472.37695 890 L 473.80664 892.14258 L 469.16211 899.64258 L 468.44922 908.21289 L 463.44922 918.21289 L 456.30664 943.21289 L 453.80664 968.57031 L 455.94922 989.64258 L 464.87695 1010.7129 L 474.87695 1032.8555 L 489.51953 1061.0703 L 502.73438 1077.1426 L 520.23438 1087.1426 L 538.44922 1093.2129 L 558.44922 1102.5 L 572.75781 1113.7109 L 595.48633 1127.8535 L 618.21484 1140.9863 L 642.45703 1155.6328 L 658.11523 1166.2402 L 700.54102 1285.4375 L 675.28711 1288.4688 L 667.20703 1292.0039 L 659.125 1290.9941 L 645.48828 1293.0137 L 628.82031 1302.1055 L 599.02148 1334.4297 L 416.68945 1337.9648 L 115.66406 1363.2188 C 115.66406 1363.2188 110.10665 1371.8047 112.12695 1371.8047 C 114.14726 1371.8047 464.16602 1346.5527 464.16602 1346.5527 L 589.92969 1346.0469 L 600.53711 1354.6328 L 118.69336 1385.4434 L 113.13867 1374.8359 L 103.54102 1376.3516 L 98.996094 1395.0391 L 602.55664 1368.2695 L 670.23633 1412.7168 L 603.56641 1423.8281 L 574.77734 1412.2109 C 574.77734 1412.2109 550.02929 1404.636 547.50391 1404.1309 C 544.97852 1403.6258 496.99609 1394.5332 496.99609 1394.5332 L 447.49805 1389.4824 L 399.01172 1392.0078 L 320.21875 1401.6055 L 265.67188 1418.2734 L 205.56641 1446.5566 L 149.50391 1482.9219 L 96.470703 1532.4199 L 57.074219 1585.957 L 23.740234 1648.5879 L 8.5878906 1703.1348 L 0 1773.3418 L 2.5253906 1849.1035 L 24.75 1923.8535 L 45.457031 1966.7852 L 76.267578 2008.2012 L 119.19922 2055.6797 L 171.22266 2095.5801 L 248.49805 2133.4609 L 314.66406 2150.1289 L 385.375 2151.1387 L 460.63086 2143.5625 L 512.14844 2132.4512 L 562.15039 2114.2676 L 621.75 2076.8926 L 668.72266 2042.041 L 701.04688 2004.666 L 732.36133 1957.1895 L 761.65625 1903.1465 L 777.81836 1859.2051 L 788.92969 1821.3242 L 786.91016 1847.5879 L 790.95117 1874.3574 L 797.51562 1890.5195 L 818.72852 1918.2988 L 849.0332 1939.5117 L 887.92578 1944.5625 L 925.80469 1940.0156 L 936.91797 1933.9551 L 960.15039 1937.4902 L 1046.0137 1901.125 L 1078.3379 1897.084 L 1126.8262 1879.4082 L 1164.2012 1856.1738 L 1185.4141 1836.4766 L 1200.0625 1864.2559 C 1200.0625 1864.2559 1215.7196 1894.5601 1218.75 1898.0957 C 1221.7805 1901.6312 1246.0234 1933.9551 1246.0234 1933.9551 L 1279.8633 1966.2812 L 1317.2402 1990.0195 L 1353.6055 2007.6973 L 1393.5059 2026.8887 L 1436.4375 2034.9707 L 1497.5527 2037.4961 L 1543.0098 2035.4766 L 1605.6387 2027.9004 L 1658.6719 2009.2109 L 1707.1582 1982.4434 L 1755.1406 1947.5918 L 1800.5977 1904.6621 L 1833.4277 1859.709 L 1861.207 1809.2012 L 1877.875 1756.168 L 1891.0059 1690.0039 L 1887.4707 1627.8789 L 1876.8652 1572.3203 L 1855.6504 1519.793 L 1824.8418 1474.3359 L 1788.9805 1430.3945 L 1739.4844 1393.0195 L 1688.9766 1367.2598 L 1653.6211 1355.1387 L 1620.2852 1347.5625 L 1572.8086 1338.4707 L 1528.8672 1336.9551 L 1475.834 1339.9863 L 1437.4473 1345.541 L 1406.1328 1354.1289 L 1381.3848 1312.7109 L 1367.2422 1312.207 L 1313.1992 1177.8555 L 1317.7441 1162.1992 L 1309.1582 1157.6543 L 1282.3887 1097.5488 L 1301.0781 1077.3457 L 1312.6934 1083.4062 L 1344.5137 1083.9121 L 1356.6348 1084.9219 L 1349.5645 1097.0449 L 1349.5645 1111.6914 L 1356.6348 1119.7734 L 1378.3535 1121.2871 L 1384.9199 1116.2363 L 1389.4648 1110.1758 L 1399.0625 1109.166 L 1404.1133 1100.0742 L 1413.709 1087.9531 L 1417.2441 1076.8418 L 1418.2559 1058.6582 L 1412.6992 1055.123 L 1415.2246 1048.0508 L 1409.668 1039.9707 L 1384.4141 1030.8789 L 1363.707 1025.3242 L 1344.0078 1019.7676 L 1329.3613 997.03906 L 1304.1074 958.14844 L 1278.8535 910.67188 L 1263.1973 873.80078 L 1256.125 858.14258 L 1254.1055 848.04102 L 1212.6895 761.67383 C 1212.6895 761.67383 1189.4563 726.31757 1186.4258 723.28711 C 1183.3954 720.25665 1153.0898 686.41797 1153.0898 686.41797 L 1112.6836 630.85938 L 1095.5117 599.03906 L 1077.834 578.83594 L 1069.752 566.20898 L 1057.125 521.76172 L 1044.498 484.38672 L 1032.377 450.04102 L 1019.75 421.25195 L 1005.6074 399.0293 L 997.52734 389.43164 L 1005.1035 379.83594 L 1021.7695 363.67383 L 1033.8926 349.53125 L 1045.0039 336.39844 L 1051.0645 326.80273 L 1056.6211 319.73242 L 1064.7012 317.71094 L 1075.3086 320.74219 L 1089.4512 319.73242 L 1097.5312 318.2168 L 1105.1074 319.22656 L 1111.6738 320.23633 L 1114.7051 318.7207 L 1116.2188 315.69141 L 1121.2695 308.61914 L 1125.3105 302.55859 L 1126.3203 297.50781 L 1129.8574 292.45703 L 1135.4121 288.41797 L 1137.9375 279.83008 L 1137.9375 275.79102 L 1142.4824 272.25391 L 1143.4941 268.71875 L 1145.5137 267.70898 L 1149.5547 262.6582 L 1155.6152 261.14258 L 1158.1406 254.57617 L 1159.1504 248.01172 L 1161.6758 244.98047 L 1168.748 245.99023 L 1174.3027 247.50586 L 1181.8789 245.99023 L 1185.9199 241.44531 L 1187.4355 235.38477 L 1184.9102 225.2832 L 1180.8691 211.64453 L 1177.334 203.05859 L 1180.8691 193.46289 L 1182.8887 181.8457 L 1183.3945 171.74414 L 1190.4648 166.69336 L 1201.5781 157.09766 L 1210.1641 148.00586 L 1217.7402 134.36914 L 1220.2656 117.19531 L 1217.2344 100.02344 L 1212.6895 89.416016 L 1204.877 79.285156 L 1187.0195 57.142578 L 1167.7344 37.855469 C 1167.7344 37.855469 1159.1638 20.713736 1156.3066 19.285156 C 1153.4495 17.856586 1139.877 10.712891 1139.877 10.712891 L 1124.877 1.4277344 L 1110.5918 0 z M 992.73438 660.71289 L 1007.0195 674.28516 L 1032.0195 699.28516 L 1045.5918 716.42773 L 1074.877 755.71289 L 1089.1621 793.57031 L 1112.0195 835.71289 L 1131.3066 859.28516 L 1154.1621 888.57031 L 1181.3066 907.85547 L 1200.5918 925 L 1218.4492 946.42773 L 1237.7344 965.71289 L 1254.877 986.42773 L 1269.1621 1004.2852 L 1286.3066 1027.8555 L 1291.3066 1039.2852 L 1271.3066 1060 L 1266.3066 1044.2852 L 1240.5918 1061.4277 L 1281.3066 1188.5703 L 1058.4492 1375 L 1063.4492 1315.7129 L 1067.7344 1287.8555 L 1066.3066 1270.7129 L 1057.0195 1260.7129 L 1002.0195 1202.8555 L 918.44922 1103.5703 L 857.01953 1035.7129 L 811.30664 989.28516 L 796.30664 978.57031 L 793.44922 963.57031 L 793.44922 944.28516 L 769.87695 917.85547 L 767.73438 900.71289 L 777.01953 877.85547 L 808.44922 822.85547 L 848.44922 771.42773 L 886.30664 739.28516 L 934.87695 710 L 962.01953 700 L 983.44922 687.85547 L 992.73438 660.71289 z M 701.04688 1202.6055 L 718.21875 1212.2012 L 737.91797 1228.8691 L 760.14062 1246.5469 L 788.92969 1264.7285 L 816.20312 1282.4062 L 828.83008 1289.4785 L 839.4375 1294.5293 L 851.05469 1303.6211 L 848.02344 1306.1465 L 832.36719 1314.7324 L 813.17383 1328.3691 L 795.49609 1336.9551 L 776.30273 1352.1074 L 752.56445 1370.291 L 701.04688 1202.6055 z M 1293.4492 1222.1426 L 1311.3066 1274.2852 L 1029.877 1610.7129 L 1038.4492 1565 L 1041.3066 1532.8555 L 1047.0195 1483.5703 L 1051.3066 1446.4277 L 1054.1621 1423.5703 L 1293.4492 1222.1426 z M 1324.1621 1315.7129 L 1352.7344 1387.1426 L 1317.0195 1410 L 1281.3066 1440 L 1245.5918 1477.1426 L 1211.3066 1526.4277 L 1185.5918 1581.4277 L 1167.0195 1638.5703 L 1160.5918 1699.2852 L 1159.877 1739.2852 L 1162.7344 1770.7129 L 1153.4492 1774.2852 L 1137.0195 1776.4277 L 1082.0195 1779.2852 L 1042.0195 1779.2852 L 1020.5918 1774.2852 L 1017.7344 1768.5703 L 1012.7344 1757.1426 L 1007.7344 1747.8555 L 1013.4492 1743.5703 L 1016.3066 1731.4277 L 1017.0195 1708.5703 L 1014.877 1687.8555 L 1138.4492 1535.7129 L 1324.1621 1315.7129 z M 1546.0391 1388.4727 L 1596.5469 1392.5137 L 1653.6211 1407.1602 L 1715.2402 1437.4648 L 1750.0898 1460.1934 L 1775.8496 1486.9629 L 1797.0625 1516.7617 L 1826.3574 1577.3711 L 1840.498 1647.5781 L 1835.4473 1716.2676 L 1824.8418 1763.2402 L 1801.1035 1812.2324 L 1771.8086 1858.6992 L 1738.9785 1892.5391 L 1699.0781 1928.4004 L 1640.9941 1958.1992 L 1563.2109 1979.4121 L 1483.4102 1979.918 L 1394.5156 1961.7344 L 1322.291 1933.9551 L 1271.2773 1886.9844 L 1228.8516 1821.3242 L 1218.75 1799.6055 L 1218.2441 1794.5547 L 1224.8105 1782.4336 L 1217.7402 1771.8262 L 1206.6289 1767.7852 L 1200.0625 1764.25 L 1202.082 1694.0449 L 1215.7188 1627.8789 L 1247.0332 1557.6738 L 1283.9043 1503.6309 L 1316.7344 1467.7695 L 1347.0391 1447.5664 L 1364.7168 1443.5273 L 1382.3945 1483.9316 L 1407.6484 1533.4297 L 1436.4375 1583.9375 L 1470.7832 1633.9395 L 1501.5918 1673.8418 L 1523.8164 1697.0742 L 1514.7246 1704.6504 L 1513.209 1712.7324 L 1514.7246 1722.834 L 1520.2812 1731.4199 L 1532.9082 1735.9648 L 1547.5547 1734.9551 L 1560.1816 1727.8848 L 1564.7266 1719.2988 L 1564.2227 1704.1465 L 1557.6562 1691.0137 L 1544.5234 1685.459 L 1535.4336 1685.9629 L 1508.1582 1649.5977 L 1479.875 1608.6855 L 1445.5293 1537.4707 L 1420.2754 1458.1738 L 1412.1934 1422.8184 L 1448.5605 1404.1309 L 1490.4805 1393.0195 L 1546.0391 1388.4727 z M 909.13867 1419.2832 L 900.04688 1453.6289 L 894.49023 1494.5391 L 891.46094 1516.2578 L 826.30469 1572.8262 L 802.56641 1494.0332 L 833.88086 1475.3457 L 863.68164 1452.1133 L 891.46094 1431.4043 L 909.13867 1419.2832 z M 438.40625 1441.5059 L 513.1582 1454.1328 L 571.74805 1483.9316 L 615.68945 1508.6816 L 561.47656 1582.7402 L 552.85742 1587.5664 L 543.57227 1598.9961 L 532.14258 1613.9961 L 527.28711 1629.4453 L 445.98242 1740.5117 L 426.79102 1728.8945 L 398.50586 1726.3691 L 378.80859 1731.9258 L 356.58398 1747.0781 L 344.46289 1774.8574 L 350.52344 1811.2227 L 366.68555 1837.4863 L 392.94922 1851.6289 L 421.74023 1846.0723 L 444.46875 1829.9102 L 455.58008 1817.7871 L 743.47266 1829.4043 L 716.19922 1886.4785 L 683.36914 1945.5723 L 640.4375 1998.6055 L 558.10938 2050.6289 L 483.35938 2083.9629 L 410.62695 2099.6211 L 336.38086 2097.0957 L 271.22656 2084.9727 L 216.17383 2059.2148 L 188.39453 2044.0625 L 145.96875 2008.707 L 112.12695 1967.291 L 89.398438 1934.4609 L 73.742188 1898.0957 L 63.640625 1867.2852 L 56.064453 1826.8789 L 52.529297 1765.7656 L 61.115234 1711.2168 L 76.267578 1665.7598 L 104.55078 1608.6855 L 147.48242 1554.6426 L 191.92969 1514.7422 L 245.46875 1483.4277 L 309.61328 1456.6582 L 380.82812 1443.5273 L 438.40625 1441.5059 z M 772.76758 1518.2773 L 793.47656 1576.3613 L 847.51953 1741.0156 L 828.32617 1754.6543 L 812.16406 1769.8066 L 801.05273 1784.4531 L 791.96094 1803.6465 L 800.04102 1765.2598 L 806.60742 1727.8848 L 807.61719 1703.1348 L 801.55664 1667.2754 L 787.41406 1621.8184 L 768.22266 1582.4219 L 755.08984 1556.1582 L 747.51367 1542.0156 L 772.76758 1518.2773 z M 892.97656 1559.6934 L 895.50195 1581.4121 L 901.5625 1606.666 L 907.11719 1636.4648 L 910.6543 1675.3555 L 912.16797 1703.1348 L 909.13867 1727.8848 L 902.06641 1725.8633 L 888.93555 1725.3594 L 877.82422 1727.3789 L 874.28711 1728.3887 L 836.91211 1607.1719 L 892.97656 1559.6934 z M 694.01172 1583.6582 L 712.1582 1610.707 L 740.94727 1664.75 L 754.58398 1725.3594 L 757.10938 1770.8164 L 753.07031 1795.0586 L 461.64062 1797.584 L 463.15625 1794.0488 L 465.17578 1777.8867 L 463.66016 1765.7656 L 457.0957 1753.6426 L 510.54883 1687.1992 L 510 1688.9961 L 517.14258 1700.4238 L 535 1709.7109 L 566.42773 1715.4238 L 602.14258 1717.5664 L 609.28516 1690.4238 L 634.28516 1704.7109 L 661.42773 1709.7109 L 702.85742 1718.2812 L 730 1721.8535 L 740.71484 1714.7109 L 738.57227 1701.1387 L 737.14258 1681.1387 L 725.71484 1666.1387 L 720.71484 1661.1387 L 702.85742 1648.9961 L 690 1636.8535 L 670.71484 1623.2812 L 655 1613.9961 L 670.71484 1602.5664 L 683.57227 1594.7109 L 694.01172 1583.6582 z M 904.08789 1746.0664 L 905.09766 1766.7754 L 909.13867 1785.9688 L 910.6543 1811.2227 L 875.4082 1827.7168 L 872.30664 1855.3574 L 922.26953 1864.7598 L 922.26953 1882.9434 L 921.25977 1899.1055 L 922.26953 1911.7324 L 923.78516 1923.3496 L 903.07812 1927.8945 L 877.82422 1927.3887 L 853.58008 1922.8438 L 834.38672 1913.248 L 818.22461 1895.0645 L 806.60742 1874.8613 L 804.08203 1848.0918 L 808.62891 1817.2832 L 821.25391 1791.0195 L 838.93164 1769.8066 L 853.07422 1758.6934 L 883.88477 1748.0879 L 904.08789 1746.0664 z "
       transform="translate(-122.73444,-125.49414)"
       id="path4992" />
  </g>
</svg>
