<?xml version="1.0" encoding="UTF-8" standalone="no"?>
<!-- Created with Inkscape (http://www.inkscape.org/) -->

<svg
   xmlns:dc="http://purl.org/dc/elements/1.1/"
   xmlns:cc="http://creativecommons.org/ns#"
   xmlns:rdf="http://www.w3.org/1999/02/22-rdf-syntax-ns#"
   xmlns:svg="http://www.w3.org/2000/svg"
   xmlns="http://www.w3.org/2000/svg"
   xmlns:xlink="http://www.w3.org/1999/xlink"
   xmlns:sodipodi="http://sodipodi.sourceforge.net/DTD/sodipodi-0.dtd"
   xmlns:inkscape="http://www.inkscape.org/namespaces/inkscape"
   width="210mm"
   height="297mm"
   viewBox="0 0 744.09448 1052.3622"
   id="svg4516"
   version="1.1"
   inkscape:version="0.91 r13725"
   sodipodi:docname="pozvanka_a4_multi.svg">
  <sodipodi:namedview
     id="base"
     pagecolor="#ffffff"
     bordercolor="#666666"
     borderopacity="1.0"
     inkscape:pageopacity="0.0"
     inkscape:pageshadow="2"
     inkscape:zoom="0.70000001"
     inkscape:cx="150.52174"
     inkscape:cy="485.665"
     inkscape:document-units="px"
     inkscape:current-layer="layer1"
     showgrid="false"
     borderlayer="true"
     inkscape:window-width="1920"
     inkscape:window-height="1021"
     inkscape:window-x="1366"
     inkscape:window-y="27"
     inkscape:window-maximized="1"
     inkscape:snap-bbox="true"
     inkscape:snap-page="true" />
  <defs
     id="defs4518">
    <color-profile
       name="Compatible-with-Adobe-RGB--1998-"
       xlink:href="/usr/share/color/icc/colord/AdobeRGB1998.icc"
       id="color-profile5064" />
  </defs>
  <metadata
     id="metadata4521">
    <rdf:RDF>
      <cc:Work
         rdf:about="">
        <dc:format>image/svg+xml</dc:format>
        <dc:type
           rdf:resource="http://purl.org/dc/dcmitype/StillImage" />
        <dc:title></dc:title>
      </cc:Work>
    </rdf:RDF>
  </metadata>
  <g
     inkscape:label="Layer 1"
     inkscape:groupmode="layer"
     id="layer1"
     transform="translate(0,6.5354329e-6)">
    <g
       inkscape:tile-y0="2.1799642e-06"
       inkscape:tile-x0="0"
       inkscape:tile-h="194.8819"
       inkscape:tile-w="301.18109"
       inkscape:tile-cy="97.440951"
       inkscape:tile-cx="150.59055"
       transform="translate(0,-857.48029)"
       id="g4175">
      <g
         id="g6316"
         transform="matrix(3.4653282,-0.54876232,0.64212188,2.9614962,-2393.7899,936.86924)">
        <path
           inkscape:connector-curvature="0"
           style="fill:#56992a;fill-opacity:1"
           sodipodi:nodetypes="csssssszzcssccsssssssssssssssssssssssssscccsssssscccsssssscccssssssssssssscccsssccsscccsssssccssssssssccsssssssssccssssssssccssssssssccsscccssssccsssssssscssssssssccssssssccccccsssscc"
           d="m 692.32986,153.48271 c -0.17158,-0.0895 -0.59874,-0.9053 -0.70406,-1.34469 -0.10802,-0.45057 -0.0942,-1.24854 0.0257,-1.47847 0.10851,-0.20822 0.0998,-0.22649 -0.53028,-1.11732 -0.60222,-0.85136 -1.02653,-1.25574 -1.83104,-1.74494 -0.31189,-0.18966 -0.55465,-0.36867 -0.53946,-0.3978 0.0626,-0.1201 1.61006,0.82912 2.37193,1.45498 0.23631,0.19413 0.80559,0.79192 1.35456,1.55268 0.54897,0.76076 2.11913,4.41083 -0.14732,3.07551 -2.26644,-1.33532 0,5e-5 0,5e-5 z m -0.41451,0.85475 c -0.0293,0.0283 -0.10799,0.11687 -0.17479,0.19675 -0.16775,0.20058 -0.94262,0.4774 -1.52644,0.54532 -1.02957,0.11976 -2.58637,0.0197 -3.61213,-0.23214 -1.05795,-0.41994 -2.11398,-0.80314 -3.14805,-1.32296 -0.25746,-0.17698 -0.59245,-0.34518 -0.90504,-0.45444 -0.36505,-0.12759 -0.68136,-0.29506 -1.19608,-0.63327 -0.54638,-0.35901 -0.82566,-0.50429 -1.27405,-0.66278 -0.45343,-0.16026 -0.71704,-0.29817 -1.25281,-0.65537 -0.53794,-0.35868 -0.80296,-0.49712 -1.27899,-0.66817 -0.47515,-0.17072 -0.74546,-0.31179 -1.29546,-0.67611 -0.54697,-0.36226 -0.81367,-0.50171 -1.25192,-0.65447 -0.43552,-0.15189 -0.71486,-0.29745 -1.28208,-0.66805 -0.56581,-0.36971 -0.84683,-0.51627 -1.27845,-0.6668 -0.43165,-0.15054 -0.71267,-0.29711 -1.27846,-0.66681 -0.55817,-0.36471 -0.84904,-0.51704 -1.26287,-0.66136 -0.57294,-0.19983 -1.95781,-0.98347 -1.90771,-1.07951 0.0153,-0.0293 0.30148,0.0893 0.63607,0.26342 1.13922,0.59289 2.22824,0.94341 2.9497,0.94921 0.65713,0.005 1.32478,-0.13318 1.40762,-0.29199 0.26875,-0.51528 1.64095,-1.06699 2.55573,-1.02756 0.62222,0.0268 1.21639,0.2877 1.32528,0.58193 0.16066,0.4341 -0.40054,0.94239 -1.29675,1.17454 -1.11549,0.28894 -2.41182,0.26509 -3.82246,-0.0704 -0.47387,-0.11269 -0.88404,-0.1965 -0.91153,-0.18627 -0.0275,0.0102 0.34139,0.2004 0.8197,0.4226 1.43084,0.66468 2.14921,0.80887 3.25765,0.65378 0.40384,-0.0565 0.57807,-0.11685 0.63111,-0.21855 0.26623,-0.51044 1.64225,-1.06334 2.54908,-1.02425 0.55238,0.0238 1.09581,0.23755 1.27303,0.50071 0.25044,0.37188 -0.15717,0.85471 -0.95056,1.12603 -1.23742,0.42317 -2.47827,0.42487 -4.37886,0.006 l -0.7471,-0.16463 0.92047,0.44058 c 0.93993,0.44991 1.82357,0.72782 2.33671,0.73494 0.61697,0.009 1.39962,-0.13046 1.51355,-0.26884 0.5517,-0.67009 1.5298,-1.08926 2.52079,-1.08033 0.41915,0.004 0.98442,0.19769 1.22217,0.41923 0.18863,0.17579 0.18873,0.18025 0.0116,0.51987 -0.22909,0.43922 -0.5157,0.64267 -1.16539,0.82723 -1.14723,0.32588 -2.28094,0.29972 -4.05629,-0.0936 l -0.74668,-0.16543 0.87381,0.41705 c 0.88636,0.42304 1.66864,0.68663 2.18895,0.73757 0.15775,0.0154 0.57646,-0.005 0.93045,-0.0455 0.60531,-0.0693 0.65759,-0.0899 0.87773,-0.3473 0.70191,-0.82058 2.35718,-1.18283 3.30233,-0.72272 0.49399,0.24047 0.54337,0.35943 0.32387,0.78026 -0.221,0.42374 -0.65276,0.66814 -1.47192,0.83319 -1.15883,0.23348 -1.96466,0.1896 -3.96661,-0.21598 l -0.50222,-0.10175 0.90748,0.42978 c 1.32061,0.62544 1.91058,0.74443 3.18032,0.64145 0.50311,-0.0408 0.56186,-0.0644 0.77578,-0.31112 0.71021,-0.81926 2.36805,-1.18091 3.3104,-0.72214 0.47923,0.2333 0.54103,0.36392 0.34761,0.73475 -0.2007,0.38482 -0.50272,0.59541 -1.13095,0.78861 -1.03753,0.31909 -2.42791,0.30927 -3.84708,-0.0271 -0.45644,-0.10819 -0.86519,-0.19745 -0.90835,-0.19836 -0.17563,-0.004 1.73724,0.8533 2.1863,0.97951 0.85254,0.2396 2.32941,0.17124 2.48021,-0.11482 0.1,-0.18956 0.66636,-0.61589 1.04033,-0.78297 0.43763,-0.19552 1.197,-0.31486 1.65985,-0.26082 0.53003,0.0619 1.12754,0.36124 1.16099,0.58169 0.0338,0.22259 -0.16467,0.56724 -0.45568,0.79134 -0.8248,0.6352 -3.22784,0.76546 -5.11074,0.27708 l -0.41926,-0.10875 0.64163,0.29075 c 1.34893,0.61126 2.4378,0.89246 3.19975,0.82631 0.47885,-0.0416 0.78007,-0.16768 0.88614,-0.37105 0.24516,-0.47004 1.48819,-0.99571 2.33114,-0.98581 1.10488,0.013 1.80158,0.63364 1.27848,1.13894 z m -1.03735,-1.6033 c -0.17062,0.0537 -0.2552,0.0296 -0.57284,-0.16265 -0.46085,-0.27897 -0.70785,-0.62192 -1.05341,-1.46271 -0.32865,-0.79959 -0.38034,-1.20638 -0.21069,-1.65809 l 0.13198,-0.35136 -0.46809,-0.69957 c -0.68527,-1.02415 -1.30588,-1.60796 -2.22187,-2.09011 -0.20481,-0.10769 -0.31275,-0.19888 -0.28922,-0.24399 0.0275,-0.0526 0.23744,0.0457 0.78097,0.36582 1.50034,0.88357 2.43591,1.73326 3.2434,2.9455 0.85015,1.27647 1.18321,2.14909 1.0567,2.76856 -0.0755,0.36957 -0.17642,0.51929 -0.39685,0.58861 z m -2.54341,-1.29308 c -0.25218,0.0793 -0.88836,-0.33214 -1.22954,-0.79517 -0.52353,-0.71051 -0.78118,-1.93322 -0.55203,-2.61966 0.0827,-0.24759 0.0656,-0.30509 -0.22337,-0.75428 -0.63325,-0.98431 -1.23436,-1.58088 -2.16354,-2.14726 -0.30754,-0.18746 -0.54216,-0.36738 -0.52414,-0.40194 0.0504,-0.0967 1.51575,0.79036 2.18855,1.32489 0.77912,0.61903 1.23644,1.10962 1.81058,1.94226 0.79951,1.15948 1.18404,2.04927 1.13438,2.62499 -0.0323,0.37447 -0.23957,0.7629 -0.44089,0.8262 z m -2.57856,-1.3151 c -0.0896,9.5e-4 -0.3146,-0.0774 -0.50003,-0.17412 -0.87807,-0.45797 -1.55907,-2.24977 -1.24476,-3.27513 0.0667,-0.21762 0.0373,-0.3089 -0.25249,-0.78352 -0.1804,-0.29546 -0.48085,-0.70728 -0.66768,-0.91517 -0.38416,-0.42743 -1.16645,-1.0475 -1.62001,-1.28406 -0.16701,-0.0871 -0.289,-0.18644 -0.27111,-0.22074 0.1086,-0.20822 2.22246,1.24033 3.00977,2.06248 0.47571,0.49679 1.42445,1.87206 1.71417,2.48487 0.40002,0.84603 0.43347,1.13322 0.19377,1.66382 -0.17671,0.39116 -0.21672,0.44003 -0.36158,0.44159 z m -2.58184,-1.33331 c -0.27069,0.003 -0.8238,-0.37858 -1.1053,-0.76227 -0.52698,-0.71832 -0.80207,-1.87182 -0.61993,-2.59941 0.0836,-0.33376 0.0737,-0.36915 -0.24505,-0.87775 -0.5723,-0.91329 -1.45235,-1.7561 -2.28976,-2.19287 -0.18782,-0.098 -0.28932,-0.18581 -0.26611,-0.23032 0.10065,-0.19298 2.33456,1.34723 3.06324,2.11203 1.02834,1.07925 2.03235,2.87603 2.00568,3.58895 -0.006,0.14626 -0.0915,0.42206 -0.191,0.61289 -0.15162,0.29071 -0.20865,0.34728 -0.35167,0.34879 z m -2.52038,-1.31843 c -0.64209,-0.0757 -1.22186,-0.7141 -1.57591,-1.73517 -0.22846,-0.65885 -0.28885,-1.44789 -0.13363,-1.74551 0.0875,-0.16781 -0.0947,-0.54568 -0.60467,-1.25358 -0.42793,-0.59409 -1.00813,-1.11732 -1.72029,-1.5514 -0.30767,-0.18754 -0.54216,-0.36738 -0.52413,-0.40196 0.0445,-0.0854 1.37423,0.70369 2.02939,1.20435 1.04983,0.80227 1.87457,1.78529 2.54036,3.02797 0.56042,1.04598 0.65199,1.5726 0.36817,2.11762 -0.17158,0.3294 -0.20402,0.35832 -0.37929,0.33765 z m -2.3687,-1.3564 c -0.13325,0.0639 -0.23116,0.0381 -0.61561,-0.16243 -0.3765,-0.19637 -0.50474,-0.3032 -0.72678,-0.60544 -0.51382,-0.69941 -0.75539,-1.89161 -0.51695,-2.55105 l 0.11131,-0.30783 -0.60365,-0.84112 c -0.66286,-0.92365 -1.03453,-1.27969 -1.87201,-1.79339 -0.85505,-0.52449 -0.63251,-0.54965 0.25291,-0.0286 1.3935,0.82005 2.34737,1.65471 3.06793,2.6845 0.83208,1.18918 1.27176,2.12968 1.26972,2.71586 -10e-4,0.37107 -0.1777,0.79874 -0.36688,0.88949 z m -2.5709,-1.29561 c -1.13528,0.61584 -3.63492,-0.48347 -5.58791,-2.4575 -0.50817,-0.51365 -1.08318,-1.23249 -1.09295,-1.36633 -0.0152,-0.2076 0.19218,-0.023 1.11181,0.98972 0.48398,0.53299 1.40731,1.18267 1.7916,1.26057 0.12893,0.0261 0.55322,-0.0369 0.94284,-0.14005 1.04237,-0.27604 1.3835,-0.26449 2.10344,0.0712 0.7295,0.34013 0.95319,0.5131 1.08846,0.84172 0.13137,0.31912 0.004,0.60475 -0.35728,0.80069 z m -0.76731,-2.2304 c -0.0208,-0.0108 -0.18647,-0.15393 -0.36823,-0.31799 -1.01632,-0.91743 -2.06421,-1.53036 -3.0301,-1.77235 -0.73917,-0.18517 -0.75611,-0.19501 -0.65833,-0.38247 0.0447,-0.0858 0.097,-0.14772 0.11621,-0.13771 0.0192,0.01 0.38229,0.11014 0.80687,0.22252 0.42459,0.11237 0.91673,0.27981 1.09361,0.37207 0.53665,0.2799 1.67547,1.10934 1.96401,1.43045 0.22623,0.25177 0.25844,0.32761 0.19266,0.45373 -0.0434,0.0833 -0.096,0.14256 -0.11675,0.13173 z m -2.83059,3.20026 c -0.86419,-0.26356 -1.42407,-0.55351 -2.01428,-1.04315 -0.30455,-0.25264 -0.65044,-0.53053 -0.76868,-0.61753 -0.19071,-0.14034 -0.20444,-0.17839 -0.12167,-0.33708 0.1123,-0.21532 0.16524,-0.19364 0.56175,0.22999 0.50598,0.54057 1.43379,1.0315 2.74535,1.45264 0.20856,0.067 0.21541,0.0813 0.12311,0.25827 -0.0941,0.18049 -0.11342,0.18258 -0.5255,0.0569 z"
           id="path6289" />
        <path
           inkscape:connector-curvature="0"
           id="path6291"
           d="m 692.95502,154.64911 c -0.069,0.19491 0.0207,0.41031 0.20787,0.49853 4.53878,2.22166 25.51005,9.24064 39.37302,9.51497 0.53537,0.046 0.50778,-1.20468 -0.0276,-1.25055 -11.11209,1.75392 -34.70998,-6.89239 -38.9914,-8.98806 -0.21686,-0.10991 -0.48089,-0.004 -0.5619,0.22511 z"
           style="color:#000000;font-style:normal;font-variant:normal;font-weight:normal;font-stretch:normal;font-size:medium;line-height:normal;font-family:sans-serif;text-indent:0;text-align:start;text-decoration:none;text-decoration-line:none;text-decoration-style:solid;text-decoration-color:#000000;letter-spacing:normal;word-spacing:normal;text-transform:none;direction:ltr;block-progression:tb;writing-mode:lr-tb;baseline-shift:baseline;text-anchor:start;white-space:normal;clip-rule:nonzero;display:inline;overflow:visible;visibility:visible;opacity:1;isolation:auto;mix-blend-mode:normal;color-interpolation:sRGB;color-interpolation-filters:linearRGB;solid-color:#000000;solid-opacity:1;fill:#56992a;fill-opacity:1;fill-rule:evenodd;stroke:none;stroke-width:4.19999981;stroke-linecap:round;stroke-linejoin:miter;stroke-miterlimit:4;stroke-dasharray:none;stroke-dashoffset:0;stroke-opacity:1;color-rendering:auto;image-rendering:auto;shape-rendering:auto;text-rendering:auto;enable-background:accumulate"
           sodipodi:nodetypes="ccccccc" />
      </g>
      <use
         x="0"
         y="0"
         xlink:href="#g6316"
         id="use6320"
         transform="matrix(-1,0,0,-1,301.18112,1909.8425)"
         width="100%"
         height="100%" />
      <text
         sodipodi:linespacing="125%"
         id="text5084"
         y="944.54633"
         x="150.66537"
         style="font-style:normal;font-variant:normal;font-weight:normal;font-stretch:normal;font-size:27.86489677px;line-height:125%;font-family:akaDora;-inkscape-font-specification:akaDora;text-align:center;letter-spacing:0px;word-spacing:-6px;text-anchor:middle;fill:#56992a;fill-opacity:1;stroke:none;stroke-width:1px;stroke-linecap:butt;stroke-linejoin:miter;stroke-opacity:1"
         xml:space="preserve"><tspan
           y="944.54633"
           x="150.66537"
           id="tspan5086"
           sodipodi:role="line">Jste srdečně zváni</tspan><tspan
           id="tspan5088"
           y="979.37744"
           x="150.66537"
           sodipodi:role="line">na svatební hostinu</tspan></text>
    </g>
    <use
       id="use4263"
       transform="translate(0,194.8819)"
       xlink:href="#g4175"
       inkscape:tiled-clone-of="#g4175"
       y="0"
       x="0" />
    <use
       id="use4265"
       transform="translate(0,389.76379)"
       xlink:href="#g4175"
       inkscape:tiled-clone-of="#g4175"
       y="0"
       x="0" />
    <use
       id="use4267"
       transform="translate(0,584.64569)"
       xlink:href="#g4175"
       inkscape:tiled-clone-of="#g4175"
       y="0"
       x="0" />
    <use
       id="use4269"
       transform="translate(0,779.52759)"
       xlink:href="#g4175"
       inkscape:tiled-clone-of="#g4175"
       y="0"
       x="0" />
    <use
       id="use4271"
       transform="translate(301.18109,0)"
       xlink:href="#g4175"
       inkscape:tiled-clone-of="#g4175"
       y="0"
       x="0" />
    <use
       id="use4273"
       transform="translate(301.18109,194.8819)"
       xlink:href="#g4175"
       inkscape:tiled-clone-of="#g4175"
       y="0"
       x="0" />
    <use
       id="use4275"
       transform="translate(301.18109,389.76379)"
       xlink:href="#g4175"
       inkscape:tiled-clone-of="#g4175"
       y="0"
       x="0" />
    <use
       id="use4277"
       transform="translate(301.18109,584.64569)"
       xlink:href="#g4175"
       inkscape:tiled-clone-of="#g4175"
       y="0"
       x="0" />
    <use
       id="use4279"
       transform="translate(301.18109,779.52759)"
       xlink:href="#g4175"
       inkscape:tiled-clone-of="#g4175"
       y="0"
       x="0" />
  </g>
  <g
     inkscape:groupmode="layer"
     inkscape:label="Printing Marks"
     id="printing-marks">
    <path
       inkscape:connector-curvature="0"
       d="M 0,-17.716533 0,-53.149604"
       id="cropTL1"
       style="fill:none;stroke:#000000;stroke-width:0.25" />
    <path
       inkscape:connector-curvature="0"
       d="m -17.716535,2.1799642e-6 -35.433071,0"
       id="cropTL2"
       style="fill:none;stroke:#000000;stroke-width:0.25" />
    <path
       inkscape:connector-curvature="0"
       d="m 301.18109,-17.716533 0,-35.433071"
       id="cropTR1"
       style="fill:none;stroke:#000000;stroke-width:0.25" />
    <path
       inkscape:connector-curvature="0"
       d="m 761.81102,2.1799642e-6 35.43307,0"
       id="cropTR2"
       style="fill:none;stroke:#000000;stroke-width:0.25" />
    <path
       inkscape:connector-curvature="0"
       d="m 0,212.59844 0,35.43307"
       id="cropBL1"
       style="fill:none;stroke:#000000;stroke-width:0.25" />
    <path
       inkscape:connector-curvature="0"
       d="m -17.716535,194.8819 -35.433071,0"
       id="cropBL2"
       style="fill:none;stroke:#000000;stroke-width:0.25" />
    <path
       inkscape:connector-curvature="0"
       d="m 301.18109,1070.0787 0,35.4331"
       id="cropBR1"
       style="fill:none;stroke:#000000;stroke-width:0.25" />
    <path
       inkscape:connector-curvature="0"
       d="m 620.07874,194.8819 35.43307,0"
       id="cropBR2"
       style="fill:none;stroke:#000000;stroke-width:0.25" />
    <path
       style="fill:none;stroke:#000000;stroke-width:0.25"
       id="path4359"
       d="m 602.23718,-17.716533 0,-35.433071"
       inkscape:connector-curvature="0" />
    <path
       style="fill:none;stroke:#000000;stroke-width:0.25"
       id="path4361"
       d="m -17.716535,389.6388 -35.433071,0"
       inkscape:connector-curvature="0" />
    <path
       inkscape:connector-curvature="0"
       d="m -17.716535,584.52069 -35.433071,0"
       id="path4363"
       style="fill:none;stroke:#000000;stroke-width:0.25" />
    <path
       style="fill:none;stroke:#000000;stroke-width:0.25"
       id="path4365"
       d="m -17.716535,779.40259 -35.433071,0"
       inkscape:connector-curvature="0" />
    <path
       inkscape:connector-curvature="0"
       d="m -17.716535,974.28449 -35.433071,0"
       id="path4367"
       style="fill:none;stroke:#000000;stroke-width:0.25" />
    <path
       style="fill:none;stroke:#000000;stroke-width:0.25"
       id="path4369"
       d="m 620.07874,389.6388 35.43307,0"
       inkscape:connector-curvature="0" />
    <path
       inkscape:connector-curvature="0"
       d="m 620.07874,584.52069 35.43307,0"
       id="path4371"
       style="fill:none;stroke:#000000;stroke-width:0.25" />
    <path
       style="fill:none;stroke:#000000;stroke-width:0.25"
       id="path4373"
       d="m 620.07874,779.40259 35.43307,0"
       inkscape:connector-curvature="0" />
    <path
       inkscape:connector-curvature="0"
       d="m 620.07874,974.28449 35.43307,0"
       id="path4375"
       style="fill:none;stroke:#000000;stroke-width:0.25" />
    <path
       style="fill:none;stroke:#000000;stroke-width:0.25"
       id="path4377"
       d="m 602.23718,1070.0787 0,35.4331"
       inkscape:connector-curvature="0" />
    <path
       style="fill:none;stroke:#000000;stroke-width:0.25"
       id="path4379"
       d="m 0.125,1070.0787 0,35.4331"
       inkscape:connector-curvature="0" />
  </g>
</svg>
