<?xml version="1.0" encoding="UTF-8" standalone="no"?>
<!-- Created with Inkscape (http://www.inkscape.org/) -->

<svg
   xmlns:dc="http://purl.org/dc/elements/1.1/"
   xmlns:cc="http://creativecommons.org/ns#"
   xmlns:rdf="http://www.w3.org/1999/02/22-rdf-syntax-ns#"
   xmlns:svg="http://www.w3.org/2000/svg"
   xmlns="http://www.w3.org/2000/svg"
   xmlns:sodipodi="http://sodipodi.sourceforge.net/DTD/sodipodi-0.dtd"
   xmlns:inkscape="http://www.inkscape.org/namespaces/inkscape"
   width="99.658089mm"
   height="88.500351mm"
   viewBox="0 0 353.11921 313.58392"
   id="svg2"
   version="1.1"
   inkscape:version="0.91 r13725"
   sodipodi:docname="cyclist.svg">
  <defs
     id="defs4" />
  <sodipodi:namedview
     id="base"
     pagecolor="#ffffff"
     bordercolor="#666666"
     borderopacity="1.0"
     inkscape:pageopacity="0.0"
     inkscape:pageshadow="2"
     inkscape:zoom="1.4"
     inkscape:cx="128.04558"
     inkscape:cy="155.68691"
     inkscape:document-units="px"
     inkscape:current-layer="layer1"
     showgrid="false"
     fit-margin-top="0"
     fit-margin-left="0"
     fit-margin-right="0"
     fit-margin-bottom="0"
     inkscape:window-width="1366"
     inkscape:window-height="715"
     inkscape:window-x="0"
     inkscape:window-y="0"
     inkscape:window-maximized="1" />
  <metadata
     id="metadata7">
    <rdf:RDF>
      <cc:Work
         rdf:about="">
        <dc:format>image/svg+xml</dc:format>
        <dc:type
           rdf:resource="http://purl.org/dc/dcmitype/StillImage" />
        <dc:title></dc:title>
      </cc:Work>
    </rdf:RDF>
  </metadata>
  <g
     inkscape:label="Calque 1"
     inkscape:groupmode="layer"
     id="layer1"
     transform="translate(-104.57204,-300.51037)">
    <path
       style="fill:#000000;stroke:none;stroke-width:0.25303346"
       d="m 166.00865,613.6356 c -0.48266,-0.26022 -1.08252,-0.33254 -1.92791,-0.23241 -0.83508,0.0989 -1.65509,0.003 -2.56624,-0.29939 -0.73643,-0.24461 -2.03231,-0.46826 -2.8797,-0.49701 -1.02058,-0.0346 -1.91895,-0.24622 -2.66105,-0.62679 -0.62555,-0.32079 -1.79894,-0.63374 -2.65685,-0.70862 -0.91312,-0.0797 -1.81562,-0.32962 -2.22439,-0.61606 -0.37832,-0.26508 -1.4086,-0.63276 -2.28951,-0.81707 -1.80479,-0.37763 -3.1793,-1.00748 -3.38856,-1.55279 -0.0899,-0.23438 -0.50136,-0.36632 -1.14226,-0.36632 -1.15342,0 -1.72954,-0.2632 -3.06655,-1.40097 -0.5277,-0.44908 -1.49556,-0.96033 -2.15078,-1.13614 -0.65523,-0.17578 -1.53291,-0.62664 -1.95042,-1.00189 -1.05959,-0.95234 -2.16546,-1.67442 -2.90988,-1.9 -0.34793,-0.10544 -1.20191,-0.72026 -1.89776,-1.36625 -0.69584,-0.64602 -1.72062,-1.37663 -2.2773,-1.62362 -0.55902,-0.24802 -1.26751,-0.83982 -1.58257,-1.32195 -0.31375,-0.4801 -1.18179,-1.2788 -1.92898,-1.7749 -0.76679,-0.50913 -1.76413,-1.49095 -2.28971,-2.25407 -0.52264,-0.75881 -1.26415,-1.48993 -1.69009,-1.66637 -0.45677,-0.18919 -0.95978,-0.70809 -1.26347,-1.30337 -0.27751,-0.54398 -1.08111,-1.58093 -1.78577,-2.30433 -0.70467,-0.72343 -1.48644,-1.78546 -1.73727,-2.36005 -0.25083,-0.57461 -0.91735,-1.48799 -1.48116,-2.02973 -0.56381,-0.54177 -1.20239,-1.48751 -1.41907,-2.10162 -0.21668,-0.61414 -0.8302,-1.6934 -1.36338,-2.39836 -0.53319,-0.70495 -1.11967,-1.83945 -1.30329,-2.52107 -0.18362,-0.68165 -0.71287,-1.73588 -1.17611,-2.34276 -0.46324,-0.60688 -0.84225,-1.38961 -0.84225,-1.73943 0,-0.34979 -0.45546,-1.54186 -1.01214,-2.64903 -0.64404,-1.28093 -1.0126,-2.36017 -1.01343,-2.96753 -7.6e-4,-0.5699 -0.25248,-1.3623 -0.62468,-1.96662 -0.45675,-0.74157 -0.62699,-1.38417 -0.63685,-2.40382 -0.009,-0.8839 -0.2133,-1.80714 -0.56116,-2.53034 -0.52417,-1.08973 -0.79464,-3.13645 -1.05328,-7.97055 -0.0447,-0.83501 -0.21704,-2.07665 -0.38304,-2.75918 -0.22143,-0.91046 -0.23051,-1.58445 -0.0341,-2.53059 0.14725,-0.70928 0.24878,-1.97268 0.22562,-2.80755 -0.0232,-0.83487 0.008,-2.66204 0.0694,-4.06037 0.0921,-2.09902 0.21456,-2.70916 0.7024,-3.49852 0.50324,-0.81425 0.56694,-1.15997 0.42939,-2.33033 -0.13344,-1.13531 -0.0511,-1.63653 0.4735,-2.88295 0.37344,-0.88725 0.63501,-1.99783 0.63501,-2.6961 0,-0.90065 0.19273,-1.48774 0.79814,-2.43118 0.52838,-0.82341 0.83947,-1.67389 0.92042,-2.51636 0.0788,-0.82018 0.41283,-1.75509 0.93959,-2.62986 0.44952,-0.74651 0.88962,-1.80943 0.97798,-2.36204 0.10437,-0.65266 0.51128,-1.40986 1.1612,-2.16078 0.59283,-0.68496 1.07125,-1.54157 1.17408,-2.10217 0.0955,-0.52037 0.48729,-1.30693 0.87076,-1.7479 0.38345,-0.44096 1.07887,-1.52175 1.54537,-2.40175 0.4665,-0.88 1.32204,-2.05639 1.90121,-2.6142 0.57916,-0.5578 1.24642,-1.49854 1.48279,-2.09053 0.44364,-1.11108 1.65149,-2.33961 2.30022,-2.33961 0.20302,0 0.58682,-0.50786 0.8529,-1.12858 0.33898,-0.79082 0.94467,-1.48651 2.02384,-2.32456 0.84704,-0.65779 1.77543,-1.57678 2.06308,-2.04221 0.28764,-0.46542 0.99063,-1.08479 1.56219,-1.37638 0.57156,-0.29159 1.61334,-1.12429 2.31506,-1.85045 0.70173,-0.72615 1.59883,-1.3996 1.99357,-1.49654 0.39473,-0.0969 1.24872,-0.66878 1.89775,-1.27074 0.64902,-0.60196 1.71142,-1.32684 2.36088,-1.61086 0.64946,-0.28401 1.81171,-0.98245 2.58279,-1.55207 0.86074,-0.63587 1.67737,-1.03569 2.11541,-1.03569 0.43917,0 1.23131,-0.3891 2.06048,-1.01213 0.99663,-0.74885 1.58667,-1.01214 2.2683,-1.01214 0.65095,0 1.32555,-0.27842 2.29908,-0.94887 1.20831,-0.83215 1.53873,-0.94167 2.68605,-0.89034 1.09904,0.0492 1.49993,-0.0684 2.50696,-0.73546 0.97554,-0.64617 1.55942,-0.82604 3.13592,-0.96605 1.06545,-0.0946 2.27879,-0.3458 2.6963,-0.55819 0.4841,-0.24626 1.88689,-0.44743 3.8724,-0.55532 1.7123,-0.0931 4.00544,-0.33842 5.09581,-0.54526 1.48455,-0.28161 2.16232,-0.30772 2.69832,-0.10394 0.44608,0.16959 1.52929,0.2089 2.87472,0.10432 1.66784,-0.12965 2.49233,-0.0706 3.62453,0.25939 1.13498,0.33085 1.63935,0.36663 2.236,0.15864 0.61672,-0.21499 1.05467,-0.16869 2.19466,0.23198 0.78329,0.27531 1.95451,0.50057 2.6027,0.50057 0.64817,0 1.67691,0.21991 2.28606,0.4887 0.60918,0.26879 1.90463,0.62235 2.87881,0.78569 0.97418,0.16335 2.2267,0.55431 2.78337,0.86881 0.55667,0.31449 1.55734,0.63063 2.22371,0.70251 0.77658,0.0838 1.73786,0.45555 2.67737,1.03544 0.80616,0.4976 1.95248,1.01408 2.54734,1.14774 0.59485,0.13366 1.49656,0.57553 2.00375,0.98194 1.18083,0.94616 1.90367,1.32714 2.51803,1.32714 0.26974,0 1.20009,0.56727 2.06744,1.2606 0.86735,0.69333 1.95101,1.36388 2.40817,1.4901 0.46831,0.12931 1.37541,0.79414 2.07773,1.52277 0.6856,0.7113 1.38096,1.29327 1.54523,1.29327 0.53531,0 5.80985,-5.30815 11.5285,-11.60195 3.07924,-3.38895 5.67759,-6.29936 5.7741,-6.46758 0.19266,-0.3358 -1.20117,-5.39172 -1.63067,-5.91505 -0.18242,-0.22227 -0.60245,-0.27572 -1.32059,-0.16803 -1.04981,0.15743 -1.05403,0.1548 -1.35269,-0.84206 -0.16477,-0.54999 -0.29959,-1.24654 -0.29959,-1.54789 0,-0.55776 0.10205,-0.62654 1.32843,-0.89526 0.49076,-0.10754 0.69584,-0.30964 0.69584,-0.68579 0,-0.60925 -2.44911,-9.26017 -5.98004,-21.12319 l -2.41948,-8.12885 -3.83407,-3.25436 c -5.18336,-4.39967 -9.79545,-8.5237 -14.84301,-13.27231 l -4.21493,-3.9653 -1.72757,-0.30085 c -1.93633,-0.33719 -3.02678,-0.81273 -3.26056,-1.42189 -0.28795,-0.7504 -0.16237,-1.64652 0.32783,-2.33947 0.42193,-0.59643 0.50237,-1.2944 0.61854,-5.36672 0.18011,-6.3146 0.98473,-9.72415 3.48533,-14.7688 1.51456,-3.05541 3.02274,-5.37836 6.98694,-10.76147 1.68045,-2.28191 3.10303,-4.39842 3.16133,-4.70335 0.0583,-0.30492 -0.006,-1.30411 -0.14299,-2.22041 -0.18464,-1.23544 -0.16832,-1.86078 0.0632,-2.41971 0.34891,-0.84236 3.95821,-4.12335 7.78784,-7.07947 11.86145,-9.15595 13.89407,-10.62399 18.75644,-13.54655 14.01722,-8.42515 31.81174,-14.7596 48.05128,-17.10513 6.34985,-0.91714 9.90806,-1.10785 17.84182,-0.95628 4.24284,0.0811 8.27191,0.0395 9.23572,-0.0953 3.54991,-0.49647 5.73953,-2.25563 6.68595,-5.37154 0.66842,-2.20059 0.55055,-3.29605 -0.82165,-7.63592 -1.31428,-4.15665 -1.47953,-6.30141 -0.86669,-11.24808 0.40642,-3.28036 0.40233,-4.75342 -0.0175,-6.24707 -0.14175,-0.50443 0.0374,-0.58689 2.59018,-1.1922 5.98743,-1.41975 9.48896,-1.78585 17.03884,-1.78147 6.02184,0.003 7.35009,0.0769 9.86831,0.54521 11.65123,2.16691 18.93335,7.12287 22.10123,15.04129 1.12805,2.81971 1.50494,5.05028 1.53035,9.05738 0.0327,5.15119 -0.16779,5.50337 -3.93849,6.91944 -1.96208,0.73686 -2.91131,1.31148 -3.26826,1.97849 -0.17376,0.32463 -0.1561,1.26743 0.0555,2.96271 0.81431,6.52496 -1.90985,14.54342 -6.50051,19.13409 -1.25689,1.25688 -1.87743,1.6136 -3.25464,1.87089 -1.04667,0.19554 -1.50494,0.12346 -3.38597,-0.53255 -2.64473,-0.92234 -5.43141,-1.17275 -7.69806,-0.69173 -0.97316,0.20652 -3.08868,1.09969 -5.47083,2.30979 -2.13624,1.08519 -4.67515,2.20865 -5.64199,2.49659 -2.0519,0.61109 -1.97807,0.48885 -2.77778,4.59965 -0.71383,3.66941 -0.76016,9.03766 -0.10982,12.72224 0.75799,4.29417 1.74325,7.22691 6.6643,19.83661 0.16179,0.41454 6.69301,4.7254 11.10455,7.32942 3.75403,2.21593 10.48059,5.49146 13.78428,6.71233 3.47812,1.28534 6.05362,1.65761 13.37466,1.93321 13.47494,0.50726 16.12929,1.41857 19.83433,6.80964 0.71168,1.03555 1.61982,2.345 2.01812,2.90988 l 0.72413,1.02706 -0.14025,3.46362 c -0.0954,2.35534 -0.26255,3.70011 -0.52244,4.20268 -0.79901,1.54509 -3.29579,1.78884 -6.72252,0.65629 l -2.04891,-0.67717 -1.29558,0.70514 c -2.58095,1.40472 -5.65232,1.11504 -11.04618,-1.04181 -1.57756,-0.63083 -3.0445,-1.07933 -3.25988,-0.99668 -0.30508,0.11707 -0.35822,0.39388 -0.24046,1.25294 0.3648,2.66155 0.47355,9.26436 0.19474,11.82315 -0.92633,8.50126 -3.80335,12.15429 -11.53846,14.65075 -1.39168,0.44915 -2.67815,0.95425 -2.85879,1.12243 -0.4916,0.45762 0.52302,2.95745 1.70435,4.1993 l 0.94956,0.9982 2.79157,0 c 1.92513,0 2.87271,0.0982 3.05302,0.31629 0.30137,0.36459 1.39151,3.55967 3.60442,10.56415 0.85735,2.71378 1.89767,5.8166 2.31181,6.89516 0.64364,1.67626 0.83934,1.96101 1.34776,1.96101 0.32712,0 0.93306,-0.28466 1.34654,-0.63259 0.50802,-0.42745 1.05801,-0.63258 1.69611,-0.63258 0.55581,0 1.58083,-0.32346 2.49154,-0.78626 1.13987,-0.57923 2.08085,-0.83814 3.57377,-0.98332 1.11459,-0.10839 2.41612,-0.36738 2.8923,-0.57553 0.49779,-0.2176 1.25533,-0.32621 1.78227,-0.25553 0.50407,0.0676 1.36699,-0.0199 1.91759,-0.19452 0.87618,-0.27783 5.92505,-0.77475 7.32693,-0.72112 0.27834,0.0106 1.63387,0.0105 3.01227,-2e-4 1.5041,-0.0117 3.10932,0.13672 4.0146,0.3713 1.12911,0.29258 1.69745,0.32497 2.26017,0.12881 0.59382,-0.20701 1.05092,-0.15691 2.17594,0.2385 0.78331,0.27531 2.01657,0.50057 2.7406,0.50057 0.88539,0 1.71673,0.20002 2.53909,0.61091 0.74159,0.37052 1.83485,0.6552 2.77831,0.72346 1.09176,0.079 1.80266,0.28847 2.38416,0.70253 0.46264,0.32943 1.42058,0.67031 2.1692,0.7719 0.83623,0.11348 1.8909,0.51477 2.80303,1.06653 0.80432,0.48653 1.97477,1.018 2.60103,1.18105 0.62626,0.16305 1.53718,0.61076 2.02427,0.99492 1.1528,0.90918 1.87812,1.28667 2.47224,1.28667 0.26467,0 1.19012,0.56892 2.05653,1.26427 0.86643,0.69535 1.8814,1.33783 2.25551,1.42774 0.37411,0.0899 1.27337,0.71862 1.99831,1.39715 0.72496,0.67853 1.80668,1.44785 2.40382,1.70962 0.59716,0.26176 1.29657,0.80056 1.55431,1.19733 0.25771,0.39678 1.22556,1.29511 2.15078,1.9963 0.92519,0.7012 1.90299,1.68288 2.17285,2.18152 0.26983,0.49865 0.97215,1.19748 1.56066,1.55295 0.66603,0.4023 1.24032,1.01167 1.52106,1.61398 0.24805,0.53222 1.1114,1.6099 1.91852,2.39484 0.89853,0.87383 1.46752,1.64004 1.46752,1.97616 0,0.3106 0.54109,1.12109 1.24609,1.86654 0.68537,0.72465 1.40337,1.77109 1.59558,2.32541 0.1922,0.55432 0.87013,1.71322 1.50648,2.57533 0.63636,0.86211 1.2344,1.97995 1.32899,2.48409 0.0945,0.50413 0.56388,1.43007 1.0429,2.05763 0.51168,0.67032 0.87097,1.43215 0.87097,1.84674 0,0.38815 0.40647,1.5182 0.90325,2.51123 0.49701,0.99345 0.95571,2.34115 1.01988,2.99645 0.0641,0.65502 0.39781,1.69402 0.74146,2.3089 0.436,0.78009 0.6256,1.50978 0.62732,2.4145 0.003,0.83964 0.22034,1.76453 0.62072,2.6245 0.49344,1.05986 0.58878,1.57677 0.47226,2.5605 -0.0985,0.83125 -0.006,1.65513 0.28509,2.5304 0.26283,0.7913 0.36639,1.5923 0.26538,2.05229 -0.0911,0.41495 -0.0428,1.35452 0.10744,2.08795 0.3193,1.55868 0.32505,1.75799 0.15129,5.25551 -0.3484,7.01312 -0.45,7.96744 -0.95465,8.96733 -0.38559,0.76396 -0.46869,1.28725 -0.35576,2.24063 0.11569,0.97686 0.0134,1.57349 -0.47651,2.77912 -0.35177,0.86573 -0.62381,2.04542 -0.62381,2.70521 0,0.90204 -0.20136,1.48609 -0.87914,2.54997 -0.67188,1.05464 -0.88065,1.65529 -0.88561,2.54774 -0.004,0.74225 -0.17715,1.38769 -0.47482,1.77123 -0.70313,0.90599 -1.08974,1.71962 -1.43004,3.00969 -0.16893,0.6404 -0.71078,1.69312 -1.20406,2.33937 -0.49329,0.64624 -1.08499,1.74132 -1.31492,2.43352 -0.2299,0.69222 -0.60202,1.40965 -0.82691,1.59431 -0.59058,0.48497 -1.84067,2.51526 -1.84067,2.98949 0,0.22211 -0.52211,0.91148 -1.16026,1.53192 -0.63815,0.62043 -1.48295,1.76136 -1.87735,2.5354 -0.55918,1.09741 -0.93921,1.50747 -1.72582,1.86217 -0.78627,0.35458 -1.0994,0.69228 -1.41979,1.53124 -0.29489,0.77213 -0.83653,1.40674 -1.91645,2.24535 -0.82798,0.64299 -1.7639,1.56641 -2.07984,2.05203 -0.31591,0.48565 -0.90657,1.02165 -1.31253,1.19108 -0.40597,0.16946 -1.43076,0.94979 -2.2773,1.73404 -0.84655,0.78427 -2.08594,1.68652 -2.7542,2.00498 -0.66828,0.31847 -1.3975,0.85753 -1.62053,1.19789 -0.22302,0.34038 -1.14598,0.95462 -2.05106,1.36499 -0.90507,0.41039 -2.12642,1.14017 -2.71409,1.62171 -0.66616,0.54587 -1.47394,0.9404 -2.14514,1.04772 -0.64738,0.10354 -1.41372,0.46813 -1.92212,0.91453 -0.54402,0.47766 -1.41147,0.87383 -2.43281,1.11112 -0.87302,0.20284 -2.04277,0.67224 -2.59944,1.04311 -0.6796,0.45278 -1.51091,0.728 -2.53033,0.83769 -0.9981,0.10741 -1.8369,0.38044 -2.44848,0.79698 -0.70042,0.47707 -1.41362,0.67742 -2.88661,0.8109 -1.07597,0.0975 -2.29218,0.35096 -2.7027,0.56325 -0.4105,0.21227 -1.00394,0.32133 -1.31873,0.24231 -0.31478,-0.079 -1.40082,0.0739 -2.41339,0.33969 -1.43062,0.37561 -2.13805,0.43502 -3.17331,0.26652 -0.95369,-0.15521 -1.71615,-0.11462 -2.68327,0.14279 -1.65165,0.43962 -2.3374,0.45344 -3.40196,0.0685 -0.64071,-0.23168 -1.21302,-0.2233 -2.59795,0.038 -1.57528,0.29721 -1.84676,0.28894 -2.39949,-0.0732 -0.45956,-0.30111 -0.95287,-0.36932 -1.87826,-0.25971 -0.86756,0.10273 -1.67147,0.0104 -2.60379,-0.29934 -0.74182,-0.2464 -1.93313,-0.47396 -2.64737,-0.50571 -0.71421,-0.0317 -1.51772,-0.175 -1.78555,-0.31834 -0.26784,-0.14332 -1.48561,-0.43294 -2.7062,-0.64357 -1.22055,-0.21065 -2.94283,-0.7216 -3.82725,-1.13546 -0.88443,-0.41389 -2.05805,-0.82853 -2.60804,-0.92145 -1.09766,-0.18545 -2.60233,-0.995 -2.60233,-1.40013 0,-0.14122 -0.49556,-0.25676 -1.10122,-0.25676 -0.7733,0 -1.35728,-0.18716 -1.96101,-0.6285 -1.7954,-1.31246 -2.40805,-1.66542 -3.39012,-1.95299 -0.55667,-0.16303 -1.45393,-0.68674 -1.9939,-1.16381 -0.53998,-0.47709 -1.56618,-1.13495 -2.28044,-1.46197 -0.71429,-0.327 -1.73181,-1.03812 -2.26121,-1.58027 -0.5294,-0.54215 -1.49586,-1.23551 -2.14772,-1.54082 -0.68618,-0.32141 -1.42327,-0.91834 -1.75069,-1.41785 -0.31106,-0.47449 -1.15543,-1.25998 -1.87642,-1.74553 -0.72097,-0.48552 -1.72172,-1.42637 -2.22386,-2.09079 -0.50217,-0.66439 -1.28756,-1.4604 -1.74533,-1.76887 -0.45776,-0.3085 -1.26375,-1.22843 -1.79107,-2.04433 -0.52734,-0.81588 -1.3599,-1.8187 -1.85013,-2.22845 -0.49025,-0.40976 -0.97742,-1.02967 -1.08263,-1.37759 -0.25301,-0.83665 -1.05069,-1.97455 -2.0399,-2.90988 -0.44157,-0.41751 -0.92904,-1.2197 -1.08326,-1.78268 -0.15425,-0.56297 -0.68605,-1.49747 -1.18182,-2.07664 -0.49577,-0.57919 -1.06932,-1.61856 -1.27458,-2.30969 -0.20524,-0.69114 -0.76988,-1.84611 -1.25474,-2.56665 -0.48489,-0.72051 -0.8816,-1.5771 -0.8816,-1.90357 0,-0.32643 -0.45546,-1.47369 -1.01213,-2.54943 -0.69088,-1.33509 -1.0131,-2.2831 -1.01517,-2.98676 -0.003,-0.62983 -0.24797,-1.45927 -0.63259,-2.13209 -0.413,-0.72241 -0.62954,-1.49092 -0.62954,-2.23413 0,-0.634 -0.29405,-1.86792 -0.66768,-2.80184 -0.50779,-1.26929 -0.68825,-2.21877 -0.75361,-3.96519 -0.14808,-3.95579 -0.246,-5.0404 -0.57715,-6.39172 -0.23443,-0.95677 -0.25356,-1.67633 -0.0706,-2.65687 0.13798,-0.7396 0.26338,-3.04582 0.27869,-5.12494 0.0257,-3.49385 0.0766,-3.88336 0.672,-5.14198 0.53621,-1.13344 0.61733,-1.58148 0.4838,-2.67214 -0.13266,-1.08369 -0.0479,-1.56332 0.49013,-2.77253 0.40526,-0.91087 0.65052,-1.9201 0.65052,-2.67673 0,-0.93948 0.18085,-1.48761 0.7985,-2.42009 0.53676,-0.81035 0.83848,-1.62143 0.92041,-2.47433 0.0797,-0.82963 0.41644,-1.75789 0.97274,-2.68174 0.46796,-0.77711 0.85082,-1.6833 0.85082,-2.01377 0,-0.7423 0.36781,-1.46159 1.29085,-2.52439 0.39084,-0.44999 0.85106,-1.30398 1.02274,-1.89775 0.17168,-0.59377 0.62201,-1.4419 1.0007,-1.88474 0.37871,-0.44283 1.11691,-1.62028 1.64044,-2.61655 0.5512,-1.04898 1.35636,-2.13647 1.9129,-2.58372 0.52857,-0.42477 1.08815,-1.15745 1.24351,-1.62818 0.36978,-1.12049 1.31193,-2.22021 2.22667,-2.59911 0.48165,-0.19951 0.86365,-0.63667 1.11464,-1.27562 0.25675,-0.65366 0.89151,-1.36789 1.93775,-2.18037 0.85576,-0.66455 1.79125,-1.58907 2.0789,-2.0545 0.28765,-0.46542 0.99065,-1.08479 1.5622,-1.37638 0.57156,-0.29159 1.61335,-1.12429 2.31506,-1.85045 0.70174,-0.72615 1.6014,-1.40024 1.99927,-1.49797 0.39787,-0.0977 1.30879,-0.72735 2.02426,-1.39915 0.71548,-0.6718 1.58554,-1.30738 1.93346,-1.41241 0.34792,-0.10503 1.05958,-0.4064 1.58146,-0.66971 0.75583,-0.38135 0.94622,-0.61925 0.93584,-1.16944 -0.0233,-1.22991 -3.58498,-9.84528 -4.46801,-10.80743 -0.44114,-0.48066 -1.38911,-2.01679 -2.10663,-3.41364 -0.9276,-1.80586 -1.46211,-2.57544 -1.84978,-2.66335 -0.29989,-0.068 -1.62695,-0.35616 -2.94905,-0.64035 -1.3221,-0.28419 -2.594,-0.57439 -2.82644,-0.64488 -0.28329,-0.0859 -0.77711,-1.20913 -1.49783,-3.40696 -0.80315,-2.44921 -1.18113,-3.27879 -1.49396,-3.27879 -0.23034,0 -1.15042,0.63614 -2.04466,1.41363 -0.89422,0.77749 -2.41708,1.88562 -3.3841,2.46251 -2.09564,1.25018 -2.93974,2.05887 -4.54334,4.35285 -1.09584,1.56759 -7.46345,9.40669 -35.13261,43.2513 -5.11446,6.25597 -9.29903,11.5564 -9.29903,11.77873 0,0.95584 4.50967,5.9372 8.10021,8.94745 4.41779,3.7038 7.4984,5.25694 12.90157,6.50454 6.42121,1.48267 6.95842,1.84271 6.95842,4.66352 0,1.89757 -0.41502,2.60662 -2.25713,3.85628 -2.25205,1.52774 -6.65977,2.52649 -12.25188,2.77613 -3.65505,0.16316 -3.98257,0.31093 -3.23116,1.4577 0.62486,0.95366 0.52514,2.46283 -0.21551,3.26203 -1.02572,1.10677 -1.6954,1.232 -4.80911,0.89931 -3.78295,-0.40417 -12.75101,0.20903 -15.47613,1.05823 -0.68843,0.21453 -0.87942,0.48656 -1.46086,2.08082 -1.67225,4.58497 -5.18137,8.4931 -9.63974,10.73578 -3.8845,1.95398 -7.02963,2.41417 -23.78515,3.48013 -6.30853,0.40133 -10.78251,0.81388 -11.40115,1.05127 -0.19767,0.0759 -0.4851,0.61014 -0.63866,1.18729 -0.15359,0.57717 -0.8404,1.77913 -1.52622,2.67102 -0.68583,0.89189 -1.31552,1.91668 -1.39935,2.2773 -0.0838,0.36062 -0.64585,1.16805 -1.24898,1.79431 -0.60313,0.62626 -1.42981,1.7493 -1.8371,2.49565 -0.49597,0.90885 -1.06362,1.53819 -1.7189,1.90562 -0.63734,0.35739 -1.15495,0.92104 -1.48488,1.61691 -0.31191,0.65786 -1.07291,1.5128 -1.98097,2.22552 -0.81095,0.63648 -1.69733,1.53495 -1.96969,1.99659 -0.27237,0.46163 -0.85174,0.987 -1.28749,1.16749 -0.43574,0.18049 -1.4852,0.97638 -2.3321,1.76861 -0.84691,0.79224 -1.94781,1.61091 -2.44646,1.81926 -0.49865,0.20834 -1.2954,0.77311 -1.77057,1.25504 -0.4752,0.48193 -1.53921,1.18185 -2.3645,1.55537 -0.82527,0.37351 -1.9788,1.07104 -2.56336,1.55004 -0.66105,0.54169 -1.46987,0.93602 -2.13947,1.04308 -0.64739,0.10354 -1.41372,0.46813 -1.92214,0.91453 -0.54193,0.47583 -1.41327,0.87479 -2.42692,1.11128 -0.86981,0.2029 -2.10646,0.70581 -2.74812,1.11757 -0.82894,0.53193 -1.48098,0.74865 -2.25238,0.74865 -0.72808,0 -1.51256,0.24025 -2.38165,0.72937 -0.94873,0.53395 -1.8015,0.77674 -3.18258,0.90609 -1.03764,0.0972 -2.21807,0.34809 -2.62317,0.55756 -0.40508,0.20948 -0.97626,0.31818 -1.2693,0.24157 -0.29301,-0.0766 -1.38991,0.075 -2.43752,0.33691 -1.44315,0.36085 -2.21133,0.42489 -3.1699,0.26427 -0.90313,-0.15132 -1.69735,-0.10306 -2.77535,0.16859 -0.89854,0.22644 -1.87209,0.31162 -2.40381,0.2103 -1.26932,-0.24185 -3.00361,-0.25794 -4.18308,-0.0388 -0.71768,0.13334 -1.21597,0.0781 -1.71283,-0.18973 z m 6.34059,-9.95477 c 0.29175,-0.59399 -0.43858,-20.33794 -0.7675,-20.74874 -0.47502,-0.59328 -1.4178,-0.36591 -1.83598,0.44281 -0.43497,0.84111 -1.33309,1.00553 -2.5253,0.46232 -0.39782,-0.18125 -0.74185,-0.20587 -0.88385,-0.0633 -0.12786,0.12844 -0.82744,4.53522 -1.55464,9.79283 -1.02574,7.41608 -1.25433,9.62713 -1.01962,9.86187 0.39392,0.3939 2.29231,0.61513 5.65821,0.65936 2.35227,0.0309 2.74,-0.023 2.92868,-0.40719 z m 7.23823,-0.19711 c 1.23789,-0.18937 2.35602,-0.44964 2.48473,-0.57836 0.30456,-0.30457 -3.93145,-19.98189 -4.3944,-20.41311 -0.40174,-0.37422 -4.58411,-0.1643 -4.99496,0.25068 -0.34061,0.34405 0.42492,20.62647 0.79549,21.07576 0.30202,0.36619 2.2103,0.26156 6.10914,-0.33497 z m 213.64723,0.19711 c 0.21454,-0.55545 -1.45097,-47.06991 -1.71013,-47.76006 -0.18046,-0.48058 -0.2044,-0.47421 -0.4754,0.12652 -0.27398,0.60733 -6.60453,45.56975 -6.60453,46.9084 0,0.89809 0.77209,1.04561 5.89098,1.12542 2.38803,0.0372 2.74936,-0.0127 2.89908,-0.40028 z m 7.24966,-0.19607 c 2.22426,-0.32753 2.78005,-0.6276 2.56601,-1.38538 -0.059,-0.20876 -2.28689,-10.56847 -4.95095,-23.02159 -2.66407,-12.45312 -4.9612,-22.86153 -5.10478,-23.12977 -0.21302,-0.39809 -0.29807,-0.42147 -0.46272,-0.12727 -0.31535,0.56353 1.48463,47.56619 1.83786,47.99181 0.31953,0.38502 1.82037,0.30455 6.11458,-0.3278 z m -237.81228,-0.39149 c 0.0922,-0.14922 0.78994,-4.73229 1.55051,-10.18459 l 1.3828,-9.91333 -0.71317,-0.50607 c -1.29439,-0.91846 -2.81006,-2.70351 -2.96861,-3.49618 -0.13522,-0.67616 -0.20322,-0.73104 -0.51169,-0.41303 -0.19567,0.20172 -1.96872,5.36289 -3.94013,11.46931 -2.97565,9.21696 -3.52696,11.15772 -3.24622,11.42753 0.27348,0.2628 3.02717,1.03101 6.15795,1.7179 0.98655,0.21644 2.1232,0.16601 2.28856,-0.10154 z m 220.88485,0.0218 c 0.0849,-0.1373 1.62116,-10.80736 3.41403,-23.71124 3.13971,-22.59786 3.47751,-25.82016 2.44863,-23.35637 -0.20342,0.48708 -3.58265,10.8315 -7.50943,22.9876 -6.00441,18.58774 -7.08463,22.15485 -6.7939,22.43448 0.27965,0.269 3.0107,1.03329 6.16547,1.72543 0.95778,0.21015 2.1212,0.16928 2.2752,-0.0799 z M 188.2172,601.46909 c 1.53085,-0.49979 2.93536,-1.0601 3.12114,-1.24512 0.2815,-0.28039 -0.26672,-1.82784 -3.29073,-9.28857 l -3.62849,-8.95218 -2.6086,0.0289 c -1.4991,0.0167 -2.7254,0.14577 -2.88327,0.30364 -0.19757,0.19757 0.31343,3.03106 1.8201,10.0924 1.15213,5.39975 2.15245,9.91715 2.22295,10.03869 0.2148,0.37044 2.3176,-0.0215 5.2469,-0.97778 z m 219.6152,0.38244 c 2.91406,-0.84888 4.33937,-1.3993 4.56379,-1.76243 0.12996,-0.21027 -16.73123,-42.12852 -17.74081,-44.10507 -0.52586,-1.02949 -0.93939,-0.88673 -0.73296,0.25303 0.28605,1.57931 9.74776,45.71181 9.87326,46.05209 0.18191,0.49319 1.23243,0.3793 4.03672,-0.43762 z M 158.81742,583.88097 c 4.57074,-14.06547 5.56137,-17.37001 5.61324,-18.72448 0.0346,-0.90459 0.14813,-2.3279 0.25217,-3.16292 l 0.1892,-1.5182 -0.50741,0.50607 c -0.62375,0.62211 -19.28964,35.8514 -19.28964,36.40653 0,0.219 0.26914,0.57451 0.59808,0.79004 1.04852,0.68702 6.59427,2.90703 7.10374,2.84367 0.41522,-0.0516 1.34083,-2.67811 6.04062,-17.14071 z m 215.46985,16.51043 c 0.55809,-1.39495 14.45894,-44.66162 14.45894,-45.00377 0,-0.53074 -0.40169,-0.42393 -0.81563,0.21685 -1.17093,1.81276 -21.95738,41.44389 -21.95738,41.86367 0,0.5331 1.57354,1.37076 5.41418,2.88221 2.26698,0.89214 2.55774,0.89624 2.89989,0.041 z m 43.68431,-2.67064 c 2.66143,-1.38253 3.03453,-1.65484 3.02132,-2.20509 -0.0116,-0.48296 -19.05089,-31.21122 -24.49389,-39.53164 -0.88643,-1.35504 -1.51375,-1.62197 -1.18934,-0.50607 0.44398,1.52721 17.8028,43.97567 18.04584,44.1285 0.36918,0.23211 1.16484,-0.0929 4.61607,-1.8857 z M 195.487,598.56361 c 3.23982,-1.55674 4.74929,-2.50161 4.74929,-2.97286 0,-0.64875 -8.41243,-13.96623 -8.92776,-14.13326 -0.5989,-0.19415 -5.34386,0.14932 -5.77908,0.41829 -0.26801,0.16566 0.33325,1.88626 2.79665,8.00328 3.76699,9.3539 3.92556,9.68998 4.57244,9.68998 0.27282,0 1.43764,-0.45245 2.58846,-1.00543 z m -40.52918,-21.64106 c 5.8304,-10.9943 10.60345,-20.18218 10.60681,-20.41752 0.0106,-0.74329 -0.45819,-0.75339 -1.10664,-0.0238 -1.70709,1.9207 -27.73311,35.57408 -27.73311,35.86075 0,0.62337 6.38329,4.75327 7.16881,4.63814 0.33312,-0.0488 3.44389,-5.68818 11.06413,-20.05758 z m 221.4044,-1.01213 c 6.11501,-11.55098 11.11834,-21.1536 11.11852,-21.33915 1.5e-4,-0.18558 -0.1397,-0.29071 -0.31082,-0.23368 -0.48783,0.1626 -29.51046,37.46118 -29.52967,37.95022 -0.0272,0.69114 6.25896,4.81663 7.14602,4.68981 0.32669,-0.0467 3.64108,-6.07856 11.57595,-21.0672 z m -171.35663,16.83495 c 1.65785,-1.24801 3.08248,-2.44681 3.16583,-2.66401 0.10136,-0.26414 -0.61485,-1.25138 -2.16288,-2.98135 -1.27291,-1.42255 -3.06396,-3.42521 -3.98007,-4.45035 l -1.66567,-1.8639 -3.54247,0.17293 c -2.23415,0.10905 -3.65985,0.28737 -3.86027,0.48276 -0.25357,0.24719 0.48038,1.58685 3.62963,6.62512 2.17111,3.47343 4.06451,6.45761 4.20755,6.63158 0.51102,0.6214 1.2351,0.28542 4.20835,-1.95278 z m 220.32797,0.41032 c 3.25315,-2.41265 3.97832,-3.1055 3.72096,-3.55525 -0.52505,-0.91755 -32.10529,-35.57742 -32.41627,-35.57742 -0.2108,0 -0.29633,0.15336 -0.21042,0.37725 0.13461,0.35078 21.12105,33.88637 24.10984,38.52665 0.8949,1.3894 1.50258,2.08752 1.81705,2.08752 0.25989,0 1.60036,-0.83646 2.97884,-1.85875 z M 136.26475,591.3899 c 0.5395,-0.5395 28.35589,-36.29397 28.87954,-37.12098 0.39855,-0.62947 0.41381,-0.75197 0.0937,-0.75197 -0.36958,0 -34.87741,30.94799 -35.55235,31.88478 -0.29351,0.40738 -0.21717,0.59295 0.63258,1.53776 1.14476,1.2728 5.11359,4.78552 5.4069,4.78552 0.11246,0 0.35526,-0.1508 0.53958,-0.33511 z m 221.15202,-0.36073 c 0.78051,-0.83883 28.014,-35.82491 28.65822,-36.81637 0.92732,-1.42719 -0.30683,-0.71437 -3.06639,1.77108 -23.76811,21.40716 -31.92131,28.79832 -32.33147,29.30972 l -0.49365,0.61543 1.12623,1.16411 c 1.51479,1.56578 5.00136,4.65187 5.25553,4.65187 0.11225,0 0.49544,-0.31313 0.85153,-0.69584 z m -145.51106,-4.3787 c 2.55212,-2.6757 3.16039,-3.52177 2.94166,-4.0917 -0.0726,-0.18932 -0.77509,-0.8403 -1.56101,-1.44662 l -1.42893,-1.10242 -4.86171,0.30592 c -2.67393,0.16824 -4.9589,0.40205 -5.0777,0.51953 -0.1193,0.11801 -0.1193,0.38238 0,0.59058 0.44931,0.78405 6.96895,7.7691 7.25478,7.77261 0.16454,0.003 1.39436,-1.14455 2.73291,-2.5479 z m 218.73093,2.13262 c 1.01818,-0.66715 5.1738,-5.42286 5.1738,-5.92093 0,-0.30559 -5.97964,-5.10506 -18.02864,-14.47036 -21.41111,-16.64218 -19.84283,-15.45093 -20.18913,-15.33549 -0.41599,0.13866 -0.0294,0.58233 15.18762,17.43091 13.73597,15.20873 16.94021,18.70746 17.13287,18.70746 0.0524,0 0.37798,-0.18522 0.72348,-0.41159 z M 146.38851,569.2968 c 16.52243,-14.9087 18.15156,-16.42048 18.16442,-16.85597 0.0127,-0.43026 -2.31607,0.97891 -21.22259,12.84218 -14.70425,9.22646 -19.7602,12.51989 -19.76148,12.87257 -0.003,0.87049 4.50741,6.73752 5.17979,6.73752 0.19549,0 8.13342,-7.01834 17.63986,-15.5963 z m 219.74808,1.01748 c 8.88651,-8.01836 16.86893,-15.27396 17.73873,-16.12357 1.59287,-1.55591 1.95549,-2.13654 1.13865,-1.82321 -0.24355,0.0934 -9.46661,5.82693 -20.49571,12.74117 -14.97665,9.38898 -20.0529,12.6915 -20.0529,13.04608 0,0.8634 4.50759,6.73835 5.17,6.73835 0.18917,0 7.61472,-6.56047 16.50123,-14.57882 z m -194.6196,8.75905 c 0,-2.39992 -0.0452,-2.65862 -0.47957,-2.74227 -0.41508,-0.0799 -0.45782,0.0165 -0.31776,0.71664 0.089,0.44496 0.0402,1.59249 -0.10835,2.55007 -0.28823,1.85772 -0.18297,2.33514 0.48645,2.20622 0.35845,-0.069 0.41923,-0.46492 0.41923,-2.73066 z m 5.37696,2.38282 c 0.40035,-0.081 0.56933,-0.29547 0.56933,-0.72266 0,-0.66768 -1.20454,-6.418 -1.41611,-6.7603 -0.21786,-0.35253 -0.48554,-0.25746 -2.16422,0.76864 l -1.60686,0.98223 0.0859,2.75001 c 0.0473,1.51254 0.19924,2.88719 0.33772,3.05483 0.2374,0.28737 2.61791,0.2461 4.19421,-0.0728 z m 39.74738,-0.41067 c 0.28249,-0.44618 0.45774,-0.90164 0.38944,-1.01214 -0.18339,-0.29678 -3.07395,-0.24438 -3.26152,0.0591 -0.21204,0.34306 1.32172,1.76422 1.90398,1.76422 0.24994,0 0.68559,-0.36505 0.9681,-0.81122 z m 221.59651,-1.0274 c 1.72073,-2.44384 3.13933,-4.84526 3.13933,-5.31423 0,-0.47057 -42.05282,-22.78169 -42.70246,-22.65581 -0.3649,0.0707 -0.31054,0.20036 0.31936,0.76156 2.13714,1.9041 37.25075,29.04191 37.57547,29.0405 0.20875,0 0.9595,-0.82532 1.6683,-1.83202 z m -254.6008,0.8192 c 0.13322,-0.12882 -0.54142,-2.11288 -1.62789,-4.78747 -1.58513,-3.90215 -1.93356,-4.56748 -2.392,-4.56748 -0.61826,0 -2.91297,1.38394 -2.91297,1.75681 0,0.76781 1.58237,7.50439 1.83393,7.8075 0.23962,0.28871 0.75576,0.32578 2.58542,0.18568 1.2573,-0.0963 2.38841,-0.27404 2.51351,-0.39504 z m 5.57929,-0.15668 c 0.65793,-0.0902 1.25132,-0.30746 1.31863,-0.48284 0.13874,-0.36153 -6.45182,-10.99058 -6.92917,-11.17514 -0.17042,-0.0659 -0.62588,0.12388 -1.01213,0.4217 -0.38628,0.29785 -0.98435,0.75219 -1.32906,1.00966 l -0.62677,0.46813 1.87189,4.64494 c 1.02952,2.55473 1.98024,4.78727 2.11268,4.96123 0.26371,0.34637 2.6104,0.42418 4.59393,0.15232 z m 9.4572,-0.72418 c 0.18423,-0.0674 0.2981,-0.2793 0.25303,-0.471 -0.11473,-0.48787 -11.86251,-13.42448 -12.28404,-13.52717 -0.32892,-0.0801 -2.31536,1.88607 -2.33697,2.31314 -0.0207,0.40771 7.35923,11.94396 7.72258,12.07197 0.40673,0.14329 6.10211,-0.18831 6.6454,-0.38694 z m 9.35639,-0.54427 c 1.59593,-0.13642 1.83702,-0.22022 1.77123,-0.61569 -0.0612,-0.36824 -20.47921,-16.53849 -22.81747,-18.07058 -0.92273,-0.6046 -1.03012,-0.0774 -0.27742,1.36208 0.50222,0.96046 0.61778,1.45972 0.49245,2.1277 -0.16027,0.8543 -0.0225,1.02937 6.50018,8.26724 l 6.66391,7.39442 2.90989,-0.15361 c 1.60043,-0.0845 3.7412,-0.2247 4.75723,-0.31156 z m 10.07387,-0.76437 c 0.5047,-0.19367 2.43615,-3.50638 2.33297,-4.00137 -0.0848,-0.40698 -39.39281,-21.38249 -40.07063,-21.38249 -0.65908,0 -0.63456,0.48787 0.0629,1.25128 0.38679,0.4233 7.59207,6.13087 16.01175,12.68345 l 15.30853,11.91378 2.99559,-0.16263 c 1.64757,-0.0894 3.15907,-0.22535 3.35889,-0.30202 z m 18.95264,-1.72118 c 9.44953,-0.77967 10.92001,-0.91887 12.52138,-1.18534 2.11387,-0.35174 2.66844,-0.62469 2.26265,-1.11365 -0.39433,-0.47514 0.13616,-0.47456 2.16544,0.003 1.98388,0.46629 6.74741,0.31827 7.53612,-0.23418 0.30085,-0.21073 0.7924,-0.38314 1.09232,-0.38314 0.29992,0 0.68706,-0.1708 0.86031,-0.37955 0.17325,-0.20876 0.62279,-0.37955 0.999,-0.37955 0.40245,0 0.92864,-0.2604 1.2783,-0.63259 0.32685,-0.34792 0.79954,-0.63258 1.0504,-0.63258 0.25088,0 0.64265,-0.28466 0.87061,-0.63259 0.22798,-0.34792 0.6262,-0.63258 0.88496,-0.63258 0.25956,0 0.63501,-0.31821 0.83754,-0.70983 0.20189,-0.39041 0.64541,-0.83666 0.98561,-0.99167 0.37335,-0.17011 1.05078,-1.06724 1.70902,-2.26331 2.76555,-5.02514 2.80399,-5.23053 0.99983,-5.34001 -1.57366,-0.0955 -2.90988,0.59427 -2.90988,1.50215 0,0.3707 -0.24312,0.94002 -0.54025,1.26517 -0.29714,0.32518 -0.6147,0.83721 -0.70571,1.13789 -0.091,0.30068 -0.4457,0.73031 -0.78818,0.95472 -0.3425,0.22442 -0.62271,0.56569 -0.62271,0.7584 0,0.48205 -4.13624,3.19497 -5.27451,3.45949 -1.49168,0.34666 -1.76195,0.27515 -1.08658,-0.28749 0.32857,-0.27371 0.82299,-0.49764 1.09875,-0.49764 0.27576,0 0.79091,-0.22773 1.14475,-0.50607 0.35384,-0.27834 0.81343,-0.50607 1.02127,-0.50607 0.49546,0 3.84304,-3.16469 4.40017,-4.15977 1.06231,-1.89739 1.07803,-1.94365 0.80738,-2.3755 -0.35842,-0.57193 -1.20775,-0.66287 -2.04947,-0.21945 -0.3819,0.20116 -1.06441,0.5591 -1.51671,0.79541 -0.59106,0.3088 -0.82235,0.60606 -0.82235,1.05687 0,0.46626 -0.19051,0.69361 -0.74243,0.88599 -0.40832,0.14236 -0.92332,0.53497 -1.14447,0.87246 -0.22115,0.33752 -0.61183,0.61366 -0.86818,0.61366 -0.25638,0 -0.73767,0.21179 -1.06958,0.47062 -0.33187,0.25885 -1.00196,0.55087 -1.48905,0.64893 -1.48955,0.29992 -4.7839,0.38876 -4.94179,0.13327 -0.0818,-0.13254 -0.49412,-0.24084 -0.91626,-0.24084 -0.42214,0 -1.05702,-0.22773 -1.41089,-0.50607 -0.35384,-0.27833 -0.79852,-0.50606 -0.9882,-0.50606 -0.61446,0 -2.81957,-1.76362 -2.9739,-2.37849 -0.0825,-0.32859 -0.37892,-0.65733 -0.65877,-0.73051 -0.29759,-0.0778 -0.50883,-0.34494 -0.50883,-0.64341 0,-0.28067 -0.29301,-0.85855 -0.65113,-1.28415 -0.39425,-0.46854 -0.59518,-0.95037 -0.50933,-1.22131 0.078,-0.24613 -0.003,-0.73218 -0.17854,-1.0801 -0.57907,-1.14356 -0.1751,-5.28929 0.61356,-6.29672 0.25981,-0.33187 0.47241,-0.85133 0.47241,-1.15431 0,-0.31867 0.31996,-0.78744 0.7591,-1.11211 0.41751,-0.30867 0.7591,-0.73106 0.7591,-0.93862 0,-0.20757 0.28307,-0.50637 0.62902,-0.664 0.34597,-0.15764 0.80406,-0.55372 1.01798,-0.8802 0.21391,-0.32647 0.63516,-0.59358 0.93612,-0.59358 0.30093,0 0.81226,-0.24905 1.13627,-0.55343 0.42952,-0.40352 0.99776,-0.58299 2.09772,-0.66256 0.82975,-0.06 1.61803,-0.24094 1.75173,-0.40205 0.15845,-0.19089 0.10989,-0.69764 -0.13937,-1.45479 l -0.38251,-1.16186 -1.41388,-0.14593 c -1.11684,-0.11526 -1.53143,-0.0535 -1.97338,0.29417 -0.30771,0.24205 -1.212,0.66189 -2.00957,0.93299 -0.93263,0.31701 -1.62738,0.74187 -1.94689,1.1906 -0.27325,0.38373 -0.66229,0.69769 -0.86456,0.69769 -0.20225,0 -0.50134,0.2932 -0.66462,0.65156 -0.16326,0.35836 -0.61629,0.81674 -1.00669,1.01863 -0.39041,0.20189 -0.70984,0.47988 -0.70984,0.61774 0,0.13787 -0.52674,1.35899 -1.17056,2.71361 -1.20993,2.54582 -1.26481,2.83306 -1.33186,6.96922 -0.035,2.15898 -0.41865,2.01374 -0.59848,-0.22657 -0.10571,-1.31698 0.0164,-2.29248 0.56551,-4.51234 0.83501,-3.37643 1.21433,-4.16713 2.68478,-5.59624 0.61366,-0.59642 1.11578,-1.24708 1.11578,-1.44591 0,-0.19882 0.30819,-0.50193 0.68491,-0.67357 0.37672,-0.17164 0.83863,-0.53151 1.02648,-0.79972 0.18785,-0.2682 0.62052,-0.48764 0.96148,-0.48764 0.34587,0 0.86304,-0.27964 1.16992,-0.63259 0.33254,-0.38245 0.81988,-0.63258 1.23253,-0.63258 0.37535,0 0.82102,-0.16693 0.99035,-0.37095 0.1693,-0.20402 0.67043,-0.35732 1.11357,-0.34066 1.32582,0.0498 1.83819,-0.38599 2.0209,-1.719 0.0943,-0.68779 0.0542,-1.31654 -0.0954,-1.49684 -0.34762,-0.41884 -2.20369,-0.24328 -4.42358,0.41842 -2.86649,0.85444 -2.96095,0.92629 -3.28184,2.4969 -0.34089,1.66847 -0.67649,2.32311 -1.53852,3.00119 -0.68532,0.53906 -2.40731,1.15534 -3.94679,1.41248 -0.7354,0.12284 -0.95827,0.29434 -1.09592,0.8434 -0.0951,0.37907 -0.39131,0.89291 -0.65837,1.14188 -0.26702,0.24896 -0.48552,0.71895 -0.48552,1.0444 0,0.32546 -0.17079,0.7335 -0.37955,0.90675 -0.20875,0.17325 -0.38317,0.72805 -0.38759,1.23288 -0.005,0.50485 -0.16741,1.12822 -0.3622,1.38531 -0.19476,0.25708 -0.29779,0.61416 -0.22897,0.79354 0.0688,0.17937 -2e-5,1.24034 -0.153,2.35771 -0.24618,1.79801 -0.21893,2.25769 0.23701,3.99849 0.28335,1.08181 0.5152,2.15926 0.5152,2.39435 0,0.23509 0.1708,0.56917 0.37955,0.74243 0.20876,0.17325 0.37955,0.57699 0.37955,0.89718 0,0.32021 0.28467,0.92048 0.63259,1.33396 0.34792,0.41349 0.63258,0.92428 0.63258,1.13511 0,0.21083 0.68319,1.03954 1.5182,1.8416 0.83501,0.80207 1.5182,1.60793 1.5182,1.7908 0,0.18289 0.38934,0.49521 0.86525,0.69404 0.47588,0.19884 0.99227,0.59891 1.14756,0.88901 0.15964,0.29833 0.53344,0.5275 0.86034,0.5275 0.31793,0 0.82557,0.28466 1.12807,0.63258 0.35027,0.40286 0.81649,0.63259 1.28374,0.63259 0.41875,0 0.79622,0.16293 0.87934,0.37955 0.0807,0.21042 0.008,0.37707 -0.1627,0.37398 -0.97997,-0.0177 -6.04724,-3.13751 -6.34152,-3.90441 -0.0836,-0.21778 -0.4398,-0.52712 -0.79164,-0.68744 -0.35182,-0.16029 -0.63967,-0.43471 -0.63967,-0.60983 0,-0.1751 -0.39853,-0.69428 -0.88562,-1.15371 -0.48709,-0.45943 -0.88562,-1.03913 -0.88562,-1.28819 0,-0.24909 -0.22773,-0.64787 -0.50606,-0.88618 -0.27834,-0.23833 -0.50683,-0.66421 -0.50774,-0.94639 0,-0.28221 -0.22791,-0.8547 -0.5044,-1.2722 -0.27651,-0.41751 -0.50348,-1.12653 -0.50439,-1.57562 -0.003,-0.58625 -0.17657,-0.93114 -0.62183,-1.22286 -0.9337,-0.61181 -1.43478,-0.37611 -1.79464,0.84415 -0.17553,0.59513 -0.50106,1.35972 -0.7234,1.69907 -0.2395,0.36553 -0.40604,1.16208 -0.4086,1.95432 -0.003,1.02433 -0.17996,1.63344 -0.75477,2.6025 -0.50017,0.84319 -0.75192,1.6114 -0.7548,2.30314 -0.004,0.99007 -0.12705,1.23614 -1.63741,3.27754 -0.38144,0.51553 -0.93022,3.53771 -0.68663,3.78131 0.18009,0.18008 0.42259,0.1691 5.48643,-0.24873 z m 17.97162,-5.75745 c -0.2249,-0.12588 -0.728,-0.15875 -1.11803,-0.0731 -0.48236,0.10594 -0.81282,0.0308 -1.03344,-0.23504 -0.17839,-0.21496 -0.63663,-0.39081 -1.01833,-0.39081 -0.3817,0 -0.96555,-0.21038 -1.29745,-0.46748 -0.33188,-0.25711 -0.89706,-0.53907 -1.25591,-0.62651 -0.35885,-0.0875 -0.78342,-0.44643 -0.94346,-0.79769 -0.16004,-0.35126 -0.47737,-0.63866 -0.70518,-0.63866 -0.38638,0 -2.38001,-1.94423 -2.38001,-2.32105 0,-0.40683 1.57291,0.66077 1.78138,1.20912 0.1267,0.33322 0.34671,0.60586 0.48891,0.60586 0.14223,0 0.6859,0.37961 1.20819,0.84354 0.54698,0.48593 1.48599,0.98316 2.21478,1.17281 0.69584,0.1811 1.54983,0.51315 1.89775,0.73792 0.34792,0.22475 1.03111,0.43725 1.5182,0.47219 1.88765,0.13547 4.45953,0.1001 5.12392,-0.0705 1.00012,-0.2567 0.88431,0.28996 -0.12651,0.59711 -1.00801,0.3063 -3.79606,0.29491 -4.35481,-0.0177 z m -10.70068,-6.84187 c -0.38745,-0.1771 -0.56933,-0.48051 -0.56933,-0.94971 0,-0.3792 -0.1708,-0.83119 -0.37955,-1.00444 -0.37616,-0.3122 -0.55455,-1.65659 -0.18977,-1.43038 0.26125,0.16204 1.93009,3.44589 1.80711,3.55598 -0.0545,0.0488 -0.35533,-0.0283 -0.66846,-0.17145 z m -101.58709,0.55161 c 10.67796,-6.6936 19.81237,-12.4708 20.29867,-12.83826 0.7256,-0.5482 0.80123,-0.68405 0.42166,-0.75715 -0.59688,-0.11495 -44.38973,17.65756 -44.55207,18.08063 -0.12074,0.31465 1.77561,4.41053 3.04451,6.57573 0.35752,0.61007 0.81266,1.10923 1.01141,1.10923 0.19875,0 9.09787,-5.47658 19.77582,-12.17018 z m 220.88728,-0.003 c 10.68398,-6.69496 19.8233,-12.47217 20.30963,-12.83826 0.72777,-0.54782 0.80201,-0.68142 0.4196,-0.75505 -0.62947,-0.12123 -44.38369,17.64749 -44.55499,18.09391 -0.26991,0.70339 3.39156,7.67206 4.03102,7.67206 0.20314,0 9.11078,-5.4777 19.79474,-12.17266 z m -199.0238,10.67295 c 0.89837,-0.40736 1.76445,-0.89855 1.92465,-1.09159 0.1602,-0.19301 0.57398,-2.3363 0.91952,-4.76284 0.57515,-4.03903 0.59375,-4.43819 0.22022,-4.72277 -0.44119,-0.33608 -1.53637,-0.18393 -2.00833,0.27902 -0.35227,0.34559 -3.37855,9.75682 -3.37855,10.50681 0,0.70644 0.3796,0.67236 2.32249,-0.20858 z m 5.15116,-2.12027 1.50904,-0.58354 0.0658,-1.6305 c 0.0362,-0.89675 -0.0207,-2.71219 -0.12652,-4.03429 l -0.19231,-2.40382 -0.90727,-0.0761 c -0.5273,-0.0442 -1.01563,0.0618 -1.16598,0.25303 -0.31824,0.40483 -1.42888,8.46159 -1.21431,8.80876 0.21351,0.34549 0.32138,0.32778 2.03156,-0.33358 z m 52.66514,-2.19974 c 1.38594,-2.82411 2.29279,-5.48572 1.97333,-5.79174 -0.38084,-0.36487 -43.48036,-14.19791 -44.23629,-14.19791 -0.81955,0 -0.86232,0.369 -0.10023,0.86477 2.0686,1.34568 40.3955,21.39107 40.80164,21.33968 0.35896,-0.0454 0.81287,-0.68921 1.56155,-2.2148 z m 220.5308,0.7591 c 1.16231,-2.35089 2.55149,-6.0142 2.41521,-6.36903 -0.12991,-0.33823 -44.9622,-14.9203 -45.80268,-14.8977 -0.7089,0.019 -0.51588,0.38372 0.50751,0.95889 6.21261,3.49169 41.30754,21.81683 41.68582,21.76665 0.33062,-0.0439 0.74463,-0.54961 1.19414,-1.45881 z M 173.7988,571.82891 c 1.66215,-1.09786 1.65281,-1.05722 0.97,-4.21491 -0.69562,-3.21683 -0.95837,-3.64355 -2.02505,-3.28852 l -0.72069,0.23988 -0.0704,3.29682 c -0.0653,3.0596 0.15129,4.63228 0.63795,4.63228 0.11029,0 0.65399,-0.29949 1.20816,-0.66555 z m 3.9024,-2.64205 c 1.22884,-0.89015 1.22927,-0.9447 0.0282,-3.62167 -0.72267,-1.61071 -0.78512,-1.67386 -1.65515,-1.67386 -0.60523,0 -0.95687,0.13744 -1.06367,0.41573 -0.1856,0.48367 0.63878,4.87358 1.00297,5.34078 0.34901,0.44774 0.48426,0.4108 1.68768,-0.46098 z m -37.37168,-9.49938 c 11.8647,-4.81715 21.89841,-8.92598 22.29711,-9.13074 2.28206,-1.17197 -1.03171,-0.58 -22.88667,4.08831 -12.72218,2.71753 -23.30204,5.04324 -23.51079,5.16824 -0.53383,0.3196 -0.41061,1.19333 0.6438,4.56495 0.8311,2.65758 1.44288,4.06769 1.76476,4.06769 0.0658,0 9.82709,-3.9413 21.69179,-8.75845 z m 220.8803,0 c 11.87456,-4.81763 21.91632,-8.92644 22.31502,-9.13074 2.30415,-1.18065 -1.01274,-0.58683 -23.01483,4.1202 -12.79087,2.73643 -23.4035,5.09346 -23.58366,5.23784 -0.40146,0.32176 -0.28732,0.91676 0.88435,4.60996 0.78917,2.48753 1.41363,3.92202 1.70735,3.92202 0.0559,0 9.81722,-3.94168 21.69177,-8.75928 z m -101.71603,6.99933 c 0.65247,-0.17408 1.39034,-0.54197 1.63968,-0.8175 0.43671,-0.48256 0.4338,-0.53501 -0.0793,-1.42883 -0.79875,-1.39153 -2.14302,-2.05731 -4.16394,-2.06234 -2.36243,-0.006 -3.13689,0.3217 -3.62101,1.53166 -0.21888,0.54698 -0.54448,0.99449 -0.72358,0.99449 -0.17912,0 -1.0592,-0.74012 -1.95574,-1.64471 -0.89658,-0.9046 -1.76901,-1.64472 -1.93877,-1.64472 -0.64314,0 -0.65673,0.60326 -0.0251,1.11727 0.35642,0.2901 0.68924,0.75386 0.73956,1.0306 0.0503,0.27675 0.31791,0.54516 0.59466,0.59651 0.27674,0.0513 0.86011,0.47962 1.29639,0.95178 0.45518,0.49261 1.04824,0.86431 1.39168,0.87221 0.32915,0.008 1.11085,0.215 1.7371,0.46095 1.29197,0.50743 3.30363,0.52421 5.10834,0.0426 z m -79.75321,0.0189 c 0,-0.12212 -0.1708,-0.36379 -0.37955,-0.53704 -0.3171,-0.26318 -0.37955,-0.22665 -0.37955,0.22206 0,0.30867 0.16138,0.53704 0.37955,0.53704 0.20875,0 0.37955,-0.0999 0.37955,-0.22206 z m 83.23581,-1.64363 c 0.12558,-0.33029 0.49281,-0.66887 0.81608,-0.7524 0.6716,-0.17355 1.8724,-2.06948 1.46871,-2.31897 -0.30053,-0.18573 -3.53776,2.88144 -3.53776,3.3519 0,0.57679 1.01327,0.34992 1.25297,-0.28053 z m -37.97944,-0.74706 c 0.3943,-0.47512 1.64834,-5.6347 1.47762,-6.07958 -0.0779,-0.20304 -0.46247,-0.43383 -0.8546,-0.51288 -2.62965,-0.53005 -34.97841,-4.97583 -35.72007,-4.90907 l -0.9236,0.0831 0.74032,0.37345 c 0.72671,0.36657 34.1577,11.29908 34.71662,11.35293 0.15693,0.0152 0.4106,-0.12348 0.56371,-0.30797 z m 220.88386,0.0172 c 0.36862,-0.44418 1.54389,-5.18544 1.73237,-6.98886 0.15574,-1.48999 0.15405,-1.49482 -0.57284,-1.64621 -1.23129,-0.25635 -46.44361,-6.48173 -47.0747,-6.48173 -0.69587,0 -0.7824,0.37112 -0.14921,0.63987 0.72448,0.30748 45.2045,14.74076 45.51505,14.7691 0.1569,0.0144 0.40412,-0.1171 0.54933,-0.29207 z m -195.96082,-3.95527 c 2.39028,-2.07313 1.38273,-7.8722 -1.36775,-7.8722 -1.23169,0 -1.50476,0.2318 -1.50476,1.27731 0,0.53357 -0.10739,1.0365 -0.23866,1.11763 -0.28778,0.17783 -0.28963,3.19191 -0.003,3.55456 0.11171,0.14094 0.24007,0.70576 0.28521,1.25517 0.0677,0.8238 0.19302,1.02587 0.71472,1.15262 0.80404,0.19537 1.51777,0.0315 2.11341,-0.48509 z m -110.8925,-6.2329 c 12.67985,-2.71677 23.29841,-5.07081 23.59684,-5.2312 0.54073,-0.29065 0.54043,-0.29217 -0.09,-0.45406 -0.67289,-0.17278 -46.51645,1.4277 -47.54393,1.65985 -0.60059,0.13571 -0.6047,0.15838 -0.44237,2.44524 0.25763,3.62951 0.83794,6.51974 1.30907,6.51974 0.0639,0 10.49058,-2.2228 23.17042,-4.93957 z m 220.89821,0 c 12.67986,-2.71677 23.29844,-5.07081 23.59684,-5.2312 0.54073,-0.29065 0.54043,-0.29217 -0.09,-0.45405 -0.486,-0.12479 -38.48854,1.15529 -46.43164,1.56402 l -1.5182,0.0781 -0.0772,1.2032 c -0.15161,2.36386 0.80339,7.77949 1.37188,7.77949 0.0517,0 10.4685,-2.2228 23.14833,-4.93957 z m 88.02285,0.52049 c 0.19841,-0.23904 0.35741,-1.80802 0.4481,-4.42161 0.11655,-3.35825 0.0792,-4.07464 -0.21852,-4.18887 -0.47221,-0.18121 -47.99033,1.57915 -48.33235,1.79052 -0.16903,0.10447 -0.17589,0.25002 -0.0192,0.40675 0.20126,0.20126 45.55242,6.68664 47.27609,6.76063 0.29607,0.0127 0.67671,-0.14363 0.84584,-0.34742 z m -163.20812,-1.00315 c -0.80708,-0.78747 -7.52322,-3.18081 -8.92619,-3.18081 -0.71793,0 -0.74055,0.0352 -0.59584,0.92704 0.0827,0.50986 0.24532,1.02193 0.36131,1.13789 0.33618,0.33618 6.36381,1.42901 8.02207,1.45441 1.31205,0.0202 1.46076,-0.024 1.13865,-0.33843 z m -11.0144,-1.4034 c 0.49094,-0.18666 0.64906,-0.42568 0.64906,-0.98116 0,-1.02706 -0.50384,-1.34019 -2.40136,-1.49252 -1.61742,-0.12983 -1.64718,-0.12095 -1.64718,0.49091 0,0.6861 0.79038,1.55408 1.77137,1.94525 0.82094,0.32737 0.86317,0.32833 1.62811,0.0375 z m -34.81773,-0.89407 c 0.0464,-0.41629 0.24436,-0.93518 0.43982,-1.15307 0.19545,-0.21789 0.42829,-0.78721 0.51743,-1.26517 0.0891,-0.47796 0.39294,-1.05371 0.6751,-1.27945 0.31515,-0.25213 0.45204,-0.56931 0.35493,-0.82236 -0.23138,-0.60299 -2.34621,-0.57495 -2.67287,0.0354 -0.30627,0.57228 -0.65093,4.45877 -0.44337,4.99965 0.26116,0.68056 1.03498,0.32753 1.12896,-0.51505 z m 10.88783,-0.75606 c 0.82843,-0.94354 0.94941,-1.26651 0.56361,-1.50494 -0.37115,-0.22939 -1.03496,0.13226 -1.03496,0.56386 0,0.21852 -0.36083,0.69852 -0.80179,1.06666 -0.47836,0.39936 -0.72734,0.78982 -0.61722,0.96798 0.25255,0.40867 0.90047,0.0339 1.89036,-1.09356 z m 19.81781,0.25217 c -0.044,-0.55667 -0.18464,-1.11861 -0.31252,-1.24874 -0.27589,-0.28077 -3.09506,-0.51973 -3.6444,-0.30893 -0.46914,0.18003 -0.23519,0.92509 0.29049,0.92509 0.20594,0 0.50131,0.33608 0.65637,0.74685 0.28661,0.7593 0.90983,0.99409 2.45751,0.92578 0.57891,-0.0255 0.62577,-0.11377 0.55255,-1.04005 z m -42.45029,0.47899 c 0.32776,-0.12578 0.40025,-0.60831 0.40025,-2.66479 0,-1.80415 -0.091,-2.54612 -0.3232,-2.63522 -0.46419,-0.17812 -32.5438,1.04034 -32.74729,1.24382 -0.0933,0.0933 -0.0634,0.27545 0.0665,0.40473 0.1299,0.12927 7.23888,1.02544 15.79773,1.99149 17.77803,2.0066 16.2866,1.85929 16.80603,1.65997 z m 38.6083,0.0121 c 0,-0.39943 -1.94112,-2.38876 -2.33089,-2.38876 -0.70133,0 -0.53899,0.55827 0.46199,1.58885 0.7782,0.8012 1.8689,1.26803 1.8689,0.79991 z m -6.50306,-0.77456 c 2.05344,-1.03981 2.22566,-1.86204 0.54564,-2.60519 -0.63238,-0.27973 -1.49335,-0.75324 -1.91326,-1.05225 -0.68316,-0.48644 -0.96193,-0.52505 -2.64961,-0.3669 -1.07891,0.10111 -2.04059,0.33124 -2.24709,0.53773 -0.19856,0.19854 -0.70192,0.42917 -1.11861,0.51251 -0.74341,0.14868 -1.1777,0.68419 -0.90834,1.12003 0.0763,0.12349 0.41796,0.11345 0.77641,-0.0228 0.83665,-0.3181 0.74025,-0.36191 1.30319,0.59223 0.27115,0.45956 0.88021,1.0263 1.35343,1.2594 1.13187,0.55753 3.77991,0.57132 4.85824,0.0253 z M 140.6469,548.44088 c 11.82931,-0.41712 21.73558,-0.85658 22.01392,-0.97659 0.48279,-0.20816 0.47697,-0.22964 -0.12652,-0.46734 -0.86628,-0.34121 -46.99566,-6.71819 -47.41991,-6.55539 -0.44173,0.1695 -0.59599,1.1291 -0.80253,4.99206 -0.21696,4.05782 -0.19258,4.09229 2.75782,3.90031 1.13816,-0.0741 11.7479,-0.47593 23.57722,-0.89305 z m 220.89822,-0.004 c 11.82931,-0.41862 21.65017,-0.80973 21.82413,-0.86915 0.5047,-0.17236 0.36662,-0.5627 -0.25303,-0.71536 -0.71161,-0.17533 -46.30854,-6.49349 -46.86215,-6.49349 -0.64,0 -0.84607,0.94454 -1.04012,4.76751 -0.13722,2.70338 -0.10463,3.66474 0.13406,3.95233 0.25262,0.3044 0.75042,0.35407 2.50232,0.24964 1.20282,-0.0717 11.86547,-0.47288 23.69479,-0.89149 z m 62.75229,-2.2658 c 12.24682,-0.4294 22.64301,-0.83737 23.10262,-0.9066 0.45961,-0.0692 0.90484,-0.30618 0.98941,-0.52655 0.19486,-0.5078 -0.63205,-7.34712 -0.9631,-7.96568 -0.13595,-0.25404 -0.46644,-0.46189 -0.7344,-0.46189 -0.55334,0 -46.58167,9.85231 -46.87486,10.03351 -0.5221,0.32268 -0.0644,0.59463 1.01148,0.60091 0.66105,0.004 11.22203,-0.3443 23.46885,-0.7737 z m -217.98832,-0.11969 c 9.53303,-0.3486 17.73132,-0.66184 18.21841,-0.69609 1.90428,-0.13388 0.89637,-0.73311 -3.92202,-2.33172 -2.6442,-0.87727 -5.8261,-2.00651 -7.07087,-2.50942 -1.24475,-0.50291 -2.55419,-0.91377 -2.90988,-0.91303 -1.07684,0.002 -28.62704,5.99043 -28.92324,6.28664 -0.50708,0.50706 0.84725,0.76435 4.11189,0.78115 1.7396,0.009 10.96267,-0.26894 20.49571,-0.61753 z m -43.26872,-0.13868 c 0,-0.14627 -0.37006,-0.42022 -0.82236,-0.60877 -0.4523,-0.18856 -10.77718,-3.55532 -22.94417,-7.4817 -20.38702,-6.57904 -22.14683,-7.10462 -22.4411,-6.70219 -0.34145,0.46695 -1.50433,5.06617 -1.76878,6.99555 -0.10962,0.79979 -0.0619,1.22477 0.15222,1.35714 0.30133,0.18623 45.72024,6.62224 47.12835,6.67824 0.38271,0.0152 0.69584,-0.092 0.69584,-0.23827 z m 220.76385,0.0256 c 0.0817,-0.13219 -0.0539,-0.34837 -0.30137,-0.4804 -0.24744,-0.13203 -10.5692,-3.50738 -22.93725,-7.50077 -18.70535,-6.03959 -22.54197,-7.20355 -22.81208,-6.92084 -0.34026,0.35612 -1.15237,3.43878 -1.67425,6.35523 -0.22193,1.24031 -0.23021,1.79023 -0.0299,1.9905 0.2213,0.22132 45.01832,6.66546 47.05195,6.76852 0.3049,0.0155 0.62122,-0.0801 0.70293,-0.21224 z M 194.29,542.30951 c 9.63215,-2.06797 14.42291,-3.20063 14.42291,-3.40993 0,-0.3119 -5.72175,-3.60103 -6.26433,-3.60103 -0.25956,0 -14.72277,5.80583 -21.25306,8.53141 -2.73314,1.14074 -3.31512,1.59584 -2.02427,1.583 0.38272,-0.004 7.18615,-1.40035 15.11875,-3.10345 z m 228.93202,-1.70892 c 12.42078,-2.65061 22.83943,-4.92547 23.15256,-5.05524 0.74354,-0.30815 0.73218,-0.97741 -0.0634,-3.74166 -1.03022,-3.57945 -1.52878,-4.71931 -2.1024,-4.80681 -0.41025,-0.0626 -30.39949,11.91824 -42.11504,16.82511 -2.69564,1.12903 -3.30819,1.59789 -2.08753,1.59789 0.34792,0 10.79504,-2.16868 23.21582,-4.81929 z m -260.06217,3.5792 c -0.78597,-0.75752 -42.12984,-22.52656 -42.50741,-22.38168 -0.31379,0.12042 -1.97544,3.67678 -3.03379,6.49312 -0.39601,1.05377 -0.4088,1.26453 -0.0958,1.57754 0.41763,0.41763 44.57036,14.75336 45.51048,14.77657 0.62097,0.0153 0.62191,0.0119 0.12652,-0.46555 z m 220.89821,0.004 c -0.76884,-0.7347 -42.1452,-22.52476 -42.5075,-22.38574 -0.50244,0.19281 -3.41104,6.8318 -3.41104,7.78584 0,0.19069 0.19927,0.42868 0.44281,0.52886 1.65066,0.67902 44.85061,14.52565 45.34921,14.53553 0.62059,0.0123 0.6216,0.009 0.12652,-0.46449 z m -193.8106,-4.75755 c 6.306,-2.55812 11.00096,-4.59856 11.00096,-4.78107 0,-0.40558 -2.978,-3.39746 -3.37294,-3.38866 -0.49225,0.011 -19.73762,12.23849 -19.8592,12.61753 -0.1796,0.55986 0.46164,0.32668 12.23118,-4.4478 z m 231.66742,-4.38214 c 12.01258,-4.87445 21.92046,-8.99112 22.0175,-9.14815 0.24825,-0.40169 -0.0669,-1.17729 -1.88586,-4.64086 -1.37766,-2.62328 -1.67799,-3.03474 -2.20736,-3.02416 -0.48762,0.01 -35.21593,21.51788 -39.89622,24.70876 -1.18882,0.8105 -1.41919,1.35608 -0.47226,1.11841 0.33173,-0.0833 10.43161,-4.13956 22.4442,-9.014 z m -258.01293,7.81742 c -0.91953,-1.01864 -37.50133,-29.32395 -37.89832,-29.32395 -0.72652,0 -4.84837,6.36865 -4.66991,7.21544 0.0935,0.44385 41.8045,22.62295 42.56823,22.63494 0.47401,0.007 0.47401,-0.001 0,-0.52643 z m 220.99309,0.2177 c -0.18853,-0.60958 -37.49786,-29.52465 -38.02371,-29.46873 -0.8217,0.0874 -4.78044,6.12255 -4.63294,7.063 0.0567,0.36154 5.44892,3.32894 21.07796,11.59942 11.55098,6.11249 21.1536,11.11563 21.33915,11.11811 0.18557,0.003 0.29336,-0.13784 0.23954,-0.3118 z m -197.05739,-6.46947 9.99482,-6.27026 0.13403,-2.01187 c 0.10321,-1.54918 0.32143,-2.41119 0.94888,-3.74825 0.93794,-1.99871 0.92175,-1.9326 0.47294,-1.9326 -0.49369,0 -22.17808,19.55874 -22.17808,20.00404 0,0.13125 0.14233,0.23652 0.31629,0.23392 0.17397,-0.003 4.81397,-2.82633 10.31112,-6.27498 z m 231.14606,-6.44209 c 14.74618,-9.25745 20.26178,-12.84549 20.31302,-13.21414 0.0703,-0.50625 -3.28784,-5.21705 -4.56331,-6.40132 l -0.62633,-0.58155 -0.85632,0.70663 c -1.38955,1.14667 -32.09823,28.86334 -33.68738,30.40517 -1.4703,1.4265 -1.71453,1.81263 -1.13865,1.80014 0.17396,-0.004 9.4255,-5.72549 20.55897,-12.71493 z m -253.91907,11.98663 c 0,-0.35613 -0.67656,-1.1189 -16.91618,-19.07196 -8.39929,-9.2855 -15.42798,-16.88273 -15.61931,-16.88273 -0.39198,0 -2.27769,1.83395 -4.51964,4.3956 -1.22078,1.39486 -1.45379,1.79787 -1.23765,2.1406 0.31757,0.50357 37.73628,29.64758 38.06525,29.64758 0.12512,0 0.22753,-0.10309 0.22753,-0.22909 z m 220.8982,-0.003 c 0,-0.3375 -0.67357,-1.09577 -17.17952,-19.33998 -8.26582,-9.13628 -15.20947,-16.61142 -15.43031,-16.61142 -0.4103,0 -2.45992,2.02871 -4.69805,4.65009 -0.99877,1.1698 -1.19832,1.5497 -0.99096,1.88655 0.31533,0.51224 37.71479,29.64714 38.057,29.64714 0.13302,0 0.24184,-0.10457 0.24184,-0.23237 z m 13.07409,-1.60211 c 8.12875,-7.08852 34.24317,-30.98285 34.24317,-31.33202 0,-0.56366 -5.2034,-5.51028 -6.00904,-5.71248 -0.33377,-0.0838 -0.69637,-0.0525 -0.80576,0.0695 -0.15566,0.17363 -19.09618,24.51189 -27.76915,35.68289 -2.30974,2.97502 -2.175,3.48591 0.34078,1.29207 z m -232.96094,0.50607 c 0,-0.46171 -25.14795,-40.47573 -25.62683,-40.7778 -0.45593,-0.2876 -1.66731,0.47162 -5.06464,3.17421 -1.36595,1.08662 -1.94981,1.71245 -1.89775,2.03414 0.083,0.51314 31.97343,35.88574 32.35301,35.88574 0.13034,0 0.23664,-0.14233 0.23621,-0.31629 z m 220.84099,-0.12652 c -0.20121,-0.76148 -25.30076,-40.58576 -25.66837,-40.72683 -0.66745,-0.25612 -6.91495,4.44567 -6.91495,5.20409 0,0.48074 31.98842,35.96555 32.42179,35.96555 0.15321,0 0.22591,-0.19927 0.16153,-0.44281 z m 24.34633,-18.93226 c 8.07336,-10.3635 14.67882,-19.06288 14.67882,-19.33198 0,-0.34262 -0.85313,-1.05586 -2.84663,-2.37984 -3.60582,-2.39481 -4.13843,-2.64455 -4.61404,-2.16345 -0.34544,0.34944 -21.98493,41.05235 -22.40826,42.14893 -0.22001,0.56993 -0.0689,0.92764 0.29643,0.70183 0.11817,-0.073 6.82031,-8.612 14.89368,-18.97549 z m -244.03359,17.95028 c -0.0919,-0.36612 -4.16235,-10.50011 -9.04544,-22.51998 -8.25668,-20.324 -8.92035,-21.85429 -9.47795,-21.85429 -0.64313,0 -6.2006,2.76421 -6.98539,3.47443 -0.25993,0.23523 -0.42535,0.60297 -0.3676,0.81719 0.0963,0.35725 24.71222,39.71017 25.29093,40.43205 0.43768,0.54597 0.76163,0.35263 0.58545,-0.3494 z m 221.01043,0.38144 c 0,-0.15633 -4.06276,-10.29032 -9.02836,-22.51997 -8.37238,-20.62012 -9.07161,-22.23574 -9.62368,-22.23574 -0.64278,0 -2.03484,0.64739 -5.34171,2.48418 -1.71435,0.95224 -2.08778,1.26553 -2.00653,1.68346 0.0823,0.42365 23.45838,37.93229 25.03867,40.17648 0.5047,0.71671 0.96161,0.91228 0.96161,0.41159 z m 7.03063,-0.28508 c 0.14337,-0.17396 5.28716,-9.80521 11.43066,-21.40278 8.84334,-16.69432 11.10928,-21.15961 10.87862,-21.43755 -0.34916,-0.42071 -2.33639,-1.36201 -5.40146,-2.55853 -1.88671,-0.73652 -2.30559,-0.82344 -2.59129,-0.53772 -0.18744,0.18744 -1.24249,3.12746 -2.34453,6.53337 -8.69997,26.88743 -12.6768,39.27214 -12.6768,39.47821 0,0.34147 0.3963,0.2993 0.7048,-0.075 z M 163.6896,515.93815 c -2.71816,-12.64776 -5.09227,-23.1461 -5.27582,-23.32964 -0.27624,-0.27625 -0.78886,-0.20275 -2.9775,0.42694 -4.01689,1.15571 -5.16184,1.64328 -5.25233,2.23669 -0.0807,0.52944 17.12747,43.20038 17.87645,44.32797 l 0.42019,0.63259 0.0755,-0.64931 c 0.0416,-0.35713 -2.14835,-10.99748 -4.86654,-23.64524 z m 220.89163,0.0929 c -2.72444,-12.70877 -5.10123,-23.25458 -5.28179,-23.43514 -0.26903,-0.26902 -0.8734,-0.17047 -3.34804,0.54594 -3.25452,0.94218 -4.79734,1.52514 -5.02922,1.90033 -0.16265,0.26319 17.3502,43.55525 18.02494,44.55789 0.41806,0.62124 0.42715,0.62277 0.50668,0.0852 0.0445,-0.30105 -2.14813,-10.94546 -4.87257,-23.65423 z m -215.18577,0.36726 c -0.4416,-12.63726 -0.88504,-23.48923 -0.98542,-24.11549 -0.18124,-1.13085 -0.19005,-1.13919 -1.28523,-1.2178 -1.00087,-0.0718 -6.11038,0.54416 -7.1841,0.8661 -0.26607,0.0798 -0.44281,0.38174 -0.44281,0.75649 0,0.69563 9.46783,45.03279 9.90117,46.36643 0.78831,2.42609 0.78793,-0.005 -0.004,-22.65573 z m 5.56109,-0.81351 c 2.19975,-15.84729 3.22767,-23.9474 3.06029,-24.1148 -0.13864,-0.13863 -2.03239,-0.37396 -4.20833,-0.52294 -3.45456,-0.23653 -4.00529,-0.22184 -4.34294,0.11581 -0.34691,0.3469 -0.29569,2.85057 0.49767,24.32982 0.4864,13.16873 0.96244,24.06945 1.05783,24.22383 0.10116,0.16365 0.26723,0.18694 0.39833,0.0558 0.12365,-0.12366 1.71538,-10.96307 3.53715,-24.08757 z m -1.77027,23.57247 c 0.14577,-0.38272 3.51949,-10.76162 7.49715,-23.06424 6.49603,-20.09185 7.19,-22.39915 6.81867,-22.67066 -0.4439,-0.32459 -5.09285,-1.498 -7.05852,-1.78159 -1.09488,-0.15797 -1.2156,-0.12248 -1.44449,0.42461 -0.24309,0.58103 -6.60147,46.08346 -6.59815,47.21839 0.003,0.78817 0.4653,0.71358 0.78534,-0.12651 z m 217.10149,-22.11639 c -0.43388,-12.29483 -0.87284,-23.1513 -0.97545,-24.12548 l -0.18656,-1.77123 -1.10274,-0.0791 c -1.00088,-0.0718 -6.11036,0.54416 -7.1841,0.8661 -0.27933,0.0838 -0.4422,0.38338 -0.44117,0.81156 0.003,0.76601 9.77038,46.49689 10.0176,46.8969 0.63084,1.02071 0.61651,-1.51306 -0.12758,-22.5987 z m 5.56544,-1.63824 c 2.08806,-15.03233 3.20409,-23.79038 3.05106,-23.94341 -0.13269,-0.13271 -2.02159,-0.36319 -4.19755,-0.51217 -3.48979,-0.23894 -4.00294,-0.22419 -4.3522,0.12508 -0.35926,0.35926 -0.31455,2.6121 0.48241,24.30516 0.48311,13.15005 0.96623,24.0513 1.07357,24.22499 0.14843,0.24016 0.24969,0.21839 0.42277,-0.0909 0.12517,-0.22367 1.70914,-11.07262 3.51994,-24.10879 z m 5.47904,1.40367 c 4.06938,-12.58333 7.35072,-23.01028 7.29189,-23.171 -0.13578,-0.37095 -2.05048,-0.94177 -5.52729,-1.64782 -2.35948,-0.47916 -2.77426,-0.50526 -3.06259,-0.1927 -0.29936,0.32454 -6.7608,45.86636 -6.74068,47.51008 0.004,0.35758 0.13196,0.54896 0.32353,0.48531 0.17396,-0.0578 3.64578,-10.40055 7.71514,-22.98387 z M 175.74824,537.133 c 0.36131,-0.38272 5.29197,-9.44715 10.95698,-20.14319 11.81945,-22.31617 10.9232,-19.66745 7.20523,-21.29398 -3.57693,-1.56482 -4.85875,-1.9532 -5.22205,-1.58226 -0.36989,0.37768 -14.00849,42.43137 -14.00849,43.19423 0,0.70224 0.28421,0.65574 1.06833,-0.1748 z m 70.4387,0.34215 c 0.0746,-0.19453 -0.37783,-2.21563 -1.00553,-4.49134 -0.6277,-2.27571 -2.05496,-7.66747 -3.17173,-11.9817 -2.93455,-11.33671 -3.103,-11.87799 -3.72457,-11.96827 -0.58026,-0.0843 -3.60432,2.94977 -6.23002,6.25059 -1.63659,2.05739 -1.72824,2.64141 -0.58129,3.70436 0.63959,0.59275 0.72527,0.81275 1.14862,2.94941 0.15716,0.79319 0.58043,1.87491 0.94057,2.40382 0.87193,1.28045 1.23954,2.22341 1.45872,3.7417 0.1002,0.69401 0.34195,1.57081 0.53724,1.94844 0.19526,0.37764 0.35505,1.01925 0.35505,1.42581 0,0.89249 2.22533,4.41652 3.08286,4.88204 2.06288,1.11984 6.90273,1.88394 7.19008,1.13514 z m 10.419,-0.97474 c 0.79519,-2.09314 2.78302,-5.67306 5.0382,-9.0734 1.25606,-1.89388 2.34987,-3.71572 2.43069,-4.04854 0.23988,-0.98778 1.39948,-8.69968 1.84117,-12.24466 0.61887,-4.96699 0.76862,-15.92885 0.26931,-19.71609 -0.2187,-1.65873 -0.51272,-3.13098 -0.65341,-3.27167 -0.35245,-0.35244 -0.9487,0.002 -3.80848,2.26055 -1.3221,1.0444 -5.2941,4.02876 -8.82664,6.63193 -3.53255,2.60317 -6.87566,5.13291 -7.42914,5.62163 l -1.00634,0.88858 2.40946,8.72669 c 2.80353,10.15386 4.33707,15.88339 5.61939,20.99475 0.50571,2.01571 1.03908,3.80909 1.18531,3.98528 0.14623,0.17619 0.7735,0.32035 1.39391,0.32035 1.0943,0 1.14022,-0.0321 1.53657,-1.0754 z m -66.45807,-6.82095 c 2.79232,-2.4043 12.46933,-11.11959 13.7574,-12.39019 0.55668,-0.54913 2.69164,-2.4842 4.74438,-4.30016 2.05273,-1.81596 3.73224,-3.48135 3.73224,-3.70087 0,-0.53991 -0.99961,-1.57038 -1.52333,-1.57038 -0.37614,0 -21.43796,21.35249 -22.77502,23.0893 -0.92033,1.19553 -0.13668,0.76743 2.06433,-1.1277 z m 2.68719,-12.68328 c 6.58942,-7.76366 11.95583,-14.30108 11.95583,-14.56474 0,-0.32959 -0.8487,-1.03178 -2.72861,-2.25757 -3.53083,-2.30228 -4.01539,-2.52485 -4.46959,-2.0529 -0.48734,0.50639 -17.34605,32.41515 -17.34605,32.83116 0,0.18701 0.14234,0.29285 0.3163,0.23521 0.17396,-0.0576 5.69641,-6.44366 12.27212,-14.19116 z m 19.13482,-4.46558 c 1.93522,-1.26333 2.24266,-1.7081 1.56782,-2.26817 -0.29436,-0.24427 -0.70627,-5.1e-4 -2.19309,1.29784 -2.92254,2.55203 -2.58945,3.06892 0.62527,0.97033 z m 77.48674,-6.26768 c 3.31342,-4.14026 11.19582,-13.72125 17.51644,-21.29109 9.36824,-11.21978 17.88134,-21.61585 20.89834,-25.52076 0.61548,-0.79662 0.28782,-1.42232 -0.80207,-1.53167 -0.78488,-0.0788 -13.09567,2.69033 -24.97033,5.61661 -4.34228,1.07006 -6.66487,1.75764 -6.86588,2.03255 -0.35766,0.48911 -1.55851,4.84153 -2.51859,9.12843 -1.7723,7.91359 -2.88393,11.96059 -5.21267,18.97751 -2.91004,8.76834 -3.85545,12.25191 -4.43775,16.35178 -0.40195,2.82994 -0.3689,3.76438 0.13317,3.76438 0.12922,0 2.94592,-3.38748 6.25934,-7.52774 z M 224.2108,500.0636 c 4.22483,-5.90586 6.40835,-9.50491 6.64365,-10.95054 0.12067,-0.74156 0.39754,-1.87288 0.61522,-2.51405 0.21769,-0.64118 0.3958,-1.42113 0.3958,-1.73322 0,-0.69065 -0.66381,-1.69218 -1.12157,-1.69218 -0.18355,0 -2.77072,2.5335 -5.74925,5.63 -6.81966,7.08979 -8.31119,8.76497 -8.31119,9.33452 0,0.25046 0.33142,0.70042 0.73651,0.99991 0.4051,0.29949 0.9222,1.03074 1.14917,1.62501 0.34327,0.89885 0.6129,1.16669 1.60403,1.59334 0.65528,0.28208 1.37362,0.52209 1.59634,0.53335 0.23866,0.0121 1.24108,-1.14837 2.44129,-2.82614 z m 19.54461,-31.02819 c 4.33221,-1.05657 7.2969,-1.90381 7.55097,-2.15789 0.38907,-0.38906 0.36915,-0.51226 -0.28511,-1.76188 -1.53369,-2.9293 -3.88794,-5.18523 -9.79356,-9.38459 -2.01794,-1.43491 -5.60469,-4.15926 -7.97056,-6.05411 -3.66822,-2.93794 -5.18718,-3.90954 -5.18718,-3.31798 0,0.0705 1.01527,3.62881 2.25617,7.90729 1.24093,4.27849 2.44124,8.43919 2.66743,9.246 0.22689,0.8095 0.59101,1.53594 0.81241,1.62089 0.22065,0.0847 1.19171,-0.10064 2.1579,-0.41182 2.24552,-0.72322 2.57747,-0.61005 2.35759,0.80377 -0.28963,1.86247 -0.34491,1.93518 -1.7912,2.35563 -1.16451,0.33853 -1.37537,0.49154 -1.37537,0.99799 0,1.01139 0.45764,1.89626 0.98071,1.89626 0.26794,0 3.69685,-0.7828 7.6198,-1.73956 z m 110.69591,-12.31212 c 5.91122,-1.53967 9.70295,-7.25492 8.77548,-13.22716 -0.51601,-3.32277 -1.40145,-4.81708 -4.82666,-8.14584 -1.64682,-1.60044 -3.18415,-3.21159 -3.41631,-3.58034 -0.30356,-0.4822 -0.72051,-0.71904 -1.485,-0.84349 -2.5753,-0.41926 -3.2406,-0.31053 -5.74836,0.93945 -3.1193,1.55477 -6.61865,3.42363 -7.00969,3.74356 -0.236,0.19309 -0.0948,0.71333 0.60007,2.21071 1.62197,3.49524 3.601,8.3797 5.54887,13.69517 1.04908,2.86278 2.04294,5.29124 2.2086,5.39656 0.52113,0.33135 3.80036,0.2158 5.353,-0.18862 z m -37.05973,-5.92154 c 9.505,-2.35684 17.36017,-4.41191 17.45589,-4.56682 0.45657,-0.73873 -0.95467,-8.20289 -2.32803,-12.31328 -0.69711,-2.08644 -0.9738,-3.28478 -0.86161,-3.73176 0.21128,-0.84183 1.73981,-1.85279 3.13461,-2.07321 2.00665,-0.31712 1.65678,-0.73548 -1.46056,-1.74645 -4.91472,-1.59387 -14.16517,-5.67699 -14.96471,-6.60537 -0.94467,-1.09693 -7.89406,-11.66262 -10.21964,-15.53769 -1.37807,-2.29627 -3.8311,-6.79394 -5.45117,-9.99482 l -2.94559,-5.81977 -1.16811,0.0404 c -2.33451,0.0807 -5.71511,1.52309 -12.89501,5.50177 -7.0981,3.93335 -10.40114,4.99689 -15.74066,5.06824 l -3.54246,0.0473 -1.89775,1.09471 c -5.85517,3.37752 -7.1464,4.18088 -7.28016,4.52944 -0.29508,0.76899 4.57639,4.60982 12.08779,9.5304 15.99379,10.47727 19.35529,12.93158 23.90873,17.45642 2.82557,2.80782 5.1864,5.98026 6.18641,8.31319 0.28831,0.67258 0.71513,2.19465 0.9485,3.38237 0.36826,1.87434 0.38332,2.48789 0.11391,4.64662 -0.17072,1.36793 -0.58304,3.42492 -0.91626,4.5711 -0.63999,2.20131 -0.62828,2.49232 0.10028,2.49232 0.24959,0 8.2306,-1.92832 17.7356,-4.28515 z m 45.4945,-17.86878 c 1.09738,-1.27579 0.76692,-1.48666 -2.60887,-1.66467 -1.66853,-0.088 -3.1342,-0.0672 -3.25705,0.0462 -0.4382,0.40457 0.0818,0.95243 1.65911,1.7479 1.95464,0.98577 3.28266,0.94489 4.20681,-0.12948 z"
       id="path4201"
       inkscape:connector-curvature="0" />
  </g>
</svg>
