<?xml version="1.0" encoding="utf-8"?>

<!DOCTYPE svg PUBLIC "-//W3C//DTD SVG 1.1//EN" "http://www.w3.org/Graphics/SVG/1.1/DTD/svg11.dtd">
<svg version="1.1" id="Layer_1" xmlns="http://www.w3.org/2000/svg" xmlns:xlink="http://www.w3.org/1999/xlink" x="0px" y="0px"
	 viewBox="0 0 1562.894 1670.531" enable-background="new 0 0 1562.894 1670.531" xml:space="preserve">
<g>
	<path d="M1528.853,399.255c-0.241-5.155-4.889-7.455-10.361-7.417c-52.344,0.359-68.823-3.676-79.6,13.272
		c-3.958,6.224-9.528,7.728-16.555,6.781c-43.611-5.876-96.588-18.698-101.112-22.105c-3.835-2.888-7.397-5.792-5.929-10.113
		c4.081-12.012,7.414-9.09,30.14-9.512c6.182-0.115,12.802,0.985,18.461-0.835c20.933-6.734,42.274-13.11,60.457-25.918
		c9.284-6.54,20.297-11.497,26.769-21.357c8.73-13.3,14.006-18.943-1.936-31.694c-16.685-13.345-6.035-18.471-29.245-39.897
		c-10.276-9.486-12.087-25.081-6.218-31.009c8.017-8.097,15.886-15.99,27.235-20.479c26.694-10.558,51.052-24.753,67.335-49.921
		c4.237-6.548,4.215-12.826,3.365-19.694c-0.906-7.312-9.778-9.95-13.44-1.456c-8.388,19.454-35.344,46.483-61.627,54.708
		c-29.091,9.104-61.483,47.188-42.354,70.331c19.83,23.991,7.719,34.865,25.717,49.291c30.679,24.589-37.648,28.782-85.415,50.611
		c-12.385,5.66-26.86,5.463-37.783,15.779c-6.775,6.399-24.264-1.753-8.019-26.631c6.105-9.349-0.43-22.808-9.729-16.814
		c-24.307,15.666-16.524,6.752-34.328,39.719c-5.048,9.348-10.889,10.661-16.964,2.872c-43.298-55.512-56.606-47.329-37.812-62.185
		c1.949-1.541,3.899-2.523,4.982-5.108c1.946-4.644-0.107-8.95-3.629-9.379c-17.89-2.183-5.572-20.466-12.847-21.881
		c-2.514-0.489-5-0.383-6.992,1.878c-4.223,4.794-9.657,8.263-13.689,13.41c-6.029,7.697-24.619,16.655-33.281-22.922
		c-9.868-45.082,28.432-45.217,41.397-58.007c15.833-15.618,23.926,4.463,43.801-18.59c2.695-3.126,3.739-6.587,2.537-10.063
		c-2.186-6.322-14.91,1.705-17.341-3.872c-1.338-3.067,2.562-4.693,4.545-6.667c16.602-16.534-8.904-16.664-7.012-24.74
		c0.566-2.416,3.299-2.41,5.347-3.008c29.828-8.717,13.829-51.859-3.755-37.11c-17.726,14.867-27.171,7.4-33.354-8.471
		c-5.614-14.411-11.969-28.705-26.14-38.115c-60.213-39.987-108.026-1.436-128.455,10.544c-0.05-0.001-0.336-0.007-0.336-0.007
		c-23.868,15.858-29.107,23.036-36.971,2.913c-1.706-4.366-5.388-2.948-7.936-4.403c-3.252-1.856-3.962,2.419-4.638,4.401
		c-2.3,6.74-4.899,13.24-0.291,20.633c3.17,5.086,4.88,11.644,0.722,17.519c-8.492,11.999-7.996,24.889-20.777,24.809
		c-15.365-0.095-9.642-15.264-19.499-15.687c-4.739-0.203-6.836,3.191-9.168,6.578c-13.19,19.149,13.656,35.096,1.407,42.841
		c-4.653,2.942-4.163,6.612-3.376,10.189c0.991,4.5,5.283,4.619,8.95,4.116c16.867-2.314,17.698,11.051,39.324,24.051
		c13.949,8.385,18.965,23.666,15.208,40.823c-5.192,23.704,31.814,20.006,48.041,53.428c6.098,12.56,12.72,14.998,26.532,9.485
		c10.636-4.245,44.569,10.995,13.459,25.263c-19.468,8.929-19.253,14.872-2.213,26.068c0.911,0.598,1.717,1.628,2.694,1.812
		c8.745,1.647,4.621,6.753,0.97,7.733c-11.842,3.177-18.445,14.248-29.49,18.184c-17.149,6.111-12.328,24.482-29.727,34.236
		c-14.307,8.022-29.038,14.983-44.916,19.496c-116.829,33.203-100.826,78.134-255.911,63.201
		c-8.457-0.814-12.508-10.902-7.803-18.614c4.271-7,9.117-13.702,14.244-20.106c2.578-3.22,5.079-7.159,10.433-6.927
		c15.4,0.67,6.744-20.272-4.563-13.546c-5.107,3.038-10.837,5.102-15.279,9.863c-11.82,12.666-25.027,24.049-36.672,36.862
		c-7.4,8.143-15.282,10.865-26.014,9.901c-10.013-0.9-13.201-9.395-19.462-14.433c-19.36-15.576,15.081-37.681,9.538-85.314
		c-4.533-38.953-5.903-44.34-11.606-51.912c-26.673-35.41-57.376-72.802-96.724-51.333c-10.756,5.868-23.274,6.308-34.414,11.679
		c-11.823,5.699-22.836,12.862-34.805,18.147c-12.603,5.564-24.303,11.751-28.049,26.598c-0.988,3.918-8.576,1.772-7.407,8.75
		c1.55,9.253-4.561,17.246-6.244,25.978c-1.733,8.99-9.378,16.341-7.467,26.043c2.616,13.286,4.234,26.648,4.824,40.153
		c0.621,14.207,18.672,9.531,18.537,27.468c-0.04,5.367,1.814,15.276,8.184,15.977c14.358,1.58,15.174,11.928,17.268,21.755
		c6.265,29.403,30.79,19.89,62.171,52.569c1.504,1.566,3.485,2.339,5.514,3.247c23.138,10.35,26.718-22.804,53.632-17.526
		c7.483,1.467,10.99,8.841,17.238,12.401c44.351,25.272,25.897,76.27,25.873,121.142c-0.019,36.304-24.005,67.038-30.524,78.668
		c-4.615,8.234-11.2,12.083-20.642,11.874c-66.624-1.481-74.674,2.859-84.616-14.335c-7.068-12.224-27.988-15.514-38.347-6.223
		c-21.579,19.356-26.373,32.104-42.941,35.686c-14.33,3.098-23.232,15.253-34.297,23.535
		c-14.542,10.884-14.203,22.448-20.052,39.047c-5.736,16.28-2.946,32.601,5.945,45.728c14.503,21.414,38.808,29.498,62.13,37.702
		c49.017,17.242,60.486-18.976,33.698,63.532c-27.689,85.28-33.8,81.367-48.456,76.005
		c-249.944-91.423-519.539,297.74-242.189,503.339c13.88,10.289,26.912,20.612,42.901,27.192
		c209.701,86.302,436.354-69.292,410.569-288.294c-2.879-24.448,2.551-23.792,8.541-33.148c6.77-10.576,4.39-24.901,10.304-35.979
		c8.041-15.064,30.646-22.28,53.959-7.817c33.97,21.075,26.273,58.922,3.455,65.899c-7.755,2.371-16.696,1.07-23.531,5.433
		c-22.247,14.202,5.306,47.851-3.662,68.372c-3.414,7.813-10.932,12.898-16.45,19.398c-10.42,12.273-5.666,35.829,13.835,26.393
		c20.744-10.038,41.842-19.401,57.706-37.281c11.986-13.509,20-1.696,35.158,3.189c71.477,23.037,139.456-8.632,141.534,16.932
		c5.034,61.931,80.335,184.764,213.146,213.089c205.707,43.871,392.873-137.486,343.821-340.134
		c-23.156-95.665-101.756-177.326-194.672-208.228c-10.542-3.506,0.46-5.874-2.72-52.254c-2.173-31.69-11.351-60.413-29.424-86.655
		c-3.385-4.916-9.673-10.515-7.802-17.141c3.42-12.107,0.423-24.536,3.67-36.645c9.307-34.719,3.322-55.152,24.955-66.291
		c51.04-26.279,46.642-36.721,100.61-57.284c145.569-55.466,159.323-57.03,159.589-86.904c1-112.446-59.108-173.472-147.72-229.658
		c-45.324-28.738-57.143-26.443-55.182-33.874c4.784-18.134,74.394,27.073,144.255,21.056c35.729-3.078,13.982-29.251,40.053-31.217
		c16.089-1.213,28.236,6.165,39.855,15.209c3.268,2.544,6.008,5.832,9.766,2.832C1532.508,414.943,1529.19,406.487,1528.853,399.255
		z M1169.58,1103.568c8.281,34.422,18.128,90.714,18.331,91.748c10.042,51.083,18.381,74.32-15.285,94.751
		c-4.327,2.626-7.635,7.631-14.322,6.533c-16.165-2.655-1.577-2.833-29.008-61.001c-8.787-18.633-15.952-37.888-24.416-56.613
		c-1.211-2.678,0.078-32.165-0.668-68.801c-0.279-13.665,4.913-10.729,33.404-10.729v-0.038
		C1165.1,1099.418,1168.295,1098.225,1169.58,1103.568z M905.079,1314.701c0.573-25.934,20.379-0.912,156.114,10.329
		c4.52,0.374,11.385,0.592,11.519,4.914c0.228,7.306-5.894,5.839-24.948,5.839c-23.175,3.109-46.464-0.196-69.771,0.867
		c-54.702,2.496-65.92-4.175-70.79-5.512C905.138,1330.571,904.731,1330.475,905.079,1314.701z M1018.082,1309.13
		c-19.024-3.124-37.932-6.76-57.104-9.26c-34.169-4.455-57.695-5.391-39.866-42.391c14.549-30.192,41.202-89.949,107.039-126.939
		c12.534-7.042,10.256,1.94,42.472,41.422c16.829,20.625,57.813,97.875,64.172,121.409c0.038,9.972-17.424,24.983-26.102,23.736
		C1078.622,1312.79,1048.082,1314.057,1018.082,1309.13z M818.152,1231.2c-1.539,2.891-0.204,30.25-30.001,30.018
		c-2.55,0-5.247,0.531-7.615-0.125c-3.532-0.978-7.699-3.511-6.292-7.353c15.78-43.1,32.11-44.406,42.273-71.942
		c4.53-12.274,34.896-29.969,21.851-98.725c-2.042-10.763,8.411-7.067,24.315-4.799c16.004,2.282,4.021,16.899-12.858,59.843
		c-5.406,13.753-9.966,27.837-15.066,41.713C828.546,1196.734,826.743,1215.058,818.152,1231.2z M834.582,1291.588
		c8.716,3.446,11.678,8.077,9.75,16.993c-1.007,4.658,0.678,20.602-11.417,21.008c-16.942,0.283-22.047-7.737-16.254-20.481
		c1.317-2.898,1.003-6.577,2.459-9.363C822.278,1293.703,825.807,1288.119,834.582,1291.588z M849.081,967.796
		c-2.438-0.427-5.449,0.039-5.27-3.819c0.178-3.827-1.483-8.357,3.194-10.693c15.385-7.682,13.314,9.376,53.96-27.648
		c2.557-2.329,5.633-4.147,7.938-6.682c3.44-3.783,7.834-4.473,11.84-2.821c3.759,1.55,0.222,6.014,2.133,8.751
		c-4.534,20.648-7.761,41.489-23.316,57.349c-4.108,4.189-8.715,4.593-13.471,0.687C875.32,974.076,862.51,970.15,849.081,967.796z
		 M921.945,985.016c9.52-16.195,12.256-35.396,21.74-51.788c1.62-2.8,1.041-7.171,0.699-10.741
		c-1.856-19.377,14.762-17.041,19.819-3.862c11.834,30.843,32.196,75.141,45.757,100.169c2.192,4.045,0.347,8.903,4.537,11.831
		c-1.639,3.714-3.283,7.102-7.643,6.844c-36.59-2.168-51.605-17.639-81.544-38.787C920.173,995.053,917.958,991.799,921.945,985.016
		z M829.104,537.881c0.922-4.561,6.4-6.843,11.58-8.587c29.606-9.966,86.751-0.028,161.471-44.563
		c24.905-14.844,67.748-9.496,60.339,25.574c-11.575,54.787,1.48,259.45,55.487,343.421c19.673,30.586,4.966,47.955,8.334,73.209
		c10.197,76.477,36.624,109.84,5.265,132.697c-13.354,9.734-33.978,0.901-35.923-15.355c-2.692-22.512-56.373-0.221-65.828-19.898
		c-8.028-16.708-16.134-33.232-22.945-50.626c-19.428-49.611-41.147-77.09-16.417-81.889c25.466-4.942,39.611-26.057,50.161-1.962
		c1.204,2.749,1.411,6.049,5.225,5.602c3.367-0.395,5.236-2.518,6.594-6.102c12.407-32.729-22.65-32.216-28.02-33.738
		c-11.943-3.384-13.617-7.553-10.608-19.991c1.419-5.865,22.691-54.601-13.567-103.896c-2.157-2.932-5.751-7.188-3.069-11.971
		c4.572-8.156,21.886,0.819,21.672-7.054c-0.068-2.48,0.449-4.896-3.342-5.658c-4.184-0.842-8.095-2.953-12.241-4.081
		c-14.459-3.933-17.742-11.601-10.115-24.394c6.85-11.49,7.88-23.422,4.291-36.291c-6.029-21.617-26.467-4.669-46.314-15.955
		l-0.334-0.004l0.499,0.304c-52.518-28.092-85.102-61.833-113.344-79.098C833.877,545.081,828.172,542.495,829.104,537.881z
		 M602.087,863.616c18.732-24.571,50.286-88.944,57.494-100.08c11.512-17.787,26.894-32.543,42.625-46.686
		c7.529-6.768,15.621-1.952,21.753,2.158c16.09,10.783,34.897,16.458,50.562,27.797c19.129,13.847,16.313,26.026,16.458,36.573
		c0.147,10.657,5.132,15.458,15.692,16.139c3.495,0.225,8.564-2.601,10.32,2.745c1.649,5.022-0.734,9.1-4.96,12.21
		c-7.667,5.642-15.141,12.136-23.054,16.726c-12.241,7.099-20.979,18.026-32.835,25.423c-8.635,5.387-18.593,9.305-25.28,18.237
		c-3.357,4.485-11.198,3.199-57.016,3.199c-19.226,2.18-42.672-2.513-66.279-2.3c-3.14,0.028-7.609,0.254-8.403-3.315
		C598.577,869.812,600.26,866.013,602.087,863.616z M396.17,842.183c35.907-44.1,87.478-42.762,127.725-42.762
		c35.441,0.012,37.5-2.517,37.28,8.072c-0.539,26.008-35.115,83.342-61.805,82.43c-18.826-0.643-39.495,3.917-52.974-15.95
		c-10.837-15.97-17.754,15.549-40.473,6.778C390.076,874.633,385.491,855.3,396.17,842.183z M451.774,928.731
		c-12.236,4.813-52.975,0.681-80.025-14.488c-20.659-11.585-28.9-36.888-19.3-58.792c2.125-4.848,1.937-10.625,6.266-14.626
		c4.132-3.818,9.264-5.395,14.116-3.583c4.035,1.507,2.209,6.542,1.873,9.798c-2.495,24.196,17.84,46.69,37.759,51.508
		c11.168,2.701,21.52,7.796,33.74,4.38c9.502-2.656,17.057,1.767,18.357,8.664C465.876,918.574,460.141,925.44,451.774,928.731z
		 M567.452,1380.407c-10.427,122.287-116.678,211.293-234.015,217.584c-163.927,8.789-282.634-136.792-257.114-287.421
		c22.98-135.631,164.855-231.447,299.237-195.032c17.416,4.72,18.5,4.522,9.954,19.993c-6.359,11.511-8.9,24.216-14.058,36.077
		c-0.001,0.001-38.185,83.384-38.185,83.384l0.122,0.042c-7.366,19.061-20.567,35.047-28.414,53.839
		c-2.09,5.004-5.983,2.997-9.24,2.874c-8.296-0.315-16.724,0.782-19.757,9.222c-7.713,21.458,5.157,23.447,6.982,29.112
		c6.467,20.087-11.406,12.405,155.295,15.414C556.231,1367.624,569.74,1353.58,567.452,1380.407z M557.949,1344.656
		c-220.592-0.994-209.974-1.661-209.974-1.661c-8.122,0.362-17.786-3.203-15.462-12.943c8.951-37.52,89.584-189.238,90.198-190.242
		c4.431-7.242,7.476-5.686,13.747-2.255c40.246,22.022,74.685,53.602,98.325,93.058c21.539,35.949,34.792,83.059,35.097,101.517
		C570.022,1340.779,567.182,1344.698,557.949,1344.656z M634.805,1213.598c-5.152,1.197-9.267,5.645-15.271,4.32
		c-7.68-1.695-13.056,2.488-14.408,9.235c-1.269,6.335-6.424,9.097-9.824,12.725c-12.067,12.875-38.307-40.396-44.775-48.827
		c-15.751-20.532-34.142-39.095-54.844-54.647c-46.01-34.563-59.47-33.873-55.714-46.107c4.53-14.757,9.167-29.48,13.886-44.176
		c0.708-2.204,8.832-44.251,20.215-19.932c13.057,27.906,22.429,29.987,104.246,117.298c15.357,16.388,29.947,35.057,47.299,49.337
		c4.773,3.928,7.315,10.564,10.886,15.955C638.069,1211.146,637.658,1212.936,634.805,1213.598z M733.937,1118.04
		c-2.69,22.208-0.927,45.056-6.87,66.657c-6.664,24.222-7.258,60.369-19.391,63.278c-3.528,0.846-5.274-0.948-7.513-4.077
		c-7.689-10.746-183.213-189.166-197.381-206.38c-29.04-35.283-36.27-35.221-32.089-44.813c2.02-4.634,0.657-10.758,0.73-16.222
		c0.219-16.369,9.827-26.468,26.02-25.78c12.607,0.536,21.996-4.509,31.01-12.633c10.439-9.408,21.846-17.564,28.805-30.441
		c2.863-5.298,33.293-14.331,34.554,2.426c0.496,6.591-3.454,14.715,2.769,19.51c12.528,9.652,43.557-1.202,61.04-0.45
		c13.413,0.577,17.648-8.473,14.548-18.453c-2.312-7.442,0.655-8.365,6.345-8.274c5.45,0.087,10.988-0.154,16.325,0.728
		c20.967,3.466-2.862,22.033-15.018,45.971c-8.614,16.962-1.026,48.446,41.517,66.999c9.669,4.217,17.435,13.609,29.967,11.533
		c3.958-0.656,6.583,3.716,6.636,8.414C756.478,1083.006,740.971,1059.971,733.937,1118.04z M763.654,1281.105
		c10.226-2.985,20.187-11.91,31.988-2.685c9.987,7.806,1.635,32.026-1.272,45.568c-3.311,15.428-38.236,13.468-38.234-23.372
		C756.606,1293.815,753.277,1284.134,763.654,1281.105z M846.43,1373.416c-18.739,14.735-27.89,28.348-41.922,19.724
		c-3.962-2.435-10.692-0.775-16.109-0.345c-18.232,1.446-39.03-16.408-24.405-21.217c24.265-7.979,88.462-40.594,88.29-11.215
		C853.316,1365.86,849.725,1370.825,846.43,1373.416z M851.306,1386.227c-1.729-9.266,22.277-37.888,25.012-18.816
		c0.614,4.276,0.896,8.599,1.321,12.902C877.263,1398.175,854.446,1403.057,851.306,1386.227z M874.169,1289.009
		c-0.896,12.153-23.356,1.621-26.117-4.555c-6.343-14.188-15.596-10.627-13.092-23.551c-2.061-7.793,3.106-15.073,5.378-22.122
		c7.129-22.123,12.968-44.648,23.432-65.96c11.788-24.009,9.19-31.82,28.695-87.521c1.32-3.77,5.017-5.173,8.987-4.808
		c22.826,2.098,45.759,5.083,67.672,12.065c20.827,6.636,41.332,9.942,9.233,31.781
		C924.934,1160.686,879.035,1222.996,874.169,1289.009z M905.089,1377.03c-0.022-5.785,0.258-11.567-2.624-16.562
		c5.566-17.592-10.792-9.03,136.427-11.385c18.632-0.298,10.748,11.272,0.482,12.887c-29.803,4.689-93.318,24.179-120.407,26.745
		C906.184,1389.926,905.139,1390.231,905.089,1377.03z M1242.358,1123.457c0.067-10.191,5.181-13.201,14.491-8.866
		c129.849,60.468,152.29,187.624,156.966,197.829c3.355,7.322-0.329,13.553-8.19,14.602c-32.075,4.284-64.298,4.678-96.598,4.563
		c-14.277-0.051-27.707-5.83-42.025-4.758c-3.239,0.242-5.371-2.651-6.369-5.271
		C1241.077,1270.22,1241.526,1250.172,1242.358,1123.457z M1246.507,1349.07c48.877,0.06,97.753,0.058,146.63,0.014
		c17.278-0.016,28.974-13.364,14.354,51.689c-40.687,181.033-228.861,250.266-371.241,169.141
		c-84.087-47.91-105.496-108.176-121.66-147.855c-3.347-8.217,0.06-15.02,7.756-15.721c13.686-1.245,25.611-8.069,38.639-11.296
		c277.875-68.824,164.417-36.083,229.343-49.053C1208.742,1342.311,1242.437,1349.065,1246.507,1349.07z"/>
</g>
</svg>
